G04 #@! TF.GenerationSoftware,KiCad,Pcbnew,(5.1.4)-1*
G04 #@! TF.CreationDate,2020-05-23T20:06:20+05:30*
G04 #@! TF.ProjectId,v1.0,76312e30-2e6b-4696-9361-645f70636258,rev?*
G04 #@! TF.SameCoordinates,Original*
G04 #@! TF.FileFunction,Copper,L2,Bot*
G04 #@! TF.FilePolarity,Positive*
%FSLAX46Y46*%
G04 Gerber Fmt 4.6, Leading zero omitted, Abs format (unit mm)*
G04 Created by KiCad (PCBNEW (5.1.4)-1) date 2020-05-23 20:06:20*
%MOMM*%
%LPD*%
G04 APERTURE LIST*
%ADD10O,1.900000X1.900000*%
%ADD11R,1.900000X1.900000*%
%ADD12R,1.300000X1.300000*%
%ADD13C,1.300000*%
%ADD14C,0.100000*%
%ADD15C,3.500000*%
%ADD16C,3.000000*%
%ADD17R,3.500000X3.500000*%
%ADD18C,1.800000*%
%ADD19R,1.800000X1.800000*%
%ADD20C,2.500000*%
%ADD21C,1.600000*%
%ADD22R,1.600000X1.600000*%
%ADD23O,1.800000X1.800000*%
%ADD24O,1.600000X1.600000*%
%ADD25C,1.440000*%
%ADD26O,2.400000X1.600000*%
%ADD27R,2.400000X1.600000*%
%ADD28R,1.600000X2.400000*%
%ADD29O,1.600000X2.400000*%
%ADD30C,3.300000*%
%ADD31C,0.700000*%
%ADD32C,0.800000*%
%ADD33C,0.254000*%
G04 APERTURE END LIST*
D10*
X139407300Y-126409400D03*
X139407300Y-123602700D03*
D11*
X139458100Y-120707100D03*
D12*
X106970000Y-125040000D03*
D13*
X109510000Y-125040000D03*
X108240000Y-123770000D03*
D14*
G36*
X137220765Y-132644213D02*
G01*
X137305704Y-132656813D01*
X137388999Y-132677677D01*
X137469848Y-132706605D01*
X137547472Y-132743319D01*
X137621124Y-132787464D01*
X137690094Y-132838616D01*
X137753718Y-132896282D01*
X137811384Y-132959906D01*
X137862536Y-133028876D01*
X137906681Y-133102528D01*
X137943395Y-133180152D01*
X137972323Y-133261001D01*
X137993187Y-133344296D01*
X138005787Y-133429235D01*
X138010000Y-133515000D01*
X138010000Y-135265000D01*
X138005787Y-135350765D01*
X137993187Y-135435704D01*
X137972323Y-135518999D01*
X137943395Y-135599848D01*
X137906681Y-135677472D01*
X137862536Y-135751124D01*
X137811384Y-135820094D01*
X137753718Y-135883718D01*
X137690094Y-135941384D01*
X137621124Y-135992536D01*
X137547472Y-136036681D01*
X137469848Y-136073395D01*
X137388999Y-136102323D01*
X137305704Y-136123187D01*
X137220765Y-136135787D01*
X137135000Y-136140000D01*
X135385000Y-136140000D01*
X135299235Y-136135787D01*
X135214296Y-136123187D01*
X135131001Y-136102323D01*
X135050152Y-136073395D01*
X134972528Y-136036681D01*
X134898876Y-135992536D01*
X134829906Y-135941384D01*
X134766282Y-135883718D01*
X134708616Y-135820094D01*
X134657464Y-135751124D01*
X134613319Y-135677472D01*
X134576605Y-135599848D01*
X134547677Y-135518999D01*
X134526813Y-135435704D01*
X134514213Y-135350765D01*
X134510000Y-135265000D01*
X134510000Y-133515000D01*
X134514213Y-133429235D01*
X134526813Y-133344296D01*
X134547677Y-133261001D01*
X134576605Y-133180152D01*
X134613319Y-133102528D01*
X134657464Y-133028876D01*
X134708616Y-132959906D01*
X134766282Y-132896282D01*
X134829906Y-132838616D01*
X134898876Y-132787464D01*
X134972528Y-132743319D01*
X135050152Y-132706605D01*
X135131001Y-132677677D01*
X135214296Y-132656813D01*
X135299235Y-132644213D01*
X135385000Y-132640000D01*
X137135000Y-132640000D01*
X137220765Y-132644213D01*
X137220765Y-132644213D01*
G37*
D15*
X136260000Y-134390000D03*
D14*
G36*
X140083513Y-137343611D02*
G01*
X140156318Y-137354411D01*
X140227714Y-137372295D01*
X140297013Y-137397090D01*
X140363548Y-137428559D01*
X140426678Y-137466398D01*
X140485795Y-137510242D01*
X140540330Y-137559670D01*
X140589758Y-137614205D01*
X140633602Y-137673322D01*
X140671441Y-137736452D01*
X140702910Y-137802987D01*
X140727705Y-137872286D01*
X140745589Y-137943682D01*
X140756389Y-138016487D01*
X140760000Y-138090000D01*
X140760000Y-140090000D01*
X140756389Y-140163513D01*
X140745589Y-140236318D01*
X140727705Y-140307714D01*
X140702910Y-140377013D01*
X140671441Y-140443548D01*
X140633602Y-140506678D01*
X140589758Y-140565795D01*
X140540330Y-140620330D01*
X140485795Y-140669758D01*
X140426678Y-140713602D01*
X140363548Y-140751441D01*
X140297013Y-140782910D01*
X140227714Y-140807705D01*
X140156318Y-140825589D01*
X140083513Y-140836389D01*
X140010000Y-140840000D01*
X138510000Y-140840000D01*
X138436487Y-140836389D01*
X138363682Y-140825589D01*
X138292286Y-140807705D01*
X138222987Y-140782910D01*
X138156452Y-140751441D01*
X138093322Y-140713602D01*
X138034205Y-140669758D01*
X137979670Y-140620330D01*
X137930242Y-140565795D01*
X137886398Y-140506678D01*
X137848559Y-140443548D01*
X137817090Y-140377013D01*
X137792295Y-140307714D01*
X137774411Y-140236318D01*
X137763611Y-140163513D01*
X137760000Y-140090000D01*
X137760000Y-138090000D01*
X137763611Y-138016487D01*
X137774411Y-137943682D01*
X137792295Y-137872286D01*
X137817090Y-137802987D01*
X137848559Y-137736452D01*
X137886398Y-137673322D01*
X137930242Y-137614205D01*
X137979670Y-137559670D01*
X138034205Y-137510242D01*
X138093322Y-137466398D01*
X138156452Y-137428559D01*
X138222987Y-137397090D01*
X138292286Y-137372295D01*
X138363682Y-137354411D01*
X138436487Y-137343611D01*
X138510000Y-137340000D01*
X140010000Y-137340000D01*
X140083513Y-137343611D01*
X140083513Y-137343611D01*
G37*
D16*
X139260000Y-139090000D03*
D17*
X133260000Y-139090000D03*
D18*
X89840000Y-129960000D03*
D19*
X89840000Y-127420000D03*
D18*
X89840000Y-141210000D03*
D19*
X89840000Y-138670000D03*
D16*
X118280000Y-123790000D03*
D20*
X120230000Y-117840000D03*
D16*
X132480000Y-117790000D03*
X132430000Y-129840000D03*
D20*
X120230000Y-129840000D03*
D21*
X135820000Y-149350000D03*
D22*
X135820000Y-146850000D03*
D21*
X130860000Y-148390000D03*
X128360000Y-148390000D03*
X112220000Y-145360000D03*
X112220000Y-147860000D03*
X98920000Y-146260000D03*
X101420000Y-146260000D03*
D22*
X117690000Y-148150000D03*
D21*
X115190000Y-148150000D03*
D19*
X121730000Y-148150000D03*
D18*
X124270000Y-148150000D03*
D19*
X113420000Y-123500000D03*
D23*
X113420000Y-131120000D03*
X106370000Y-119390000D03*
D19*
X113990000Y-119390000D03*
D21*
X107740000Y-142350000D03*
D24*
X107740000Y-149970000D03*
X103630000Y-123870000D03*
D21*
X96010000Y-123870000D03*
D24*
X103600000Y-119480000D03*
D21*
X95980000Y-119480000D03*
X107700000Y-129610000D03*
D24*
X107700000Y-137230000D03*
X129320000Y-137920000D03*
D21*
X129320000Y-145540000D03*
D25*
X97490000Y-141180000D03*
X100030000Y-141180000D03*
X102570000Y-141180000D03*
X112810000Y-135860000D03*
X112810000Y-138400000D03*
X112810000Y-140940000D03*
D26*
X103730000Y-128560000D03*
X96110000Y-136180000D03*
X103730000Y-131100000D03*
X96110000Y-133640000D03*
X103730000Y-133640000D03*
X96110000Y-131100000D03*
X103730000Y-136180000D03*
D27*
X96110000Y-128560000D03*
D28*
X125600000Y-135250000D03*
D29*
X117980000Y-142870000D03*
X123060000Y-135250000D03*
X120520000Y-142870000D03*
X120520000Y-135250000D03*
X123060000Y-142870000D03*
X117980000Y-135250000D03*
X125600000Y-142870000D03*
D30*
X89220000Y-119200000D03*
X89220000Y-148970000D03*
D31*
X97490000Y-144830000D02*
X98920000Y-146260000D01*
X97490000Y-141180000D02*
X97490000Y-144830000D01*
X114900000Y-147860000D02*
X115190000Y-148150000D01*
X112220000Y-147860000D02*
X114900000Y-147860000D01*
X121680000Y-148150000D02*
X121730000Y-148150000D01*
X119470000Y-150360000D02*
X121680000Y-148150000D01*
X116440000Y-150360000D02*
X119470000Y-150360000D01*
X115190000Y-148150000D02*
X115190000Y-149110000D01*
X115190000Y-149110000D02*
X116440000Y-150360000D01*
X136140000Y-126130000D02*
X139420000Y-126130000D01*
X132430000Y-129840000D02*
X136140000Y-126130000D01*
X136260000Y-133670000D02*
X132430000Y-129840000D01*
X136260000Y-134390000D02*
X136260000Y-133670000D01*
X136260000Y-136090000D02*
X139260000Y-139090000D01*
X136260000Y-134390000D02*
X136260000Y-136090000D01*
X135820000Y-149350000D02*
X137720000Y-149350000D01*
X128360000Y-149521370D02*
X128420000Y-149581370D01*
X128360000Y-148390000D02*
X128360000Y-149521370D01*
X128420000Y-149581370D02*
X128420000Y-150110000D01*
X102570000Y-145110000D02*
X101420000Y-146260000D01*
X102570000Y-141180000D02*
X102570000Y-145110000D01*
X104130000Y-128560000D02*
X103730000Y-128560000D01*
X107700000Y-132130000D02*
X104130000Y-128560000D01*
X107700000Y-137230000D02*
X107700000Y-132130000D01*
X103730000Y-123970000D02*
X103630000Y-123870000D01*
X103730000Y-128560000D02*
X103730000Y-123970000D01*
X111440000Y-137230000D02*
X112810000Y-135860000D01*
X107700000Y-137230000D02*
X111440000Y-137230000D01*
X107740000Y-137270000D02*
X107700000Y-137230000D01*
X106570000Y-141180000D02*
X107740000Y-142350000D01*
X102570000Y-141180000D02*
X106570000Y-141180000D01*
X107740000Y-140010000D02*
X106570000Y-141180000D01*
X107740000Y-139330000D02*
X107740000Y-140010000D01*
X107740000Y-139330000D02*
X107740000Y-137270000D01*
X106630000Y-141240000D02*
X106570000Y-141180000D01*
X107740000Y-142350000D02*
X107740000Y-141240000D01*
X107740000Y-140760000D02*
X107260000Y-141240000D01*
X107740000Y-140480000D02*
X107740000Y-140760000D01*
X107260000Y-141240000D02*
X106630000Y-141240000D01*
X107740000Y-141240000D02*
X107260000Y-141240000D01*
X107740000Y-141240000D02*
X107740000Y-140480000D01*
X107740000Y-140480000D02*
X107740000Y-139330000D01*
X134280000Y-148390000D02*
X135820000Y-146850000D01*
X130860000Y-148390000D02*
X134280000Y-148390000D01*
X131930000Y-142870000D02*
X130740000Y-142870000D01*
X133260000Y-141540000D02*
X131930000Y-142870000D01*
X133260000Y-139090000D02*
X133260000Y-141540000D01*
X125600000Y-142870000D02*
X130740000Y-142870000D01*
X135820000Y-146560000D02*
X135820000Y-146850000D01*
X130740000Y-142870000D02*
X132130000Y-142870000D01*
X132130000Y-142870000D02*
X135820000Y-146560000D01*
X113420000Y-135250000D02*
X112810000Y-135860000D01*
X117980000Y-135250000D02*
X113420000Y-135250000D01*
X118480000Y-123590000D02*
X118280000Y-123790000D01*
X139420000Y-123590000D02*
X118480000Y-123590000D01*
X125600000Y-142110000D02*
X125600000Y-142870000D01*
X123370000Y-139880000D02*
X125600000Y-142110000D01*
X121000000Y-139880000D02*
X123370000Y-139880000D01*
X117980000Y-135250000D02*
X117980000Y-136860000D01*
X117980000Y-136860000D02*
X121000000Y-139880000D01*
D32*
X118467300Y-123602700D02*
X118280000Y-123790000D01*
X139407300Y-123602700D02*
X118467300Y-123602700D01*
X118340000Y-123790000D02*
X118280000Y-123790000D01*
X133260000Y-139090000D02*
X133260000Y-138710000D01*
X133260000Y-138710000D02*
X118340000Y-123790000D01*
D31*
X114710000Y-142870000D02*
X112220000Y-145360000D01*
X117980000Y-142870000D02*
X114710000Y-142870000D01*
X123060000Y-142870000D02*
X120520000Y-142870000D01*
X120520000Y-142470000D02*
X120520000Y-142870000D01*
X117700000Y-139650000D02*
X120520000Y-142470000D01*
X112810000Y-140940000D02*
X114100000Y-139650000D01*
X114100000Y-139650000D02*
X117700000Y-139650000D01*
X114070000Y-139680000D02*
X114100000Y-139650000D01*
X114050000Y-139680000D02*
X114070000Y-139680000D01*
X112810000Y-138400000D02*
X114050000Y-139640000D01*
X114050000Y-139640000D02*
X114050000Y-139680000D01*
X113080000Y-139680000D02*
X112810000Y-139410000D01*
X114070000Y-139680000D02*
X113080000Y-139680000D01*
X112810000Y-138400000D02*
X112810000Y-139410000D01*
X112810000Y-139410000D02*
X112810000Y-140940000D01*
X120520000Y-145320000D02*
X117690000Y-148150000D01*
X120520000Y-142870000D02*
X120520000Y-145320000D01*
X126880000Y-145540000D02*
X129320000Y-145540000D01*
X124270000Y-148150000D02*
X126880000Y-145540000D01*
X113990000Y-122930000D02*
X113420000Y-123500000D01*
X113990000Y-119390000D02*
X113990000Y-122930000D01*
X118680000Y-119390000D02*
X120230000Y-117840000D01*
X113990000Y-119390000D02*
X118680000Y-119390000D01*
X128188630Y-137920000D02*
X129320000Y-137920000D01*
X122570000Y-137920000D02*
X128188630Y-137920000D01*
X120520000Y-135250000D02*
X120520000Y-135870000D01*
X120520000Y-135870000D02*
X122570000Y-137920000D01*
X116390000Y-131120000D02*
X120520000Y-135250000D01*
X113420000Y-131120000D02*
X116390000Y-131120000D01*
X107890000Y-123770000D02*
X103600000Y-119480000D01*
X108240000Y-123770000D02*
X107890000Y-123770000D01*
X107700000Y-125770000D02*
X106970000Y-125040000D01*
X107700000Y-129610000D02*
X107700000Y-125770000D01*
X123060000Y-134480000D02*
X123060000Y-135250000D01*
X121100000Y-132520000D02*
X123060000Y-134480000D01*
X119590000Y-132520000D02*
X121100000Y-132520000D01*
X116240000Y-129170000D02*
X119590000Y-132520000D01*
X107700000Y-129610000D02*
X108140000Y-129170000D01*
X108140000Y-129170000D02*
X116240000Y-129170000D01*
X96779999Y-120279999D02*
X95980000Y-119480000D01*
X98180000Y-121680000D02*
X96779999Y-120279999D01*
X98180000Y-126380000D02*
X98180000Y-121680000D01*
X96110000Y-128560000D02*
X96110000Y-128450000D01*
X96110000Y-128450000D02*
X98180000Y-126380000D01*
X96510000Y-133640000D02*
X96110000Y-133640000D01*
X100030000Y-137160000D02*
X96510000Y-133640000D01*
X100030000Y-141180000D02*
X100030000Y-137160000D01*
X98220000Y-149990000D02*
X107770000Y-149990000D01*
X89840000Y-141210000D02*
X89840000Y-141610000D01*
X89840000Y-141610000D02*
X98220000Y-149990000D01*
X91930000Y-127610000D02*
X89910000Y-127610000D01*
X96110000Y-131100000D02*
X95420000Y-131100000D01*
X95420000Y-131100000D02*
X91930000Y-127610000D01*
X92050000Y-127610000D02*
X89910000Y-127610000D01*
X96010000Y-123870000D02*
X95790000Y-123870000D01*
X95790000Y-123870000D02*
X92050000Y-127610000D01*
D32*
X92460000Y-127420000D02*
X96010000Y-123870000D01*
X89840000Y-127420000D02*
X90600000Y-127420000D01*
X90600000Y-127420000D02*
X92460000Y-127420000D01*
X91710000Y-127420000D02*
X90600000Y-127420000D01*
X96110000Y-131100000D02*
X95390000Y-131100000D01*
X95390000Y-131100000D02*
X91710000Y-127420000D01*
D31*
X135740000Y-121050000D02*
X132480000Y-117790000D01*
X139420000Y-121050000D02*
X135740000Y-121050000D01*
D33*
G36*
X142278001Y-153118000D02*
G01*
X85072000Y-153118000D01*
X85072000Y-148726037D01*
X86743000Y-148726037D01*
X86743000Y-149213963D01*
X86838190Y-149692514D01*
X87024911Y-150143299D01*
X87295989Y-150548995D01*
X87641005Y-150894011D01*
X88046701Y-151165089D01*
X88497486Y-151351810D01*
X88976037Y-151447000D01*
X89463963Y-151447000D01*
X89942514Y-151351810D01*
X90393299Y-151165089D01*
X90798995Y-150894011D01*
X91144011Y-150548995D01*
X91415089Y-150143299D01*
X91601810Y-149692514D01*
X91697000Y-149213963D01*
X91697000Y-148726037D01*
X91601810Y-148247486D01*
X91415089Y-147796701D01*
X91144011Y-147391005D01*
X90798995Y-147045989D01*
X90393299Y-146774911D01*
X89942514Y-146588190D01*
X89463963Y-146493000D01*
X88976037Y-146493000D01*
X88497486Y-146588190D01*
X88046701Y-146774911D01*
X87641005Y-147045989D01*
X87295989Y-147391005D01*
X87024911Y-147796701D01*
X86838190Y-148247486D01*
X86743000Y-148726037D01*
X85072000Y-148726037D01*
X85072000Y-141039905D01*
X88113000Y-141039905D01*
X88113000Y-141380095D01*
X88179368Y-141713747D01*
X88309553Y-142028041D01*
X88498552Y-142310898D01*
X88739102Y-142551448D01*
X89021959Y-142740447D01*
X89336253Y-142870632D01*
X89460897Y-142895425D01*
X97346858Y-150781388D01*
X97383709Y-150826291D01*
X97562930Y-150973374D01*
X97767403Y-151082667D01*
X97989268Y-151149969D01*
X98220000Y-151172694D01*
X98277812Y-151167000D01*
X106633894Y-151167000D01*
X106831714Y-151329346D01*
X107114362Y-151480425D01*
X107421052Y-151573458D01*
X107660075Y-151597000D01*
X107819925Y-151597000D01*
X108058948Y-151573458D01*
X108365638Y-151480425D01*
X108648286Y-151329346D01*
X108896029Y-151126029D01*
X109099346Y-150878286D01*
X109250425Y-150595638D01*
X109327151Y-150342702D01*
X135006903Y-150342702D01*
X135078486Y-150586671D01*
X135333996Y-150707571D01*
X135608184Y-150776300D01*
X135890512Y-150790217D01*
X136170130Y-150748787D01*
X136436292Y-150653603D01*
X136561514Y-150586671D01*
X136633097Y-150342702D01*
X135820000Y-149529605D01*
X135006903Y-150342702D01*
X109327151Y-150342702D01*
X109343458Y-150288948D01*
X109374872Y-149970000D01*
X109343458Y-149651052D01*
X109250425Y-149344362D01*
X109099346Y-149061714D01*
X108927815Y-148852702D01*
X111406903Y-148852702D01*
X111478486Y-149096671D01*
X111733996Y-149217571D01*
X112008184Y-149286300D01*
X112290512Y-149300217D01*
X112570130Y-149258787D01*
X112836292Y-149163603D01*
X112961514Y-149096671D01*
X113033097Y-148852702D01*
X112220000Y-148039605D01*
X111406903Y-148852702D01*
X108927815Y-148852702D01*
X108896029Y-148813971D01*
X108648286Y-148610654D01*
X108365638Y-148459575D01*
X108058948Y-148366542D01*
X107819925Y-148343000D01*
X107660075Y-148343000D01*
X107421052Y-148366542D01*
X107114362Y-148459575D01*
X106831714Y-148610654D01*
X106585154Y-148813000D01*
X98707530Y-148813000D01*
X97825042Y-147930512D01*
X110779783Y-147930512D01*
X110821213Y-148210130D01*
X110916397Y-148476292D01*
X110983329Y-148601514D01*
X111227298Y-148673097D01*
X112040395Y-147860000D01*
X112399605Y-147860000D01*
X113212702Y-148673097D01*
X113456671Y-148601514D01*
X113577571Y-148346004D01*
X113609027Y-148220512D01*
X113749783Y-148220512D01*
X113791213Y-148500130D01*
X113886397Y-148766292D01*
X113953329Y-148891514D01*
X114197298Y-148963097D01*
X115010395Y-148150000D01*
X114197298Y-147336903D01*
X113953329Y-147408486D01*
X113832429Y-147663996D01*
X113763700Y-147938184D01*
X113749783Y-148220512D01*
X113609027Y-148220512D01*
X113646300Y-148071816D01*
X113660217Y-147789488D01*
X113618787Y-147509870D01*
X113523603Y-147243708D01*
X113456671Y-147118486D01*
X113212702Y-147046903D01*
X112399605Y-147860000D01*
X112040395Y-147860000D01*
X111227298Y-147046903D01*
X110983329Y-147118486D01*
X110862429Y-147373996D01*
X110793700Y-147648184D01*
X110779783Y-147930512D01*
X97825042Y-147930512D01*
X97147232Y-147252702D01*
X98106903Y-147252702D01*
X98178486Y-147496671D01*
X98433996Y-147617571D01*
X98708184Y-147686300D01*
X98990512Y-147700217D01*
X99270130Y-147658787D01*
X99536292Y-147563603D01*
X99661514Y-147496671D01*
X99733097Y-147252702D01*
X98920000Y-146439605D01*
X98106903Y-147252702D01*
X97147232Y-147252702D01*
X96225042Y-146330512D01*
X97479783Y-146330512D01*
X97521213Y-146610130D01*
X97616397Y-146876292D01*
X97683329Y-147001514D01*
X97927298Y-147073097D01*
X98740395Y-146260000D01*
X97927298Y-145446903D01*
X97683329Y-145518486D01*
X97562429Y-145773996D01*
X97493700Y-146048184D01*
X97479783Y-146330512D01*
X96225042Y-146330512D01*
X95161828Y-145267298D01*
X98106903Y-145267298D01*
X98920000Y-146080395D01*
X99733097Y-145267298D01*
X99661514Y-145023329D01*
X99406004Y-144902429D01*
X99131816Y-144833700D01*
X98849488Y-144819783D01*
X98569870Y-144861213D01*
X98303708Y-144956397D01*
X98178486Y-145023329D01*
X98106903Y-145267298D01*
X95161828Y-145267298D01*
X92010089Y-142115560D01*
X96734045Y-142115560D01*
X96795932Y-142351368D01*
X97037790Y-142464266D01*
X97297027Y-142527811D01*
X97563680Y-142539561D01*
X97827501Y-142499063D01*
X98078353Y-142407875D01*
X98184068Y-142351368D01*
X98245955Y-142115560D01*
X97490000Y-141359605D01*
X96734045Y-142115560D01*
X92010089Y-142115560D01*
X91518491Y-141623963D01*
X91567000Y-141380095D01*
X91567000Y-141253680D01*
X96130439Y-141253680D01*
X96170937Y-141517501D01*
X96262125Y-141768353D01*
X96318632Y-141874068D01*
X96554440Y-141935955D01*
X97310395Y-141180000D01*
X96554440Y-140424045D01*
X96318632Y-140485932D01*
X96205734Y-140727790D01*
X96142189Y-140987027D01*
X96130439Y-141253680D01*
X91567000Y-141253680D01*
X91567000Y-141039905D01*
X91500632Y-140706253D01*
X91370447Y-140391959D01*
X91271878Y-140244440D01*
X96734045Y-140244440D01*
X97490000Y-141000395D01*
X98245955Y-140244440D01*
X98184068Y-140008632D01*
X97942210Y-139895734D01*
X97682973Y-139832189D01*
X97416320Y-139820439D01*
X97152499Y-139860937D01*
X96901647Y-139952125D01*
X96795932Y-140008632D01*
X96734045Y-140244440D01*
X91271878Y-140244440D01*
X91181448Y-140109102D01*
X91137549Y-140065203D01*
X91191185Y-140021185D01*
X91270537Y-139924494D01*
X91329502Y-139814180D01*
X91365812Y-139694482D01*
X91378072Y-139570000D01*
X91375000Y-138955750D01*
X91216250Y-138797000D01*
X89967000Y-138797000D01*
X89967000Y-138817000D01*
X89713000Y-138817000D01*
X89713000Y-138797000D01*
X88463750Y-138797000D01*
X88305000Y-138955750D01*
X88301928Y-139570000D01*
X88314188Y-139694482D01*
X88350498Y-139814180D01*
X88409463Y-139924494D01*
X88488815Y-140021185D01*
X88542451Y-140065203D01*
X88498552Y-140109102D01*
X88309553Y-140391959D01*
X88179368Y-140706253D01*
X88113000Y-141039905D01*
X85072000Y-141039905D01*
X85072000Y-137770000D01*
X88301928Y-137770000D01*
X88305000Y-138384250D01*
X88463750Y-138543000D01*
X89713000Y-138543000D01*
X89713000Y-137293750D01*
X89967000Y-137293750D01*
X89967000Y-138543000D01*
X91216250Y-138543000D01*
X91375000Y-138384250D01*
X91378072Y-137770000D01*
X91365812Y-137645518D01*
X91329502Y-137525820D01*
X91270537Y-137415506D01*
X91191185Y-137318815D01*
X91094494Y-137239463D01*
X90984180Y-137180498D01*
X90864482Y-137144188D01*
X90740000Y-137131928D01*
X90125750Y-137135000D01*
X89967000Y-137293750D01*
X89713000Y-137293750D01*
X89554250Y-137135000D01*
X88940000Y-137131928D01*
X88815518Y-137144188D01*
X88695820Y-137180498D01*
X88585506Y-137239463D01*
X88488815Y-137318815D01*
X88409463Y-137415506D01*
X88350498Y-137525820D01*
X88314188Y-137645518D01*
X88301928Y-137770000D01*
X85072000Y-137770000D01*
X85072000Y-136529039D01*
X94318096Y-136529039D01*
X94335633Y-136611818D01*
X94446285Y-136871646D01*
X94605500Y-137104895D01*
X94807161Y-137302601D01*
X95043517Y-137457166D01*
X95305486Y-137562650D01*
X95583000Y-137615000D01*
X95983000Y-137615000D01*
X95983000Y-136307000D01*
X94440085Y-136307000D01*
X94318096Y-136529039D01*
X85072000Y-136529039D01*
X85072000Y-131024080D01*
X88955525Y-131024080D01*
X89039208Y-131278261D01*
X89311775Y-131409158D01*
X89604642Y-131484365D01*
X89906553Y-131500991D01*
X90205907Y-131458397D01*
X90491199Y-131358222D01*
X90640792Y-131278261D01*
X90724475Y-131024080D01*
X89840000Y-130139605D01*
X88955525Y-131024080D01*
X85072000Y-131024080D01*
X85072000Y-126520000D01*
X88108999Y-126520000D01*
X88108999Y-128320000D01*
X88124966Y-128482120D01*
X88172255Y-128638010D01*
X88249048Y-128781679D01*
X88352394Y-128907606D01*
X88478321Y-129010952D01*
X88621990Y-129087745D01*
X88682786Y-129106187D01*
X88521739Y-129159208D01*
X88390842Y-129431775D01*
X88315635Y-129724642D01*
X88299009Y-130026553D01*
X88341603Y-130325907D01*
X88441778Y-130611199D01*
X88521739Y-130760792D01*
X88775920Y-130844475D01*
X89660395Y-129960000D01*
X89646253Y-129945858D01*
X89825858Y-129766253D01*
X89840000Y-129780395D01*
X89854143Y-129766253D01*
X90033748Y-129945858D01*
X90019605Y-129960000D01*
X90904080Y-130844475D01*
X91158261Y-130760792D01*
X91289158Y-130488225D01*
X91364365Y-130195358D01*
X91380991Y-129893447D01*
X91338397Y-129594093D01*
X91238222Y-129308801D01*
X91158261Y-129159208D01*
X90997214Y-129106187D01*
X91058010Y-129087745D01*
X91201679Y-129010952D01*
X91327606Y-128907606D01*
X91388350Y-128833589D01*
X94164382Y-131609622D01*
X94199575Y-131725638D01*
X94350654Y-132008286D01*
X94553971Y-132256029D01*
X94692845Y-132370000D01*
X94553971Y-132483971D01*
X94350654Y-132731714D01*
X94199575Y-133014362D01*
X94106542Y-133321052D01*
X94075128Y-133640000D01*
X94106542Y-133958948D01*
X94199575Y-134265638D01*
X94350654Y-134548286D01*
X94553971Y-134796029D01*
X94801714Y-134999346D01*
X94853558Y-135027057D01*
X94807161Y-135057399D01*
X94605500Y-135255105D01*
X94446285Y-135488354D01*
X94335633Y-135748182D01*
X94318096Y-135830961D01*
X94440085Y-136053000D01*
X95983000Y-136053000D01*
X95983000Y-136033000D01*
X96237000Y-136033000D01*
X96237000Y-136053000D01*
X96257000Y-136053000D01*
X96257000Y-136307000D01*
X96237000Y-136307000D01*
X96237000Y-137615000D01*
X96637000Y-137615000D01*
X96914514Y-137562650D01*
X97176483Y-137457166D01*
X97412839Y-137302601D01*
X97614500Y-137104895D01*
X97773715Y-136871646D01*
X97864333Y-136658862D01*
X98853001Y-137647531D01*
X98853000Y-140169212D01*
X98828367Y-140193845D01*
X98659067Y-140447221D01*
X98644830Y-140481592D01*
X98425560Y-140424045D01*
X97669605Y-141180000D01*
X98425560Y-141935955D01*
X98644830Y-141878408D01*
X98659067Y-141912779D01*
X98828367Y-142166155D01*
X99043845Y-142381633D01*
X99297221Y-142550933D01*
X99578757Y-142667549D01*
X99877634Y-142727000D01*
X100182366Y-142727000D01*
X100481243Y-142667549D01*
X100762779Y-142550933D01*
X101016155Y-142381633D01*
X101231633Y-142166155D01*
X101300000Y-142063836D01*
X101368367Y-142166155D01*
X101393000Y-142190788D01*
X101393001Y-144622470D01*
X101382471Y-144633000D01*
X101259755Y-144633000D01*
X100945422Y-144695525D01*
X100649327Y-144818172D01*
X100382848Y-144996227D01*
X100156227Y-145222848D01*
X99991141Y-145469918D01*
X99912702Y-145446903D01*
X99099605Y-146260000D01*
X99912702Y-147073097D01*
X99991141Y-147050082D01*
X100156227Y-147297152D01*
X100382848Y-147523773D01*
X100649327Y-147701828D01*
X100945422Y-147824475D01*
X101259755Y-147887000D01*
X101580245Y-147887000D01*
X101894578Y-147824475D01*
X102190673Y-147701828D01*
X102457152Y-147523773D01*
X102683773Y-147297152D01*
X102861828Y-147030673D01*
X102984475Y-146734578D01*
X103047000Y-146420245D01*
X103047000Y-146297529D01*
X103361387Y-145983142D01*
X103406291Y-145946291D01*
X103471671Y-145866626D01*
X103553374Y-145767070D01*
X103662666Y-145562598D01*
X103662667Y-145562597D01*
X103729969Y-145340732D01*
X103740386Y-145234966D01*
X103752694Y-145110000D01*
X103747000Y-145052188D01*
X103747000Y-142357000D01*
X106082471Y-142357000D01*
X106113000Y-142387529D01*
X106113000Y-142510245D01*
X106175525Y-142824578D01*
X106298172Y-143120673D01*
X106476227Y-143387152D01*
X106702848Y-143613773D01*
X106969327Y-143791828D01*
X107265422Y-143914475D01*
X107579755Y-143977000D01*
X107900245Y-143977000D01*
X108214578Y-143914475D01*
X108510673Y-143791828D01*
X108777152Y-143613773D01*
X109003773Y-143387152D01*
X109181828Y-143120673D01*
X109304475Y-142824578D01*
X109367000Y-142510245D01*
X109367000Y-142189755D01*
X109304475Y-141875422D01*
X109181828Y-141579327D01*
X109003773Y-141312848D01*
X108921795Y-141230870D01*
X108917000Y-141182188D01*
X108917000Y-140817811D01*
X108922694Y-140760000D01*
X108917000Y-140702188D01*
X108917000Y-140067811D01*
X108922694Y-140010000D01*
X108917000Y-139952188D01*
X108917000Y-138407000D01*
X111263000Y-138407000D01*
X111263000Y-138552366D01*
X111322451Y-138851243D01*
X111439067Y-139132779D01*
X111608367Y-139386155D01*
X111627746Y-139405534D01*
X111627306Y-139410000D01*
X111633000Y-139467812D01*
X111633000Y-139929212D01*
X111608367Y-139953845D01*
X111439067Y-140207221D01*
X111322451Y-140488757D01*
X111263000Y-140787634D01*
X111263000Y-141092366D01*
X111322451Y-141391243D01*
X111439067Y-141672779D01*
X111608367Y-141926155D01*
X111823845Y-142141633D01*
X112077221Y-142310933D01*
X112358757Y-142427549D01*
X112657634Y-142487000D01*
X112962366Y-142487000D01*
X113261243Y-142427549D01*
X113542779Y-142310933D01*
X113728897Y-142186573D01*
X112182471Y-143733000D01*
X112059755Y-143733000D01*
X111745422Y-143795525D01*
X111449327Y-143918172D01*
X111182848Y-144096227D01*
X110956227Y-144322848D01*
X110778172Y-144589327D01*
X110655525Y-144885422D01*
X110593000Y-145199755D01*
X110593000Y-145520245D01*
X110655525Y-145834578D01*
X110778172Y-146130673D01*
X110956227Y-146397152D01*
X111182848Y-146623773D01*
X111429918Y-146788859D01*
X111406903Y-146867298D01*
X112220000Y-147680395D01*
X113033097Y-146867298D01*
X113010082Y-146788859D01*
X113257152Y-146623773D01*
X113483773Y-146397152D01*
X113661828Y-146130673D01*
X113784475Y-145834578D01*
X113847000Y-145520245D01*
X113847000Y-145397529D01*
X115197530Y-144047000D01*
X116550480Y-144047000D01*
X116620654Y-144178285D01*
X116823971Y-144426029D01*
X117071714Y-144629346D01*
X117354362Y-144780425D01*
X117661052Y-144873458D01*
X117980000Y-144904872D01*
X118298947Y-144873458D01*
X118605637Y-144780425D01*
X118888285Y-144629346D01*
X119136029Y-144426029D01*
X119250000Y-144287154D01*
X119343001Y-144400476D01*
X119343001Y-144832470D01*
X117656473Y-146518999D01*
X116890000Y-146518999D01*
X116727880Y-146534966D01*
X116571990Y-146582255D01*
X116428321Y-146659048D01*
X116302394Y-146762394D01*
X116199048Y-146888321D01*
X116122255Y-147031990D01*
X116119481Y-147041134D01*
X116119370Y-147041023D01*
X116003097Y-147157296D01*
X115931514Y-146913329D01*
X115676004Y-146792429D01*
X115401816Y-146723700D01*
X115119488Y-146709783D01*
X114839870Y-146751213D01*
X114573708Y-146846397D01*
X114448486Y-146913329D01*
X114376903Y-147157298D01*
X115190000Y-147970395D01*
X115204143Y-147956253D01*
X115383748Y-148135858D01*
X115369605Y-148150000D01*
X115383748Y-148164143D01*
X115204143Y-148343748D01*
X115190000Y-148329605D01*
X114376903Y-149142702D01*
X114448486Y-149386671D01*
X114703996Y-149507571D01*
X114978184Y-149576300D01*
X115260512Y-149590217D01*
X115540130Y-149548787D01*
X115806292Y-149453603D01*
X115931514Y-149386671D01*
X116003097Y-149142704D01*
X116119370Y-149258977D01*
X116119481Y-149258866D01*
X116122255Y-149268010D01*
X116199048Y-149411679D01*
X116302394Y-149537606D01*
X116428321Y-149640952D01*
X116571990Y-149717745D01*
X116727880Y-149765034D01*
X116890000Y-149781001D01*
X118490000Y-149781001D01*
X118652120Y-149765034D01*
X118808010Y-149717745D01*
X118951679Y-149640952D01*
X119077606Y-149537606D01*
X119180952Y-149411679D01*
X119257745Y-149268010D01*
X119305034Y-149112120D01*
X119311152Y-149050000D01*
X120191928Y-149050000D01*
X120204188Y-149174482D01*
X120240498Y-149294180D01*
X120299463Y-149404494D01*
X120378815Y-149501185D01*
X120475506Y-149580537D01*
X120585820Y-149639502D01*
X120705518Y-149675812D01*
X120830000Y-149688072D01*
X121444250Y-149685000D01*
X121603000Y-149526250D01*
X121603000Y-148277000D01*
X120353750Y-148277000D01*
X120195000Y-148435750D01*
X120191928Y-149050000D01*
X119311152Y-149050000D01*
X119321001Y-148950000D01*
X119321001Y-148183527D01*
X120192240Y-147312289D01*
X120195000Y-147864250D01*
X120353750Y-148023000D01*
X121603000Y-148023000D01*
X121603000Y-146773750D01*
X121444250Y-146615000D01*
X120892289Y-146612240D01*
X121311382Y-146193147D01*
X121356291Y-146156291D01*
X121503374Y-145977070D01*
X121612667Y-145772597D01*
X121679969Y-145550732D01*
X121697000Y-145377812D01*
X121697000Y-145377803D01*
X121702693Y-145320001D01*
X121697000Y-145262199D01*
X121697000Y-144400476D01*
X121790000Y-144287154D01*
X121903971Y-144426029D01*
X122151714Y-144629346D01*
X122434362Y-144780425D01*
X122741052Y-144873458D01*
X123060000Y-144904872D01*
X123378947Y-144873458D01*
X123685637Y-144780425D01*
X123968285Y-144629346D01*
X124216029Y-144426029D01*
X124330000Y-144287154D01*
X124443971Y-144426029D01*
X124691714Y-144629346D01*
X124974362Y-144780425D01*
X125281052Y-144873458D01*
X125600000Y-144904872D01*
X125877978Y-144877493D01*
X124332472Y-146423000D01*
X124099905Y-146423000D01*
X123766253Y-146489368D01*
X123451959Y-146619553D01*
X123169102Y-146808552D01*
X123125203Y-146852451D01*
X123081185Y-146798815D01*
X122984494Y-146719463D01*
X122874180Y-146660498D01*
X122754482Y-146624188D01*
X122630000Y-146611928D01*
X122015750Y-146615000D01*
X121857000Y-146773750D01*
X121857000Y-148023000D01*
X121877000Y-148023000D01*
X121877000Y-148277000D01*
X121857000Y-148277000D01*
X121857000Y-149526250D01*
X122015750Y-149685000D01*
X122630000Y-149688072D01*
X122754482Y-149675812D01*
X122874180Y-149639502D01*
X122984494Y-149580537D01*
X123081185Y-149501185D01*
X123125203Y-149447549D01*
X123169102Y-149491448D01*
X123451959Y-149680447D01*
X123766253Y-149810632D01*
X124099905Y-149877000D01*
X124440095Y-149877000D01*
X124773747Y-149810632D01*
X125088041Y-149680447D01*
X125370898Y-149491448D01*
X125479644Y-149382702D01*
X127546903Y-149382702D01*
X127618486Y-149626671D01*
X127873996Y-149747571D01*
X128148184Y-149816300D01*
X128430512Y-149830217D01*
X128710130Y-149788787D01*
X128976292Y-149693603D01*
X129101514Y-149626671D01*
X129173097Y-149382702D01*
X128360000Y-148569605D01*
X127546903Y-149382702D01*
X125479644Y-149382702D01*
X125611448Y-149250898D01*
X125800447Y-148968041D01*
X125930632Y-148653747D01*
X125969069Y-148460512D01*
X126919783Y-148460512D01*
X126961213Y-148740130D01*
X127056397Y-149006292D01*
X127123329Y-149131514D01*
X127367298Y-149203097D01*
X128180395Y-148390000D01*
X127367298Y-147576903D01*
X127123329Y-147648486D01*
X127002429Y-147903996D01*
X126933700Y-148178184D01*
X126919783Y-148460512D01*
X125969069Y-148460512D01*
X125997000Y-148320095D01*
X125997000Y-148087528D01*
X127367529Y-146717000D01*
X128196075Y-146717000D01*
X128282848Y-146803773D01*
X128518244Y-146961059D01*
X128289488Y-146949783D01*
X128009870Y-146991213D01*
X127743708Y-147086397D01*
X127618486Y-147153329D01*
X127546903Y-147397298D01*
X128360000Y-148210395D01*
X129173097Y-147397298D01*
X129102164Y-147155544D01*
X129159755Y-147167000D01*
X129480245Y-147167000D01*
X129794578Y-147104475D01*
X129954608Y-147038188D01*
X129822848Y-147126227D01*
X129596227Y-147352848D01*
X129431141Y-147599918D01*
X129352702Y-147576903D01*
X128539605Y-148390000D01*
X129352702Y-149203097D01*
X129431141Y-149180082D01*
X129596227Y-149427152D01*
X129822848Y-149653773D01*
X130089327Y-149831828D01*
X130385422Y-149954475D01*
X130699755Y-150017000D01*
X131020245Y-150017000D01*
X131334578Y-149954475D01*
X131630673Y-149831828D01*
X131897152Y-149653773D01*
X131983925Y-149567000D01*
X134222188Y-149567000D01*
X134280000Y-149572694D01*
X134337812Y-149567000D01*
X134400572Y-149560819D01*
X134421213Y-149700130D01*
X134516397Y-149966292D01*
X134583329Y-150091514D01*
X134827298Y-150163097D01*
X135640395Y-149350000D01*
X135626253Y-149335858D01*
X135805858Y-149156253D01*
X135820000Y-149170395D01*
X135834143Y-149156253D01*
X136013748Y-149335858D01*
X135999605Y-149350000D01*
X136812702Y-150163097D01*
X137056671Y-150091514D01*
X137177571Y-149836004D01*
X137246300Y-149561816D01*
X137260217Y-149279488D01*
X137218787Y-148999870D01*
X137123603Y-148733708D01*
X137056671Y-148608486D01*
X136812704Y-148536903D01*
X136928977Y-148420630D01*
X136928866Y-148420519D01*
X136938010Y-148417745D01*
X137081679Y-148340952D01*
X137207606Y-148237606D01*
X137310952Y-148111679D01*
X137387745Y-147968010D01*
X137435034Y-147812120D01*
X137451001Y-147650000D01*
X137451001Y-146050000D01*
X137435034Y-145887880D01*
X137387745Y-145731990D01*
X137310952Y-145588321D01*
X137207606Y-145462394D01*
X137081679Y-145359048D01*
X136938010Y-145282255D01*
X136782120Y-145234966D01*
X136620000Y-145218999D01*
X136143528Y-145218999D01*
X133694528Y-142770000D01*
X134051382Y-142413147D01*
X134096291Y-142376291D01*
X134243374Y-142197070D01*
X134352667Y-141992597D01*
X134419969Y-141770732D01*
X134422664Y-141743374D01*
X134429792Y-141671001D01*
X135010000Y-141671001D01*
X135172120Y-141655034D01*
X135328010Y-141607745D01*
X135471679Y-141530952D01*
X135597606Y-141427606D01*
X135700952Y-141301679D01*
X135777745Y-141158010D01*
X135825034Y-141002120D01*
X135841001Y-140840000D01*
X137121928Y-140840000D01*
X137134188Y-140964482D01*
X137170498Y-141084180D01*
X137229463Y-141194494D01*
X137308815Y-141291185D01*
X137405506Y-141370537D01*
X137515820Y-141429502D01*
X137635518Y-141465812D01*
X137760000Y-141478072D01*
X138974250Y-141475000D01*
X139133000Y-141316250D01*
X139133000Y-139217000D01*
X139387000Y-139217000D01*
X139387000Y-141316250D01*
X139545750Y-141475000D01*
X140760000Y-141478072D01*
X140884482Y-141465812D01*
X141004180Y-141429502D01*
X141114494Y-141370537D01*
X141211185Y-141291185D01*
X141290537Y-141194494D01*
X141349502Y-141084180D01*
X141385812Y-140964482D01*
X141398072Y-140840000D01*
X141395000Y-139375750D01*
X141236250Y-139217000D01*
X139387000Y-139217000D01*
X139133000Y-139217000D01*
X137283750Y-139217000D01*
X137125000Y-139375750D01*
X137121928Y-140840000D01*
X135841001Y-140840000D01*
X135841001Y-137340000D01*
X135825034Y-137177880D01*
X135777745Y-137021990D01*
X135700952Y-136878321D01*
X135616774Y-136775750D01*
X135974250Y-136775000D01*
X136133000Y-136616250D01*
X136133000Y-134517000D01*
X136387000Y-134517000D01*
X136387000Y-136616250D01*
X136545750Y-136775000D01*
X137466367Y-136776931D01*
X137405506Y-136809463D01*
X137308815Y-136888815D01*
X137229463Y-136985506D01*
X137170498Y-137095820D01*
X137134188Y-137215518D01*
X137121928Y-137340000D01*
X137125000Y-138804250D01*
X137283750Y-138963000D01*
X139133000Y-138963000D01*
X139133000Y-136863750D01*
X139387000Y-136863750D01*
X139387000Y-138963000D01*
X141236250Y-138963000D01*
X141395000Y-138804250D01*
X141398072Y-137340000D01*
X141385812Y-137215518D01*
X141349502Y-137095820D01*
X141290537Y-136985506D01*
X141211185Y-136888815D01*
X141114494Y-136809463D01*
X141004180Y-136750498D01*
X140884482Y-136714188D01*
X140760000Y-136701928D01*
X139545750Y-136705000D01*
X139387000Y-136863750D01*
X139133000Y-136863750D01*
X138974250Y-136705000D01*
X138303195Y-136703302D01*
X138364494Y-136670537D01*
X138461185Y-136591185D01*
X138540537Y-136494494D01*
X138599502Y-136384180D01*
X138635812Y-136264482D01*
X138648072Y-136140000D01*
X138645000Y-134675750D01*
X138486250Y-134517000D01*
X136387000Y-134517000D01*
X136133000Y-134517000D01*
X134033750Y-134517000D01*
X133875000Y-134675750D01*
X133871928Y-136140000D01*
X133884188Y-136264482D01*
X133920498Y-136384180D01*
X133979463Y-136494494D01*
X133991367Y-136508999D01*
X132794239Y-136508999D01*
X128925240Y-132640000D01*
X133871928Y-132640000D01*
X133875000Y-134104250D01*
X134033750Y-134263000D01*
X136133000Y-134263000D01*
X136133000Y-132163750D01*
X136387000Y-132163750D01*
X136387000Y-134263000D01*
X138486250Y-134263000D01*
X138645000Y-134104250D01*
X138648072Y-132640000D01*
X138635812Y-132515518D01*
X138599502Y-132395820D01*
X138540537Y-132285506D01*
X138461185Y-132188815D01*
X138364494Y-132109463D01*
X138254180Y-132050498D01*
X138134482Y-132014188D01*
X138010000Y-132001928D01*
X136545750Y-132005000D01*
X136387000Y-132163750D01*
X136133000Y-132163750D01*
X135974250Y-132005000D01*
X134510000Y-132001928D01*
X134385518Y-132014188D01*
X134265820Y-132050498D01*
X134155506Y-132109463D01*
X134058815Y-132188815D01*
X133979463Y-132285506D01*
X133920498Y-132395820D01*
X133884188Y-132515518D01*
X133871928Y-132640000D01*
X128925240Y-132640000D01*
X127616893Y-131331653D01*
X131117952Y-131331653D01*
X131273962Y-131647214D01*
X131648745Y-131838020D01*
X132053551Y-131952044D01*
X132472824Y-131984902D01*
X132890451Y-131935334D01*
X133290383Y-131805243D01*
X133586038Y-131647214D01*
X133742048Y-131331653D01*
X132430000Y-130019605D01*
X131117952Y-131331653D01*
X127616893Y-131331653D01*
X126168064Y-129882824D01*
X130285098Y-129882824D01*
X130334666Y-130300451D01*
X130464757Y-130700383D01*
X130622786Y-130996038D01*
X130938347Y-131152048D01*
X132250395Y-129840000D01*
X132609605Y-129840000D01*
X133921653Y-131152048D01*
X134237214Y-130996038D01*
X134428020Y-130621255D01*
X134542044Y-130216449D01*
X134574902Y-129797176D01*
X134525334Y-129379549D01*
X134395243Y-128979617D01*
X134237214Y-128683962D01*
X133921653Y-128527952D01*
X132609605Y-129840000D01*
X132250395Y-129840000D01*
X130938347Y-128527952D01*
X130622786Y-128683962D01*
X130431980Y-129058745D01*
X130317956Y-129463551D01*
X130285098Y-129882824D01*
X126168064Y-129882824D01*
X124633587Y-128348347D01*
X131117952Y-128348347D01*
X132430000Y-129660395D01*
X133742048Y-128348347D01*
X133586038Y-128032786D01*
X133211255Y-127841980D01*
X132806449Y-127727956D01*
X132387176Y-127695098D01*
X131969549Y-127744666D01*
X131569617Y-127874757D01*
X131273962Y-128032786D01*
X131117952Y-128348347D01*
X124633587Y-128348347D01*
X123067228Y-126781988D01*
X137866714Y-126781988D01*
X137919346Y-126955511D01*
X138054478Y-127235303D01*
X138241598Y-127483356D01*
X138473515Y-127690137D01*
X138741317Y-127847700D01*
X139034712Y-127949990D01*
X139280300Y-127830558D01*
X139280300Y-126536400D01*
X139534300Y-126536400D01*
X139534300Y-127830558D01*
X139779888Y-127949990D01*
X140073283Y-127847700D01*
X140341085Y-127690137D01*
X140573002Y-127483356D01*
X140760122Y-127235303D01*
X140895254Y-126955511D01*
X140947886Y-126781988D01*
X140827884Y-126536400D01*
X139534300Y-126536400D01*
X139280300Y-126536400D01*
X137986716Y-126536400D01*
X137866714Y-126781988D01*
X123067228Y-126781988D01*
X121114939Y-124829700D01*
X138115469Y-124829700D01*
X138144692Y-124865308D01*
X138415275Y-125087370D01*
X138482566Y-125123338D01*
X138473515Y-125128663D01*
X138241598Y-125335444D01*
X138054478Y-125583497D01*
X137919346Y-125863289D01*
X137866714Y-126036812D01*
X137986716Y-126282400D01*
X139280300Y-126282400D01*
X139280300Y-126262400D01*
X139534300Y-126262400D01*
X139534300Y-126282400D01*
X140827884Y-126282400D01*
X140947886Y-126036812D01*
X140895254Y-125863289D01*
X140760122Y-125583497D01*
X140573002Y-125335444D01*
X140341085Y-125128663D01*
X140332034Y-125123338D01*
X140399325Y-125087370D01*
X140669908Y-124865308D01*
X140891970Y-124594725D01*
X141056977Y-124286019D01*
X141158588Y-123951053D01*
X141192898Y-123602700D01*
X141158588Y-123254347D01*
X141056977Y-122919381D01*
X140891970Y-122610675D01*
X140735392Y-122419884D01*
X140869779Y-122348052D01*
X140995706Y-122244706D01*
X141099052Y-122118779D01*
X141175845Y-121975110D01*
X141223134Y-121819220D01*
X141239101Y-121657100D01*
X141239101Y-119757100D01*
X141223134Y-119594980D01*
X141175845Y-119439090D01*
X141099052Y-119295421D01*
X140995706Y-119169494D01*
X140869779Y-119066148D01*
X140726110Y-118989355D01*
X140570220Y-118942066D01*
X140408100Y-118926099D01*
X138508100Y-118926099D01*
X138345980Y-118942066D01*
X138190090Y-118989355D01*
X138046421Y-119066148D01*
X137920494Y-119169494D01*
X137817148Y-119295421D01*
X137740355Y-119439090D01*
X137693066Y-119594980D01*
X137677099Y-119757100D01*
X137677099Y-119873000D01*
X136227529Y-119873000D01*
X134735113Y-118380585D01*
X134807000Y-118019189D01*
X134807000Y-117560811D01*
X134717574Y-117111239D01*
X134542160Y-116687752D01*
X134287499Y-116306624D01*
X133963376Y-115982501D01*
X133582248Y-115727840D01*
X133158761Y-115552426D01*
X132709189Y-115463000D01*
X132250811Y-115463000D01*
X131801239Y-115552426D01*
X131377752Y-115727840D01*
X130996624Y-115982501D01*
X130672501Y-116306624D01*
X130417840Y-116687752D01*
X130242426Y-117111239D01*
X130153000Y-117560811D01*
X130153000Y-118019189D01*
X130242426Y-118468761D01*
X130417840Y-118892248D01*
X130672501Y-119273376D01*
X130996624Y-119597499D01*
X131377752Y-119852160D01*
X131801239Y-120027574D01*
X132250811Y-120117000D01*
X132709189Y-120117000D01*
X133070585Y-120045113D01*
X134866853Y-121841382D01*
X134903709Y-121886291D01*
X135082930Y-122033374D01*
X135287403Y-122142667D01*
X135509268Y-122209969D01*
X135682188Y-122227000D01*
X135682197Y-122227000D01*
X135739999Y-122232693D01*
X135797801Y-122227000D01*
X137905963Y-122227000D01*
X137920494Y-122244706D01*
X138046421Y-122348052D01*
X138098147Y-122375700D01*
X120133654Y-122375700D01*
X120087499Y-122306624D01*
X119763376Y-121982501D01*
X119382248Y-121727840D01*
X118958761Y-121552426D01*
X118509189Y-121463000D01*
X118050811Y-121463000D01*
X117601239Y-121552426D01*
X117177752Y-121727840D01*
X116796624Y-121982501D01*
X116472501Y-122306624D01*
X116217840Y-122687752D01*
X116042426Y-123111239D01*
X115953000Y-123560811D01*
X115953000Y-124019189D01*
X116042426Y-124468761D01*
X116217840Y-124892248D01*
X116472501Y-125273376D01*
X116796624Y-125597499D01*
X117177752Y-125852160D01*
X117601239Y-126027574D01*
X118050811Y-126117000D01*
X118509189Y-126117000D01*
X118861651Y-126046890D01*
X120877604Y-128062844D01*
X120547688Y-127972710D01*
X120177294Y-127946611D01*
X119808925Y-127993275D01*
X119456738Y-128110906D01*
X119221914Y-128236423D01*
X119096000Y-128526395D01*
X120230000Y-129660395D01*
X120244143Y-129646253D01*
X120423748Y-129825858D01*
X120409605Y-129840000D01*
X121543605Y-130974000D01*
X121833577Y-130848086D01*
X121999433Y-130515874D01*
X122097290Y-130157688D01*
X122123389Y-129787294D01*
X122076725Y-129418925D01*
X121998008Y-129183248D01*
X126227718Y-133412957D01*
X125885750Y-133415000D01*
X125727000Y-133573750D01*
X125727000Y-135123000D01*
X126876250Y-135123000D01*
X127035000Y-134964250D01*
X127037492Y-134222731D01*
X129119624Y-136304864D01*
X129001052Y-136316542D01*
X128694362Y-136409575D01*
X128411714Y-136560654D01*
X128189524Y-136743000D01*
X126963407Y-136743000D01*
X126989502Y-136694180D01*
X127025812Y-136574482D01*
X127038072Y-136450000D01*
X127035000Y-135535750D01*
X126876250Y-135377000D01*
X125727000Y-135377000D01*
X125727000Y-135397000D01*
X125473000Y-135397000D01*
X125473000Y-135377000D01*
X125453000Y-135377000D01*
X125453000Y-135123000D01*
X125473000Y-135123000D01*
X125473000Y-133573750D01*
X125314250Y-133415000D01*
X124800000Y-133411928D01*
X124675518Y-133424188D01*
X124555820Y-133460498D01*
X124445506Y-133519463D01*
X124348815Y-133598815D01*
X124269463Y-133695506D01*
X124248884Y-133734005D01*
X124216029Y-133693971D01*
X123968286Y-133490654D01*
X123685638Y-133339575D01*
X123539894Y-133295364D01*
X121973151Y-131728623D01*
X121936291Y-131683709D01*
X121757070Y-131536626D01*
X121552597Y-131427333D01*
X121330732Y-131360031D01*
X121276676Y-131354707D01*
X121364000Y-131153605D01*
X120230000Y-130019605D01*
X120215858Y-130033748D01*
X120036253Y-129854143D01*
X120050395Y-129840000D01*
X118916395Y-128706000D01*
X118626423Y-128831914D01*
X118460567Y-129164126D01*
X118362710Y-129522312D01*
X118355741Y-129621213D01*
X117113151Y-128378623D01*
X117076291Y-128333709D01*
X116897070Y-128186626D01*
X116692597Y-128077333D01*
X116470732Y-128010031D01*
X116297812Y-127993000D01*
X116240000Y-127987306D01*
X116182188Y-127993000D01*
X108877000Y-127993000D01*
X108877000Y-126163198D01*
X109087374Y-126260095D01*
X109333524Y-126319102D01*
X109586455Y-126328952D01*
X109836449Y-126289270D01*
X110073896Y-126201578D01*
X110162534Y-126154201D01*
X110215922Y-125925527D01*
X109510000Y-125219605D01*
X109495858Y-125233748D01*
X109316253Y-125054143D01*
X109330395Y-125040000D01*
X109689605Y-125040000D01*
X110395527Y-125745922D01*
X110624201Y-125692534D01*
X110730095Y-125462626D01*
X110789102Y-125216476D01*
X110798952Y-124963545D01*
X110759270Y-124713551D01*
X110671578Y-124476104D01*
X110624201Y-124387466D01*
X110395527Y-124334078D01*
X109689605Y-125040000D01*
X109330395Y-125040000D01*
X109316253Y-125025858D01*
X109495858Y-124846253D01*
X109510000Y-124860395D01*
X110215922Y-124154473D01*
X110162534Y-123925799D01*
X109932626Y-123819905D01*
X109717000Y-123768215D01*
X109717000Y-123624528D01*
X109660240Y-123339175D01*
X109548901Y-123070378D01*
X109387261Y-122828467D01*
X109181533Y-122622739D01*
X109147502Y-122600000D01*
X111688999Y-122600000D01*
X111688999Y-124400000D01*
X111704966Y-124562120D01*
X111752255Y-124718010D01*
X111829048Y-124861679D01*
X111932394Y-124987606D01*
X112058321Y-125090952D01*
X112201990Y-125167745D01*
X112357880Y-125215034D01*
X112520000Y-125231001D01*
X114320000Y-125231001D01*
X114482120Y-125215034D01*
X114638010Y-125167745D01*
X114781679Y-125090952D01*
X114907606Y-124987606D01*
X115010952Y-124861679D01*
X115087745Y-124718010D01*
X115135034Y-124562120D01*
X115151001Y-124400000D01*
X115151001Y-123150254D01*
X115161131Y-123047403D01*
X115172694Y-122930000D01*
X115167000Y-122872188D01*
X115167000Y-121070185D01*
X115208010Y-121057745D01*
X115351679Y-120980952D01*
X115477606Y-120877606D01*
X115580952Y-120751679D01*
X115657745Y-120608010D01*
X115670185Y-120567000D01*
X118622188Y-120567000D01*
X118680000Y-120572694D01*
X118737812Y-120567000D01*
X118910732Y-120549969D01*
X119132597Y-120482667D01*
X119337070Y-120373374D01*
X119516291Y-120226291D01*
X119553151Y-120181377D01*
X119852022Y-119882506D01*
X120025433Y-119917000D01*
X120434567Y-119917000D01*
X120835839Y-119837182D01*
X121213829Y-119680614D01*
X121554011Y-119453311D01*
X121843311Y-119164011D01*
X122070614Y-118823829D01*
X122227182Y-118445839D01*
X122307000Y-118044567D01*
X122307000Y-117635433D01*
X122227182Y-117234161D01*
X122070614Y-116856171D01*
X121843311Y-116515989D01*
X121554011Y-116226689D01*
X121213829Y-115999386D01*
X120835839Y-115842818D01*
X120434567Y-115763000D01*
X120025433Y-115763000D01*
X119624161Y-115842818D01*
X119246171Y-115999386D01*
X118905989Y-116226689D01*
X118616689Y-116515989D01*
X118389386Y-116856171D01*
X118232818Y-117234161D01*
X118153000Y-117635433D01*
X118153000Y-118044567D01*
X118186503Y-118213000D01*
X115670185Y-118213000D01*
X115657745Y-118171990D01*
X115580952Y-118028321D01*
X115477606Y-117902394D01*
X115351679Y-117799048D01*
X115208010Y-117722255D01*
X115052120Y-117674966D01*
X114890000Y-117658999D01*
X113090000Y-117658999D01*
X112927880Y-117674966D01*
X112771990Y-117722255D01*
X112628321Y-117799048D01*
X112502394Y-117902394D01*
X112399048Y-118028321D01*
X112322255Y-118171990D01*
X112274966Y-118327880D01*
X112258999Y-118490000D01*
X112258999Y-120290000D01*
X112274966Y-120452120D01*
X112322255Y-120608010D01*
X112399048Y-120751679D01*
X112502394Y-120877606D01*
X112628321Y-120980952D01*
X112771990Y-121057745D01*
X112813000Y-121070185D01*
X112813001Y-121768999D01*
X112520000Y-121768999D01*
X112357880Y-121784966D01*
X112201990Y-121832255D01*
X112058321Y-121909048D01*
X111932394Y-122012394D01*
X111829048Y-122138321D01*
X111752255Y-122281990D01*
X111704966Y-122437880D01*
X111688999Y-122600000D01*
X109147502Y-122600000D01*
X108939622Y-122461099D01*
X108670825Y-122349760D01*
X108385472Y-122293000D01*
X108094528Y-122293000D01*
X108080349Y-122295820D01*
X106595013Y-120810484D01*
X106734741Y-120881041D01*
X107018620Y-120781234D01*
X107277573Y-120627962D01*
X107501649Y-120427116D01*
X107682236Y-120186414D01*
X107812394Y-119915107D01*
X107861036Y-119754740D01*
X107740378Y-119517000D01*
X106497000Y-119517000D01*
X106497000Y-119537000D01*
X106243000Y-119537000D01*
X106243000Y-119517000D01*
X106223000Y-119517000D01*
X106223000Y-119263000D01*
X106243000Y-119263000D01*
X106243000Y-118019008D01*
X106497000Y-118019008D01*
X106497000Y-119263000D01*
X107740378Y-119263000D01*
X107861036Y-119025260D01*
X107812394Y-118864893D01*
X107682236Y-118593586D01*
X107501649Y-118352884D01*
X107277573Y-118152038D01*
X107018620Y-117998766D01*
X106734741Y-117898959D01*
X106497000Y-118019008D01*
X106243000Y-118019008D01*
X106005259Y-117898959D01*
X105721380Y-117998766D01*
X105462427Y-118152038D01*
X105238351Y-118352884D01*
X105057764Y-118593586D01*
X105016742Y-118679094D01*
X104959346Y-118571714D01*
X104756029Y-118323971D01*
X104508286Y-118120654D01*
X104225638Y-117969575D01*
X103918948Y-117876542D01*
X103679925Y-117853000D01*
X103520075Y-117853000D01*
X103281052Y-117876542D01*
X102974362Y-117969575D01*
X102691714Y-118120654D01*
X102443971Y-118323971D01*
X102240654Y-118571714D01*
X102089575Y-118854362D01*
X101996542Y-119161052D01*
X101965128Y-119480000D01*
X101996542Y-119798948D01*
X102089575Y-120105638D01*
X102240654Y-120388286D01*
X102443971Y-120636029D01*
X102691714Y-120839346D01*
X102974362Y-120990425D01*
X103281052Y-121083458D01*
X103520075Y-121107000D01*
X103562472Y-121107000D01*
X106060099Y-123604628D01*
X106001990Y-123622255D01*
X105858321Y-123699048D01*
X105732394Y-123802394D01*
X105629048Y-123928321D01*
X105552255Y-124071990D01*
X105504966Y-124227880D01*
X105488999Y-124390000D01*
X105488999Y-125690000D01*
X105504966Y-125852120D01*
X105552255Y-126008010D01*
X105629048Y-126151679D01*
X105732394Y-126277606D01*
X105858321Y-126380952D01*
X106001990Y-126457745D01*
X106157880Y-126505034D01*
X106320000Y-126521001D01*
X106523001Y-126521001D01*
X106523000Y-128486075D01*
X106436227Y-128572848D01*
X106258172Y-128839327D01*
X106204187Y-128969658D01*
X105761632Y-128527104D01*
X105733458Y-128241052D01*
X105640425Y-127934362D01*
X105489346Y-127651714D01*
X105286029Y-127403971D01*
X105038286Y-127200654D01*
X104907000Y-127130480D01*
X104907000Y-124878625D01*
X104989346Y-124778286D01*
X105140425Y-124495638D01*
X105233458Y-124188948D01*
X105264872Y-123870000D01*
X105233458Y-123551052D01*
X105140425Y-123244362D01*
X104989346Y-122961714D01*
X104786029Y-122713971D01*
X104538286Y-122510654D01*
X104255638Y-122359575D01*
X103948948Y-122266542D01*
X103709925Y-122243000D01*
X103550075Y-122243000D01*
X103311052Y-122266542D01*
X103004362Y-122359575D01*
X102721714Y-122510654D01*
X102473971Y-122713971D01*
X102270654Y-122961714D01*
X102119575Y-123244362D01*
X102026542Y-123551052D01*
X101995128Y-123870000D01*
X102026542Y-124188948D01*
X102119575Y-124495638D01*
X102270654Y-124778286D01*
X102473971Y-125026029D01*
X102553001Y-125090887D01*
X102553000Y-127130480D01*
X102421714Y-127200654D01*
X102173971Y-127403971D01*
X101970654Y-127651714D01*
X101819575Y-127934362D01*
X101726542Y-128241052D01*
X101695128Y-128560000D01*
X101726542Y-128878948D01*
X101819575Y-129185638D01*
X101970654Y-129468286D01*
X102173971Y-129716029D01*
X102312845Y-129830000D01*
X102173971Y-129943971D01*
X101970654Y-130191714D01*
X101819575Y-130474362D01*
X101726542Y-130781052D01*
X101695128Y-131100000D01*
X101726542Y-131418948D01*
X101819575Y-131725638D01*
X101970654Y-132008286D01*
X102173971Y-132256029D01*
X102312845Y-132370000D01*
X102173971Y-132483971D01*
X101970654Y-132731714D01*
X101819575Y-133014362D01*
X101726542Y-133321052D01*
X101695128Y-133640000D01*
X101726542Y-133958948D01*
X101819575Y-134265638D01*
X101970654Y-134548286D01*
X102173971Y-134796029D01*
X102312845Y-134910000D01*
X102173971Y-135023971D01*
X101970654Y-135271714D01*
X101819575Y-135554362D01*
X101726542Y-135861052D01*
X101695128Y-136180000D01*
X101726542Y-136498948D01*
X101819575Y-136805638D01*
X101970654Y-137088286D01*
X102173971Y-137336029D01*
X102421714Y-137539346D01*
X102704362Y-137690425D01*
X103011052Y-137783458D01*
X103250075Y-137807000D01*
X104209925Y-137807000D01*
X104448948Y-137783458D01*
X104755638Y-137690425D01*
X105038286Y-137539346D01*
X105286029Y-137336029D01*
X105489346Y-137088286D01*
X105640425Y-136805638D01*
X105733458Y-136498948D01*
X105764872Y-136180000D01*
X105733458Y-135861052D01*
X105640425Y-135554362D01*
X105489346Y-135271714D01*
X105286029Y-135023971D01*
X105147155Y-134910000D01*
X105286029Y-134796029D01*
X105489346Y-134548286D01*
X105640425Y-134265638D01*
X105733458Y-133958948D01*
X105764872Y-133640000D01*
X105733458Y-133321052D01*
X105640425Y-133014362D01*
X105489346Y-132731714D01*
X105286029Y-132483971D01*
X105147155Y-132370000D01*
X105286029Y-132256029D01*
X105489346Y-132008286D01*
X105637180Y-131731709D01*
X106523001Y-132617530D01*
X106523000Y-136099524D01*
X106340654Y-136321714D01*
X106189575Y-136604362D01*
X106096542Y-136911052D01*
X106065128Y-137230000D01*
X106096542Y-137548948D01*
X106189575Y-137855638D01*
X106340654Y-138138286D01*
X106543971Y-138386029D01*
X106563000Y-138401646D01*
X106563000Y-139522471D01*
X106082471Y-140003000D01*
X103580788Y-140003000D01*
X103556155Y-139978367D01*
X103302779Y-139809067D01*
X103021243Y-139692451D01*
X102722366Y-139633000D01*
X102417634Y-139633000D01*
X102118757Y-139692451D01*
X101837221Y-139809067D01*
X101583845Y-139978367D01*
X101368367Y-140193845D01*
X101300000Y-140296164D01*
X101231633Y-140193845D01*
X101207000Y-140169212D01*
X101207000Y-137217812D01*
X101212694Y-137160000D01*
X101189969Y-136929268D01*
X101174514Y-136878321D01*
X101122667Y-136707403D01*
X101013374Y-136502930D01*
X100993419Y-136478615D01*
X100903144Y-136368614D01*
X100903142Y-136368612D01*
X100866291Y-136323709D01*
X100821388Y-136286858D01*
X98141632Y-133607103D01*
X98113458Y-133321052D01*
X98020425Y-133014362D01*
X97869346Y-132731714D01*
X97666029Y-132483971D01*
X97527155Y-132370000D01*
X97666029Y-132256029D01*
X97869346Y-132008286D01*
X98020425Y-131725638D01*
X98113458Y-131418948D01*
X98144872Y-131100000D01*
X98113458Y-130781052D01*
X98020425Y-130474362D01*
X97869346Y-130191714D01*
X97759269Y-130057585D01*
X97771679Y-130050952D01*
X97897606Y-129947606D01*
X98000952Y-129821679D01*
X98077745Y-129678010D01*
X98125034Y-129522120D01*
X98141001Y-129360000D01*
X98141001Y-128083528D01*
X98971384Y-127253145D01*
X99016291Y-127216291D01*
X99163374Y-127037070D01*
X99272667Y-126832597D01*
X99339969Y-126610732D01*
X99341519Y-126594996D01*
X99362694Y-126380001D01*
X99357000Y-126322189D01*
X99357000Y-121737801D01*
X99362693Y-121679999D01*
X99357000Y-121622197D01*
X99357000Y-121622188D01*
X99339969Y-121449268D01*
X99272667Y-121227403D01*
X99163374Y-121022930D01*
X99016291Y-120843709D01*
X98971382Y-120806853D01*
X97653146Y-119488618D01*
X97653142Y-119488613D01*
X97607000Y-119442471D01*
X97607000Y-119319755D01*
X97544475Y-119005422D01*
X97421828Y-118709327D01*
X97243773Y-118442848D01*
X97017152Y-118216227D01*
X96750673Y-118038172D01*
X96454578Y-117915525D01*
X96140245Y-117853000D01*
X95819755Y-117853000D01*
X95505422Y-117915525D01*
X95209327Y-118038172D01*
X94942848Y-118216227D01*
X94716227Y-118442848D01*
X94538172Y-118709327D01*
X94415525Y-119005422D01*
X94353000Y-119319755D01*
X94353000Y-119640245D01*
X94415525Y-119954578D01*
X94538172Y-120250673D01*
X94716227Y-120517152D01*
X94942848Y-120743773D01*
X95209327Y-120921828D01*
X95505422Y-121044475D01*
X95819755Y-121107000D01*
X95942471Y-121107000D01*
X95988613Y-121153142D01*
X95988618Y-121153146D01*
X97003001Y-122167530D01*
X97003001Y-122576726D01*
X96780673Y-122428172D01*
X96484578Y-122305525D01*
X96170245Y-122243000D01*
X95849755Y-122243000D01*
X95535422Y-122305525D01*
X95239327Y-122428172D01*
X94972848Y-122606227D01*
X94746227Y-122832848D01*
X94568172Y-123099327D01*
X94445525Y-123395422D01*
X94407156Y-123588314D01*
X91802472Y-126193000D01*
X91770260Y-126193000D01*
X91710000Y-126187065D01*
X91649740Y-126193000D01*
X91502940Y-126193000D01*
X91430952Y-126058321D01*
X91327606Y-125932394D01*
X91201679Y-125829048D01*
X91058010Y-125752255D01*
X90902120Y-125704966D01*
X90740000Y-125688999D01*
X88940000Y-125688999D01*
X88777880Y-125704966D01*
X88621990Y-125752255D01*
X88478321Y-125829048D01*
X88352394Y-125932394D01*
X88249048Y-126058321D01*
X88172255Y-126201990D01*
X88124966Y-126357880D01*
X88108999Y-126520000D01*
X85072000Y-126520000D01*
X85072000Y-118956037D01*
X86743000Y-118956037D01*
X86743000Y-119443963D01*
X86838190Y-119922514D01*
X87024911Y-120373299D01*
X87295989Y-120778995D01*
X87641005Y-121124011D01*
X88046701Y-121395089D01*
X88497486Y-121581810D01*
X88976037Y-121677000D01*
X89463963Y-121677000D01*
X89942514Y-121581810D01*
X90393299Y-121395089D01*
X90798995Y-121124011D01*
X91144011Y-120778995D01*
X91415089Y-120373299D01*
X91601810Y-119922514D01*
X91697000Y-119443963D01*
X91697000Y-118956037D01*
X91601810Y-118477486D01*
X91415089Y-118026701D01*
X91144011Y-117621005D01*
X90798995Y-117275989D01*
X90393299Y-117004911D01*
X89942514Y-116818190D01*
X89463963Y-116723000D01*
X88976037Y-116723000D01*
X88497486Y-116818190D01*
X88046701Y-117004911D01*
X87641005Y-117275989D01*
X87295989Y-117621005D01*
X87024911Y-118026701D01*
X86838190Y-118477486D01*
X86743000Y-118956037D01*
X85072000Y-118956037D01*
X85072000Y-115052000D01*
X142278000Y-115052000D01*
X142278001Y-153118000D01*
X142278001Y-153118000D01*
G37*
X142278001Y-153118000D02*
X85072000Y-153118000D01*
X85072000Y-148726037D01*
X86743000Y-148726037D01*
X86743000Y-149213963D01*
X86838190Y-149692514D01*
X87024911Y-150143299D01*
X87295989Y-150548995D01*
X87641005Y-150894011D01*
X88046701Y-151165089D01*
X88497486Y-151351810D01*
X88976037Y-151447000D01*
X89463963Y-151447000D01*
X89942514Y-151351810D01*
X90393299Y-151165089D01*
X90798995Y-150894011D01*
X91144011Y-150548995D01*
X91415089Y-150143299D01*
X91601810Y-149692514D01*
X91697000Y-149213963D01*
X91697000Y-148726037D01*
X91601810Y-148247486D01*
X91415089Y-147796701D01*
X91144011Y-147391005D01*
X90798995Y-147045989D01*
X90393299Y-146774911D01*
X89942514Y-146588190D01*
X89463963Y-146493000D01*
X88976037Y-146493000D01*
X88497486Y-146588190D01*
X88046701Y-146774911D01*
X87641005Y-147045989D01*
X87295989Y-147391005D01*
X87024911Y-147796701D01*
X86838190Y-148247486D01*
X86743000Y-148726037D01*
X85072000Y-148726037D01*
X85072000Y-141039905D01*
X88113000Y-141039905D01*
X88113000Y-141380095D01*
X88179368Y-141713747D01*
X88309553Y-142028041D01*
X88498552Y-142310898D01*
X88739102Y-142551448D01*
X89021959Y-142740447D01*
X89336253Y-142870632D01*
X89460897Y-142895425D01*
X97346858Y-150781388D01*
X97383709Y-150826291D01*
X97562930Y-150973374D01*
X97767403Y-151082667D01*
X97989268Y-151149969D01*
X98220000Y-151172694D01*
X98277812Y-151167000D01*
X106633894Y-151167000D01*
X106831714Y-151329346D01*
X107114362Y-151480425D01*
X107421052Y-151573458D01*
X107660075Y-151597000D01*
X107819925Y-151597000D01*
X108058948Y-151573458D01*
X108365638Y-151480425D01*
X108648286Y-151329346D01*
X108896029Y-151126029D01*
X109099346Y-150878286D01*
X109250425Y-150595638D01*
X109327151Y-150342702D01*
X135006903Y-150342702D01*
X135078486Y-150586671D01*
X135333996Y-150707571D01*
X135608184Y-150776300D01*
X135890512Y-150790217D01*
X136170130Y-150748787D01*
X136436292Y-150653603D01*
X136561514Y-150586671D01*
X136633097Y-150342702D01*
X135820000Y-149529605D01*
X135006903Y-150342702D01*
X109327151Y-150342702D01*
X109343458Y-150288948D01*
X109374872Y-149970000D01*
X109343458Y-149651052D01*
X109250425Y-149344362D01*
X109099346Y-149061714D01*
X108927815Y-148852702D01*
X111406903Y-148852702D01*
X111478486Y-149096671D01*
X111733996Y-149217571D01*
X112008184Y-149286300D01*
X112290512Y-149300217D01*
X112570130Y-149258787D01*
X112836292Y-149163603D01*
X112961514Y-149096671D01*
X113033097Y-148852702D01*
X112220000Y-148039605D01*
X111406903Y-148852702D01*
X108927815Y-148852702D01*
X108896029Y-148813971D01*
X108648286Y-148610654D01*
X108365638Y-148459575D01*
X108058948Y-148366542D01*
X107819925Y-148343000D01*
X107660075Y-148343000D01*
X107421052Y-148366542D01*
X107114362Y-148459575D01*
X106831714Y-148610654D01*
X106585154Y-148813000D01*
X98707530Y-148813000D01*
X97825042Y-147930512D01*
X110779783Y-147930512D01*
X110821213Y-148210130D01*
X110916397Y-148476292D01*
X110983329Y-148601514D01*
X111227298Y-148673097D01*
X112040395Y-147860000D01*
X112399605Y-147860000D01*
X113212702Y-148673097D01*
X113456671Y-148601514D01*
X113577571Y-148346004D01*
X113609027Y-148220512D01*
X113749783Y-148220512D01*
X113791213Y-148500130D01*
X113886397Y-148766292D01*
X113953329Y-148891514D01*
X114197298Y-148963097D01*
X115010395Y-148150000D01*
X114197298Y-147336903D01*
X113953329Y-147408486D01*
X113832429Y-147663996D01*
X113763700Y-147938184D01*
X113749783Y-148220512D01*
X113609027Y-148220512D01*
X113646300Y-148071816D01*
X113660217Y-147789488D01*
X113618787Y-147509870D01*
X113523603Y-147243708D01*
X113456671Y-147118486D01*
X113212702Y-147046903D01*
X112399605Y-147860000D01*
X112040395Y-147860000D01*
X111227298Y-147046903D01*
X110983329Y-147118486D01*
X110862429Y-147373996D01*
X110793700Y-147648184D01*
X110779783Y-147930512D01*
X97825042Y-147930512D01*
X97147232Y-147252702D01*
X98106903Y-147252702D01*
X98178486Y-147496671D01*
X98433996Y-147617571D01*
X98708184Y-147686300D01*
X98990512Y-147700217D01*
X99270130Y-147658787D01*
X99536292Y-147563603D01*
X99661514Y-147496671D01*
X99733097Y-147252702D01*
X98920000Y-146439605D01*
X98106903Y-147252702D01*
X97147232Y-147252702D01*
X96225042Y-146330512D01*
X97479783Y-146330512D01*
X97521213Y-146610130D01*
X97616397Y-146876292D01*
X97683329Y-147001514D01*
X97927298Y-147073097D01*
X98740395Y-146260000D01*
X97927298Y-145446903D01*
X97683329Y-145518486D01*
X97562429Y-145773996D01*
X97493700Y-146048184D01*
X97479783Y-146330512D01*
X96225042Y-146330512D01*
X95161828Y-145267298D01*
X98106903Y-145267298D01*
X98920000Y-146080395D01*
X99733097Y-145267298D01*
X99661514Y-145023329D01*
X99406004Y-144902429D01*
X99131816Y-144833700D01*
X98849488Y-144819783D01*
X98569870Y-144861213D01*
X98303708Y-144956397D01*
X98178486Y-145023329D01*
X98106903Y-145267298D01*
X95161828Y-145267298D01*
X92010089Y-142115560D01*
X96734045Y-142115560D01*
X96795932Y-142351368D01*
X97037790Y-142464266D01*
X97297027Y-142527811D01*
X97563680Y-142539561D01*
X97827501Y-142499063D01*
X98078353Y-142407875D01*
X98184068Y-142351368D01*
X98245955Y-142115560D01*
X97490000Y-141359605D01*
X96734045Y-142115560D01*
X92010089Y-142115560D01*
X91518491Y-141623963D01*
X91567000Y-141380095D01*
X91567000Y-141253680D01*
X96130439Y-141253680D01*
X96170937Y-141517501D01*
X96262125Y-141768353D01*
X96318632Y-141874068D01*
X96554440Y-141935955D01*
X97310395Y-141180000D01*
X96554440Y-140424045D01*
X96318632Y-140485932D01*
X96205734Y-140727790D01*
X96142189Y-140987027D01*
X96130439Y-141253680D01*
X91567000Y-141253680D01*
X91567000Y-141039905D01*
X91500632Y-140706253D01*
X91370447Y-140391959D01*
X91271878Y-140244440D01*
X96734045Y-140244440D01*
X97490000Y-141000395D01*
X98245955Y-140244440D01*
X98184068Y-140008632D01*
X97942210Y-139895734D01*
X97682973Y-139832189D01*
X97416320Y-139820439D01*
X97152499Y-139860937D01*
X96901647Y-139952125D01*
X96795932Y-140008632D01*
X96734045Y-140244440D01*
X91271878Y-140244440D01*
X91181448Y-140109102D01*
X91137549Y-140065203D01*
X91191185Y-140021185D01*
X91270537Y-139924494D01*
X91329502Y-139814180D01*
X91365812Y-139694482D01*
X91378072Y-139570000D01*
X91375000Y-138955750D01*
X91216250Y-138797000D01*
X89967000Y-138797000D01*
X89967000Y-138817000D01*
X89713000Y-138817000D01*
X89713000Y-138797000D01*
X88463750Y-138797000D01*
X88305000Y-138955750D01*
X88301928Y-139570000D01*
X88314188Y-139694482D01*
X88350498Y-139814180D01*
X88409463Y-139924494D01*
X88488815Y-140021185D01*
X88542451Y-140065203D01*
X88498552Y-140109102D01*
X88309553Y-140391959D01*
X88179368Y-140706253D01*
X88113000Y-141039905D01*
X85072000Y-141039905D01*
X85072000Y-137770000D01*
X88301928Y-137770000D01*
X88305000Y-138384250D01*
X88463750Y-138543000D01*
X89713000Y-138543000D01*
X89713000Y-137293750D01*
X89967000Y-137293750D01*
X89967000Y-138543000D01*
X91216250Y-138543000D01*
X91375000Y-138384250D01*
X91378072Y-137770000D01*
X91365812Y-137645518D01*
X91329502Y-137525820D01*
X91270537Y-137415506D01*
X91191185Y-137318815D01*
X91094494Y-137239463D01*
X90984180Y-137180498D01*
X90864482Y-137144188D01*
X90740000Y-137131928D01*
X90125750Y-137135000D01*
X89967000Y-137293750D01*
X89713000Y-137293750D01*
X89554250Y-137135000D01*
X88940000Y-137131928D01*
X88815518Y-137144188D01*
X88695820Y-137180498D01*
X88585506Y-137239463D01*
X88488815Y-137318815D01*
X88409463Y-137415506D01*
X88350498Y-137525820D01*
X88314188Y-137645518D01*
X88301928Y-137770000D01*
X85072000Y-137770000D01*
X85072000Y-136529039D01*
X94318096Y-136529039D01*
X94335633Y-136611818D01*
X94446285Y-136871646D01*
X94605500Y-137104895D01*
X94807161Y-137302601D01*
X95043517Y-137457166D01*
X95305486Y-137562650D01*
X95583000Y-137615000D01*
X95983000Y-137615000D01*
X95983000Y-136307000D01*
X94440085Y-136307000D01*
X94318096Y-136529039D01*
X85072000Y-136529039D01*
X85072000Y-131024080D01*
X88955525Y-131024080D01*
X89039208Y-131278261D01*
X89311775Y-131409158D01*
X89604642Y-131484365D01*
X89906553Y-131500991D01*
X90205907Y-131458397D01*
X90491199Y-131358222D01*
X90640792Y-131278261D01*
X90724475Y-131024080D01*
X89840000Y-130139605D01*
X88955525Y-131024080D01*
X85072000Y-131024080D01*
X85072000Y-126520000D01*
X88108999Y-126520000D01*
X88108999Y-128320000D01*
X88124966Y-128482120D01*
X88172255Y-128638010D01*
X88249048Y-128781679D01*
X88352394Y-128907606D01*
X88478321Y-129010952D01*
X88621990Y-129087745D01*
X88682786Y-129106187D01*
X88521739Y-129159208D01*
X88390842Y-129431775D01*
X88315635Y-129724642D01*
X88299009Y-130026553D01*
X88341603Y-130325907D01*
X88441778Y-130611199D01*
X88521739Y-130760792D01*
X88775920Y-130844475D01*
X89660395Y-129960000D01*
X89646253Y-129945858D01*
X89825858Y-129766253D01*
X89840000Y-129780395D01*
X89854143Y-129766253D01*
X90033748Y-129945858D01*
X90019605Y-129960000D01*
X90904080Y-130844475D01*
X91158261Y-130760792D01*
X91289158Y-130488225D01*
X91364365Y-130195358D01*
X91380991Y-129893447D01*
X91338397Y-129594093D01*
X91238222Y-129308801D01*
X91158261Y-129159208D01*
X90997214Y-129106187D01*
X91058010Y-129087745D01*
X91201679Y-129010952D01*
X91327606Y-128907606D01*
X91388350Y-128833589D01*
X94164382Y-131609622D01*
X94199575Y-131725638D01*
X94350654Y-132008286D01*
X94553971Y-132256029D01*
X94692845Y-132370000D01*
X94553971Y-132483971D01*
X94350654Y-132731714D01*
X94199575Y-133014362D01*
X94106542Y-133321052D01*
X94075128Y-133640000D01*
X94106542Y-133958948D01*
X94199575Y-134265638D01*
X94350654Y-134548286D01*
X94553971Y-134796029D01*
X94801714Y-134999346D01*
X94853558Y-135027057D01*
X94807161Y-135057399D01*
X94605500Y-135255105D01*
X94446285Y-135488354D01*
X94335633Y-135748182D01*
X94318096Y-135830961D01*
X94440085Y-136053000D01*
X95983000Y-136053000D01*
X95983000Y-136033000D01*
X96237000Y-136033000D01*
X96237000Y-136053000D01*
X96257000Y-136053000D01*
X96257000Y-136307000D01*
X96237000Y-136307000D01*
X96237000Y-137615000D01*
X96637000Y-137615000D01*
X96914514Y-137562650D01*
X97176483Y-137457166D01*
X97412839Y-137302601D01*
X97614500Y-137104895D01*
X97773715Y-136871646D01*
X97864333Y-136658862D01*
X98853001Y-137647531D01*
X98853000Y-140169212D01*
X98828367Y-140193845D01*
X98659067Y-140447221D01*
X98644830Y-140481592D01*
X98425560Y-140424045D01*
X97669605Y-141180000D01*
X98425560Y-141935955D01*
X98644830Y-141878408D01*
X98659067Y-141912779D01*
X98828367Y-142166155D01*
X99043845Y-142381633D01*
X99297221Y-142550933D01*
X99578757Y-142667549D01*
X99877634Y-142727000D01*
X100182366Y-142727000D01*
X100481243Y-142667549D01*
X100762779Y-142550933D01*
X101016155Y-142381633D01*
X101231633Y-142166155D01*
X101300000Y-142063836D01*
X101368367Y-142166155D01*
X101393000Y-142190788D01*
X101393001Y-144622470D01*
X101382471Y-144633000D01*
X101259755Y-144633000D01*
X100945422Y-144695525D01*
X100649327Y-144818172D01*
X100382848Y-144996227D01*
X100156227Y-145222848D01*
X99991141Y-145469918D01*
X99912702Y-145446903D01*
X99099605Y-146260000D01*
X99912702Y-147073097D01*
X99991141Y-147050082D01*
X100156227Y-147297152D01*
X100382848Y-147523773D01*
X100649327Y-147701828D01*
X100945422Y-147824475D01*
X101259755Y-147887000D01*
X101580245Y-147887000D01*
X101894578Y-147824475D01*
X102190673Y-147701828D01*
X102457152Y-147523773D01*
X102683773Y-147297152D01*
X102861828Y-147030673D01*
X102984475Y-146734578D01*
X103047000Y-146420245D01*
X103047000Y-146297529D01*
X103361387Y-145983142D01*
X103406291Y-145946291D01*
X103471671Y-145866626D01*
X103553374Y-145767070D01*
X103662666Y-145562598D01*
X103662667Y-145562597D01*
X103729969Y-145340732D01*
X103740386Y-145234966D01*
X103752694Y-145110000D01*
X103747000Y-145052188D01*
X103747000Y-142357000D01*
X106082471Y-142357000D01*
X106113000Y-142387529D01*
X106113000Y-142510245D01*
X106175525Y-142824578D01*
X106298172Y-143120673D01*
X106476227Y-143387152D01*
X106702848Y-143613773D01*
X106969327Y-143791828D01*
X107265422Y-143914475D01*
X107579755Y-143977000D01*
X107900245Y-143977000D01*
X108214578Y-143914475D01*
X108510673Y-143791828D01*
X108777152Y-143613773D01*
X109003773Y-143387152D01*
X109181828Y-143120673D01*
X109304475Y-142824578D01*
X109367000Y-142510245D01*
X109367000Y-142189755D01*
X109304475Y-141875422D01*
X109181828Y-141579327D01*
X109003773Y-141312848D01*
X108921795Y-141230870D01*
X108917000Y-141182188D01*
X108917000Y-140817811D01*
X108922694Y-140760000D01*
X108917000Y-140702188D01*
X108917000Y-140067811D01*
X108922694Y-140010000D01*
X108917000Y-139952188D01*
X108917000Y-138407000D01*
X111263000Y-138407000D01*
X111263000Y-138552366D01*
X111322451Y-138851243D01*
X111439067Y-139132779D01*
X111608367Y-139386155D01*
X111627746Y-139405534D01*
X111627306Y-139410000D01*
X111633000Y-139467812D01*
X111633000Y-139929212D01*
X111608367Y-139953845D01*
X111439067Y-140207221D01*
X111322451Y-140488757D01*
X111263000Y-140787634D01*
X111263000Y-141092366D01*
X111322451Y-141391243D01*
X111439067Y-141672779D01*
X111608367Y-141926155D01*
X111823845Y-142141633D01*
X112077221Y-142310933D01*
X112358757Y-142427549D01*
X112657634Y-142487000D01*
X112962366Y-142487000D01*
X113261243Y-142427549D01*
X113542779Y-142310933D01*
X113728897Y-142186573D01*
X112182471Y-143733000D01*
X112059755Y-143733000D01*
X111745422Y-143795525D01*
X111449327Y-143918172D01*
X111182848Y-144096227D01*
X110956227Y-144322848D01*
X110778172Y-144589327D01*
X110655525Y-144885422D01*
X110593000Y-145199755D01*
X110593000Y-145520245D01*
X110655525Y-145834578D01*
X110778172Y-146130673D01*
X110956227Y-146397152D01*
X111182848Y-146623773D01*
X111429918Y-146788859D01*
X111406903Y-146867298D01*
X112220000Y-147680395D01*
X113033097Y-146867298D01*
X113010082Y-146788859D01*
X113257152Y-146623773D01*
X113483773Y-146397152D01*
X113661828Y-146130673D01*
X113784475Y-145834578D01*
X113847000Y-145520245D01*
X113847000Y-145397529D01*
X115197530Y-144047000D01*
X116550480Y-144047000D01*
X116620654Y-144178285D01*
X116823971Y-144426029D01*
X117071714Y-144629346D01*
X117354362Y-144780425D01*
X117661052Y-144873458D01*
X117980000Y-144904872D01*
X118298947Y-144873458D01*
X118605637Y-144780425D01*
X118888285Y-144629346D01*
X119136029Y-144426029D01*
X119250000Y-144287154D01*
X119343001Y-144400476D01*
X119343001Y-144832470D01*
X117656473Y-146518999D01*
X116890000Y-146518999D01*
X116727880Y-146534966D01*
X116571990Y-146582255D01*
X116428321Y-146659048D01*
X116302394Y-146762394D01*
X116199048Y-146888321D01*
X116122255Y-147031990D01*
X116119481Y-147041134D01*
X116119370Y-147041023D01*
X116003097Y-147157296D01*
X115931514Y-146913329D01*
X115676004Y-146792429D01*
X115401816Y-146723700D01*
X115119488Y-146709783D01*
X114839870Y-146751213D01*
X114573708Y-146846397D01*
X114448486Y-146913329D01*
X114376903Y-147157298D01*
X115190000Y-147970395D01*
X115204143Y-147956253D01*
X115383748Y-148135858D01*
X115369605Y-148150000D01*
X115383748Y-148164143D01*
X115204143Y-148343748D01*
X115190000Y-148329605D01*
X114376903Y-149142702D01*
X114448486Y-149386671D01*
X114703996Y-149507571D01*
X114978184Y-149576300D01*
X115260512Y-149590217D01*
X115540130Y-149548787D01*
X115806292Y-149453603D01*
X115931514Y-149386671D01*
X116003097Y-149142704D01*
X116119370Y-149258977D01*
X116119481Y-149258866D01*
X116122255Y-149268010D01*
X116199048Y-149411679D01*
X116302394Y-149537606D01*
X116428321Y-149640952D01*
X116571990Y-149717745D01*
X116727880Y-149765034D01*
X116890000Y-149781001D01*
X118490000Y-149781001D01*
X118652120Y-149765034D01*
X118808010Y-149717745D01*
X118951679Y-149640952D01*
X119077606Y-149537606D01*
X119180952Y-149411679D01*
X119257745Y-149268010D01*
X119305034Y-149112120D01*
X119311152Y-149050000D01*
X120191928Y-149050000D01*
X120204188Y-149174482D01*
X120240498Y-149294180D01*
X120299463Y-149404494D01*
X120378815Y-149501185D01*
X120475506Y-149580537D01*
X120585820Y-149639502D01*
X120705518Y-149675812D01*
X120830000Y-149688072D01*
X121444250Y-149685000D01*
X121603000Y-149526250D01*
X121603000Y-148277000D01*
X120353750Y-148277000D01*
X120195000Y-148435750D01*
X120191928Y-149050000D01*
X119311152Y-149050000D01*
X119321001Y-148950000D01*
X119321001Y-148183527D01*
X120192240Y-147312289D01*
X120195000Y-147864250D01*
X120353750Y-148023000D01*
X121603000Y-148023000D01*
X121603000Y-146773750D01*
X121444250Y-146615000D01*
X120892289Y-146612240D01*
X121311382Y-146193147D01*
X121356291Y-146156291D01*
X121503374Y-145977070D01*
X121612667Y-145772597D01*
X121679969Y-145550732D01*
X121697000Y-145377812D01*
X121697000Y-145377803D01*
X121702693Y-145320001D01*
X121697000Y-145262199D01*
X121697000Y-144400476D01*
X121790000Y-144287154D01*
X121903971Y-144426029D01*
X122151714Y-144629346D01*
X122434362Y-144780425D01*
X122741052Y-144873458D01*
X123060000Y-144904872D01*
X123378947Y-144873458D01*
X123685637Y-144780425D01*
X123968285Y-144629346D01*
X124216029Y-144426029D01*
X124330000Y-144287154D01*
X124443971Y-144426029D01*
X124691714Y-144629346D01*
X124974362Y-144780425D01*
X125281052Y-144873458D01*
X125600000Y-144904872D01*
X125877978Y-144877493D01*
X124332472Y-146423000D01*
X124099905Y-146423000D01*
X123766253Y-146489368D01*
X123451959Y-146619553D01*
X123169102Y-146808552D01*
X123125203Y-146852451D01*
X123081185Y-146798815D01*
X122984494Y-146719463D01*
X122874180Y-146660498D01*
X122754482Y-146624188D01*
X122630000Y-146611928D01*
X122015750Y-146615000D01*
X121857000Y-146773750D01*
X121857000Y-148023000D01*
X121877000Y-148023000D01*
X121877000Y-148277000D01*
X121857000Y-148277000D01*
X121857000Y-149526250D01*
X122015750Y-149685000D01*
X122630000Y-149688072D01*
X122754482Y-149675812D01*
X122874180Y-149639502D01*
X122984494Y-149580537D01*
X123081185Y-149501185D01*
X123125203Y-149447549D01*
X123169102Y-149491448D01*
X123451959Y-149680447D01*
X123766253Y-149810632D01*
X124099905Y-149877000D01*
X124440095Y-149877000D01*
X124773747Y-149810632D01*
X125088041Y-149680447D01*
X125370898Y-149491448D01*
X125479644Y-149382702D01*
X127546903Y-149382702D01*
X127618486Y-149626671D01*
X127873996Y-149747571D01*
X128148184Y-149816300D01*
X128430512Y-149830217D01*
X128710130Y-149788787D01*
X128976292Y-149693603D01*
X129101514Y-149626671D01*
X129173097Y-149382702D01*
X128360000Y-148569605D01*
X127546903Y-149382702D01*
X125479644Y-149382702D01*
X125611448Y-149250898D01*
X125800447Y-148968041D01*
X125930632Y-148653747D01*
X125969069Y-148460512D01*
X126919783Y-148460512D01*
X126961213Y-148740130D01*
X127056397Y-149006292D01*
X127123329Y-149131514D01*
X127367298Y-149203097D01*
X128180395Y-148390000D01*
X127367298Y-147576903D01*
X127123329Y-147648486D01*
X127002429Y-147903996D01*
X126933700Y-148178184D01*
X126919783Y-148460512D01*
X125969069Y-148460512D01*
X125997000Y-148320095D01*
X125997000Y-148087528D01*
X127367529Y-146717000D01*
X128196075Y-146717000D01*
X128282848Y-146803773D01*
X128518244Y-146961059D01*
X128289488Y-146949783D01*
X128009870Y-146991213D01*
X127743708Y-147086397D01*
X127618486Y-147153329D01*
X127546903Y-147397298D01*
X128360000Y-148210395D01*
X129173097Y-147397298D01*
X129102164Y-147155544D01*
X129159755Y-147167000D01*
X129480245Y-147167000D01*
X129794578Y-147104475D01*
X129954608Y-147038188D01*
X129822848Y-147126227D01*
X129596227Y-147352848D01*
X129431141Y-147599918D01*
X129352702Y-147576903D01*
X128539605Y-148390000D01*
X129352702Y-149203097D01*
X129431141Y-149180082D01*
X129596227Y-149427152D01*
X129822848Y-149653773D01*
X130089327Y-149831828D01*
X130385422Y-149954475D01*
X130699755Y-150017000D01*
X131020245Y-150017000D01*
X131334578Y-149954475D01*
X131630673Y-149831828D01*
X131897152Y-149653773D01*
X131983925Y-149567000D01*
X134222188Y-149567000D01*
X134280000Y-149572694D01*
X134337812Y-149567000D01*
X134400572Y-149560819D01*
X134421213Y-149700130D01*
X134516397Y-149966292D01*
X134583329Y-150091514D01*
X134827298Y-150163097D01*
X135640395Y-149350000D01*
X135626253Y-149335858D01*
X135805858Y-149156253D01*
X135820000Y-149170395D01*
X135834143Y-149156253D01*
X136013748Y-149335858D01*
X135999605Y-149350000D01*
X136812702Y-150163097D01*
X137056671Y-150091514D01*
X137177571Y-149836004D01*
X137246300Y-149561816D01*
X137260217Y-149279488D01*
X137218787Y-148999870D01*
X137123603Y-148733708D01*
X137056671Y-148608486D01*
X136812704Y-148536903D01*
X136928977Y-148420630D01*
X136928866Y-148420519D01*
X136938010Y-148417745D01*
X137081679Y-148340952D01*
X137207606Y-148237606D01*
X137310952Y-148111679D01*
X137387745Y-147968010D01*
X137435034Y-147812120D01*
X137451001Y-147650000D01*
X137451001Y-146050000D01*
X137435034Y-145887880D01*
X137387745Y-145731990D01*
X137310952Y-145588321D01*
X137207606Y-145462394D01*
X137081679Y-145359048D01*
X136938010Y-145282255D01*
X136782120Y-145234966D01*
X136620000Y-145218999D01*
X136143528Y-145218999D01*
X133694528Y-142770000D01*
X134051382Y-142413147D01*
X134096291Y-142376291D01*
X134243374Y-142197070D01*
X134352667Y-141992597D01*
X134419969Y-141770732D01*
X134422664Y-141743374D01*
X134429792Y-141671001D01*
X135010000Y-141671001D01*
X135172120Y-141655034D01*
X135328010Y-141607745D01*
X135471679Y-141530952D01*
X135597606Y-141427606D01*
X135700952Y-141301679D01*
X135777745Y-141158010D01*
X135825034Y-141002120D01*
X135841001Y-140840000D01*
X137121928Y-140840000D01*
X137134188Y-140964482D01*
X137170498Y-141084180D01*
X137229463Y-141194494D01*
X137308815Y-141291185D01*
X137405506Y-141370537D01*
X137515820Y-141429502D01*
X137635518Y-141465812D01*
X137760000Y-141478072D01*
X138974250Y-141475000D01*
X139133000Y-141316250D01*
X139133000Y-139217000D01*
X139387000Y-139217000D01*
X139387000Y-141316250D01*
X139545750Y-141475000D01*
X140760000Y-141478072D01*
X140884482Y-141465812D01*
X141004180Y-141429502D01*
X141114494Y-141370537D01*
X141211185Y-141291185D01*
X141290537Y-141194494D01*
X141349502Y-141084180D01*
X141385812Y-140964482D01*
X141398072Y-140840000D01*
X141395000Y-139375750D01*
X141236250Y-139217000D01*
X139387000Y-139217000D01*
X139133000Y-139217000D01*
X137283750Y-139217000D01*
X137125000Y-139375750D01*
X137121928Y-140840000D01*
X135841001Y-140840000D01*
X135841001Y-137340000D01*
X135825034Y-137177880D01*
X135777745Y-137021990D01*
X135700952Y-136878321D01*
X135616774Y-136775750D01*
X135974250Y-136775000D01*
X136133000Y-136616250D01*
X136133000Y-134517000D01*
X136387000Y-134517000D01*
X136387000Y-136616250D01*
X136545750Y-136775000D01*
X137466367Y-136776931D01*
X137405506Y-136809463D01*
X137308815Y-136888815D01*
X137229463Y-136985506D01*
X137170498Y-137095820D01*
X137134188Y-137215518D01*
X137121928Y-137340000D01*
X137125000Y-138804250D01*
X137283750Y-138963000D01*
X139133000Y-138963000D01*
X139133000Y-136863750D01*
X139387000Y-136863750D01*
X139387000Y-138963000D01*
X141236250Y-138963000D01*
X141395000Y-138804250D01*
X141398072Y-137340000D01*
X141385812Y-137215518D01*
X141349502Y-137095820D01*
X141290537Y-136985506D01*
X141211185Y-136888815D01*
X141114494Y-136809463D01*
X141004180Y-136750498D01*
X140884482Y-136714188D01*
X140760000Y-136701928D01*
X139545750Y-136705000D01*
X139387000Y-136863750D01*
X139133000Y-136863750D01*
X138974250Y-136705000D01*
X138303195Y-136703302D01*
X138364494Y-136670537D01*
X138461185Y-136591185D01*
X138540537Y-136494494D01*
X138599502Y-136384180D01*
X138635812Y-136264482D01*
X138648072Y-136140000D01*
X138645000Y-134675750D01*
X138486250Y-134517000D01*
X136387000Y-134517000D01*
X136133000Y-134517000D01*
X134033750Y-134517000D01*
X133875000Y-134675750D01*
X133871928Y-136140000D01*
X133884188Y-136264482D01*
X133920498Y-136384180D01*
X133979463Y-136494494D01*
X133991367Y-136508999D01*
X132794239Y-136508999D01*
X128925240Y-132640000D01*
X133871928Y-132640000D01*
X133875000Y-134104250D01*
X134033750Y-134263000D01*
X136133000Y-134263000D01*
X136133000Y-132163750D01*
X136387000Y-132163750D01*
X136387000Y-134263000D01*
X138486250Y-134263000D01*
X138645000Y-134104250D01*
X138648072Y-132640000D01*
X138635812Y-132515518D01*
X138599502Y-132395820D01*
X138540537Y-132285506D01*
X138461185Y-132188815D01*
X138364494Y-132109463D01*
X138254180Y-132050498D01*
X138134482Y-132014188D01*
X138010000Y-132001928D01*
X136545750Y-132005000D01*
X136387000Y-132163750D01*
X136133000Y-132163750D01*
X135974250Y-132005000D01*
X134510000Y-132001928D01*
X134385518Y-132014188D01*
X134265820Y-132050498D01*
X134155506Y-132109463D01*
X134058815Y-132188815D01*
X133979463Y-132285506D01*
X133920498Y-132395820D01*
X133884188Y-132515518D01*
X133871928Y-132640000D01*
X128925240Y-132640000D01*
X127616893Y-131331653D01*
X131117952Y-131331653D01*
X131273962Y-131647214D01*
X131648745Y-131838020D01*
X132053551Y-131952044D01*
X132472824Y-131984902D01*
X132890451Y-131935334D01*
X133290383Y-131805243D01*
X133586038Y-131647214D01*
X133742048Y-131331653D01*
X132430000Y-130019605D01*
X131117952Y-131331653D01*
X127616893Y-131331653D01*
X126168064Y-129882824D01*
X130285098Y-129882824D01*
X130334666Y-130300451D01*
X130464757Y-130700383D01*
X130622786Y-130996038D01*
X130938347Y-131152048D01*
X132250395Y-129840000D01*
X132609605Y-129840000D01*
X133921653Y-131152048D01*
X134237214Y-130996038D01*
X134428020Y-130621255D01*
X134542044Y-130216449D01*
X134574902Y-129797176D01*
X134525334Y-129379549D01*
X134395243Y-128979617D01*
X134237214Y-128683962D01*
X133921653Y-128527952D01*
X132609605Y-129840000D01*
X132250395Y-129840000D01*
X130938347Y-128527952D01*
X130622786Y-128683962D01*
X130431980Y-129058745D01*
X130317956Y-129463551D01*
X130285098Y-129882824D01*
X126168064Y-129882824D01*
X124633587Y-128348347D01*
X131117952Y-128348347D01*
X132430000Y-129660395D01*
X133742048Y-128348347D01*
X133586038Y-128032786D01*
X133211255Y-127841980D01*
X132806449Y-127727956D01*
X132387176Y-127695098D01*
X131969549Y-127744666D01*
X131569617Y-127874757D01*
X131273962Y-128032786D01*
X131117952Y-128348347D01*
X124633587Y-128348347D01*
X123067228Y-126781988D01*
X137866714Y-126781988D01*
X137919346Y-126955511D01*
X138054478Y-127235303D01*
X138241598Y-127483356D01*
X138473515Y-127690137D01*
X138741317Y-127847700D01*
X139034712Y-127949990D01*
X139280300Y-127830558D01*
X139280300Y-126536400D01*
X139534300Y-126536400D01*
X139534300Y-127830558D01*
X139779888Y-127949990D01*
X140073283Y-127847700D01*
X140341085Y-127690137D01*
X140573002Y-127483356D01*
X140760122Y-127235303D01*
X140895254Y-126955511D01*
X140947886Y-126781988D01*
X140827884Y-126536400D01*
X139534300Y-126536400D01*
X139280300Y-126536400D01*
X137986716Y-126536400D01*
X137866714Y-126781988D01*
X123067228Y-126781988D01*
X121114939Y-124829700D01*
X138115469Y-124829700D01*
X138144692Y-124865308D01*
X138415275Y-125087370D01*
X138482566Y-125123338D01*
X138473515Y-125128663D01*
X138241598Y-125335444D01*
X138054478Y-125583497D01*
X137919346Y-125863289D01*
X137866714Y-126036812D01*
X137986716Y-126282400D01*
X139280300Y-126282400D01*
X139280300Y-126262400D01*
X139534300Y-126262400D01*
X139534300Y-126282400D01*
X140827884Y-126282400D01*
X140947886Y-126036812D01*
X140895254Y-125863289D01*
X140760122Y-125583497D01*
X140573002Y-125335444D01*
X140341085Y-125128663D01*
X140332034Y-125123338D01*
X140399325Y-125087370D01*
X140669908Y-124865308D01*
X140891970Y-124594725D01*
X141056977Y-124286019D01*
X141158588Y-123951053D01*
X141192898Y-123602700D01*
X141158588Y-123254347D01*
X141056977Y-122919381D01*
X140891970Y-122610675D01*
X140735392Y-122419884D01*
X140869779Y-122348052D01*
X140995706Y-122244706D01*
X141099052Y-122118779D01*
X141175845Y-121975110D01*
X141223134Y-121819220D01*
X141239101Y-121657100D01*
X141239101Y-119757100D01*
X141223134Y-119594980D01*
X141175845Y-119439090D01*
X141099052Y-119295421D01*
X140995706Y-119169494D01*
X140869779Y-119066148D01*
X140726110Y-118989355D01*
X140570220Y-118942066D01*
X140408100Y-118926099D01*
X138508100Y-118926099D01*
X138345980Y-118942066D01*
X138190090Y-118989355D01*
X138046421Y-119066148D01*
X137920494Y-119169494D01*
X137817148Y-119295421D01*
X137740355Y-119439090D01*
X137693066Y-119594980D01*
X137677099Y-119757100D01*
X137677099Y-119873000D01*
X136227529Y-119873000D01*
X134735113Y-118380585D01*
X134807000Y-118019189D01*
X134807000Y-117560811D01*
X134717574Y-117111239D01*
X134542160Y-116687752D01*
X134287499Y-116306624D01*
X133963376Y-115982501D01*
X133582248Y-115727840D01*
X133158761Y-115552426D01*
X132709189Y-115463000D01*
X132250811Y-115463000D01*
X131801239Y-115552426D01*
X131377752Y-115727840D01*
X130996624Y-115982501D01*
X130672501Y-116306624D01*
X130417840Y-116687752D01*
X130242426Y-117111239D01*
X130153000Y-117560811D01*
X130153000Y-118019189D01*
X130242426Y-118468761D01*
X130417840Y-118892248D01*
X130672501Y-119273376D01*
X130996624Y-119597499D01*
X131377752Y-119852160D01*
X131801239Y-120027574D01*
X132250811Y-120117000D01*
X132709189Y-120117000D01*
X133070585Y-120045113D01*
X134866853Y-121841382D01*
X134903709Y-121886291D01*
X135082930Y-122033374D01*
X135287403Y-122142667D01*
X135509268Y-122209969D01*
X135682188Y-122227000D01*
X135682197Y-122227000D01*
X135739999Y-122232693D01*
X135797801Y-122227000D01*
X137905963Y-122227000D01*
X137920494Y-122244706D01*
X138046421Y-122348052D01*
X138098147Y-122375700D01*
X120133654Y-122375700D01*
X120087499Y-122306624D01*
X119763376Y-121982501D01*
X119382248Y-121727840D01*
X118958761Y-121552426D01*
X118509189Y-121463000D01*
X118050811Y-121463000D01*
X117601239Y-121552426D01*
X117177752Y-121727840D01*
X116796624Y-121982501D01*
X116472501Y-122306624D01*
X116217840Y-122687752D01*
X116042426Y-123111239D01*
X115953000Y-123560811D01*
X115953000Y-124019189D01*
X116042426Y-124468761D01*
X116217840Y-124892248D01*
X116472501Y-125273376D01*
X116796624Y-125597499D01*
X117177752Y-125852160D01*
X117601239Y-126027574D01*
X118050811Y-126117000D01*
X118509189Y-126117000D01*
X118861651Y-126046890D01*
X120877604Y-128062844D01*
X120547688Y-127972710D01*
X120177294Y-127946611D01*
X119808925Y-127993275D01*
X119456738Y-128110906D01*
X119221914Y-128236423D01*
X119096000Y-128526395D01*
X120230000Y-129660395D01*
X120244143Y-129646253D01*
X120423748Y-129825858D01*
X120409605Y-129840000D01*
X121543605Y-130974000D01*
X121833577Y-130848086D01*
X121999433Y-130515874D01*
X122097290Y-130157688D01*
X122123389Y-129787294D01*
X122076725Y-129418925D01*
X121998008Y-129183248D01*
X126227718Y-133412957D01*
X125885750Y-133415000D01*
X125727000Y-133573750D01*
X125727000Y-135123000D01*
X126876250Y-135123000D01*
X127035000Y-134964250D01*
X127037492Y-134222731D01*
X129119624Y-136304864D01*
X129001052Y-136316542D01*
X128694362Y-136409575D01*
X128411714Y-136560654D01*
X128189524Y-136743000D01*
X126963407Y-136743000D01*
X126989502Y-136694180D01*
X127025812Y-136574482D01*
X127038072Y-136450000D01*
X127035000Y-135535750D01*
X126876250Y-135377000D01*
X125727000Y-135377000D01*
X125727000Y-135397000D01*
X125473000Y-135397000D01*
X125473000Y-135377000D01*
X125453000Y-135377000D01*
X125453000Y-135123000D01*
X125473000Y-135123000D01*
X125473000Y-133573750D01*
X125314250Y-133415000D01*
X124800000Y-133411928D01*
X124675518Y-133424188D01*
X124555820Y-133460498D01*
X124445506Y-133519463D01*
X124348815Y-133598815D01*
X124269463Y-133695506D01*
X124248884Y-133734005D01*
X124216029Y-133693971D01*
X123968286Y-133490654D01*
X123685638Y-133339575D01*
X123539894Y-133295364D01*
X121973151Y-131728623D01*
X121936291Y-131683709D01*
X121757070Y-131536626D01*
X121552597Y-131427333D01*
X121330732Y-131360031D01*
X121276676Y-131354707D01*
X121364000Y-131153605D01*
X120230000Y-130019605D01*
X120215858Y-130033748D01*
X120036253Y-129854143D01*
X120050395Y-129840000D01*
X118916395Y-128706000D01*
X118626423Y-128831914D01*
X118460567Y-129164126D01*
X118362710Y-129522312D01*
X118355741Y-129621213D01*
X117113151Y-128378623D01*
X117076291Y-128333709D01*
X116897070Y-128186626D01*
X116692597Y-128077333D01*
X116470732Y-128010031D01*
X116297812Y-127993000D01*
X116240000Y-127987306D01*
X116182188Y-127993000D01*
X108877000Y-127993000D01*
X108877000Y-126163198D01*
X109087374Y-126260095D01*
X109333524Y-126319102D01*
X109586455Y-126328952D01*
X109836449Y-126289270D01*
X110073896Y-126201578D01*
X110162534Y-126154201D01*
X110215922Y-125925527D01*
X109510000Y-125219605D01*
X109495858Y-125233748D01*
X109316253Y-125054143D01*
X109330395Y-125040000D01*
X109689605Y-125040000D01*
X110395527Y-125745922D01*
X110624201Y-125692534D01*
X110730095Y-125462626D01*
X110789102Y-125216476D01*
X110798952Y-124963545D01*
X110759270Y-124713551D01*
X110671578Y-124476104D01*
X110624201Y-124387466D01*
X110395527Y-124334078D01*
X109689605Y-125040000D01*
X109330395Y-125040000D01*
X109316253Y-125025858D01*
X109495858Y-124846253D01*
X109510000Y-124860395D01*
X110215922Y-124154473D01*
X110162534Y-123925799D01*
X109932626Y-123819905D01*
X109717000Y-123768215D01*
X109717000Y-123624528D01*
X109660240Y-123339175D01*
X109548901Y-123070378D01*
X109387261Y-122828467D01*
X109181533Y-122622739D01*
X109147502Y-122600000D01*
X111688999Y-122600000D01*
X111688999Y-124400000D01*
X111704966Y-124562120D01*
X111752255Y-124718010D01*
X111829048Y-124861679D01*
X111932394Y-124987606D01*
X112058321Y-125090952D01*
X112201990Y-125167745D01*
X112357880Y-125215034D01*
X112520000Y-125231001D01*
X114320000Y-125231001D01*
X114482120Y-125215034D01*
X114638010Y-125167745D01*
X114781679Y-125090952D01*
X114907606Y-124987606D01*
X115010952Y-124861679D01*
X115087745Y-124718010D01*
X115135034Y-124562120D01*
X115151001Y-124400000D01*
X115151001Y-123150254D01*
X115161131Y-123047403D01*
X115172694Y-122930000D01*
X115167000Y-122872188D01*
X115167000Y-121070185D01*
X115208010Y-121057745D01*
X115351679Y-120980952D01*
X115477606Y-120877606D01*
X115580952Y-120751679D01*
X115657745Y-120608010D01*
X115670185Y-120567000D01*
X118622188Y-120567000D01*
X118680000Y-120572694D01*
X118737812Y-120567000D01*
X118910732Y-120549969D01*
X119132597Y-120482667D01*
X119337070Y-120373374D01*
X119516291Y-120226291D01*
X119553151Y-120181377D01*
X119852022Y-119882506D01*
X120025433Y-119917000D01*
X120434567Y-119917000D01*
X120835839Y-119837182D01*
X121213829Y-119680614D01*
X121554011Y-119453311D01*
X121843311Y-119164011D01*
X122070614Y-118823829D01*
X122227182Y-118445839D01*
X122307000Y-118044567D01*
X122307000Y-117635433D01*
X122227182Y-117234161D01*
X122070614Y-116856171D01*
X121843311Y-116515989D01*
X121554011Y-116226689D01*
X121213829Y-115999386D01*
X120835839Y-115842818D01*
X120434567Y-115763000D01*
X120025433Y-115763000D01*
X119624161Y-115842818D01*
X119246171Y-115999386D01*
X118905989Y-116226689D01*
X118616689Y-116515989D01*
X118389386Y-116856171D01*
X118232818Y-117234161D01*
X118153000Y-117635433D01*
X118153000Y-118044567D01*
X118186503Y-118213000D01*
X115670185Y-118213000D01*
X115657745Y-118171990D01*
X115580952Y-118028321D01*
X115477606Y-117902394D01*
X115351679Y-117799048D01*
X115208010Y-117722255D01*
X115052120Y-117674966D01*
X114890000Y-117658999D01*
X113090000Y-117658999D01*
X112927880Y-117674966D01*
X112771990Y-117722255D01*
X112628321Y-117799048D01*
X112502394Y-117902394D01*
X112399048Y-118028321D01*
X112322255Y-118171990D01*
X112274966Y-118327880D01*
X112258999Y-118490000D01*
X112258999Y-120290000D01*
X112274966Y-120452120D01*
X112322255Y-120608010D01*
X112399048Y-120751679D01*
X112502394Y-120877606D01*
X112628321Y-120980952D01*
X112771990Y-121057745D01*
X112813000Y-121070185D01*
X112813001Y-121768999D01*
X112520000Y-121768999D01*
X112357880Y-121784966D01*
X112201990Y-121832255D01*
X112058321Y-121909048D01*
X111932394Y-122012394D01*
X111829048Y-122138321D01*
X111752255Y-122281990D01*
X111704966Y-122437880D01*
X111688999Y-122600000D01*
X109147502Y-122600000D01*
X108939622Y-122461099D01*
X108670825Y-122349760D01*
X108385472Y-122293000D01*
X108094528Y-122293000D01*
X108080349Y-122295820D01*
X106595013Y-120810484D01*
X106734741Y-120881041D01*
X107018620Y-120781234D01*
X107277573Y-120627962D01*
X107501649Y-120427116D01*
X107682236Y-120186414D01*
X107812394Y-119915107D01*
X107861036Y-119754740D01*
X107740378Y-119517000D01*
X106497000Y-119517000D01*
X106497000Y-119537000D01*
X106243000Y-119537000D01*
X106243000Y-119517000D01*
X106223000Y-119517000D01*
X106223000Y-119263000D01*
X106243000Y-119263000D01*
X106243000Y-118019008D01*
X106497000Y-118019008D01*
X106497000Y-119263000D01*
X107740378Y-119263000D01*
X107861036Y-119025260D01*
X107812394Y-118864893D01*
X107682236Y-118593586D01*
X107501649Y-118352884D01*
X107277573Y-118152038D01*
X107018620Y-117998766D01*
X106734741Y-117898959D01*
X106497000Y-118019008D01*
X106243000Y-118019008D01*
X106005259Y-117898959D01*
X105721380Y-117998766D01*
X105462427Y-118152038D01*
X105238351Y-118352884D01*
X105057764Y-118593586D01*
X105016742Y-118679094D01*
X104959346Y-118571714D01*
X104756029Y-118323971D01*
X104508286Y-118120654D01*
X104225638Y-117969575D01*
X103918948Y-117876542D01*
X103679925Y-117853000D01*
X103520075Y-117853000D01*
X103281052Y-117876542D01*
X102974362Y-117969575D01*
X102691714Y-118120654D01*
X102443971Y-118323971D01*
X102240654Y-118571714D01*
X102089575Y-118854362D01*
X101996542Y-119161052D01*
X101965128Y-119480000D01*
X101996542Y-119798948D01*
X102089575Y-120105638D01*
X102240654Y-120388286D01*
X102443971Y-120636029D01*
X102691714Y-120839346D01*
X102974362Y-120990425D01*
X103281052Y-121083458D01*
X103520075Y-121107000D01*
X103562472Y-121107000D01*
X106060099Y-123604628D01*
X106001990Y-123622255D01*
X105858321Y-123699048D01*
X105732394Y-123802394D01*
X105629048Y-123928321D01*
X105552255Y-124071990D01*
X105504966Y-124227880D01*
X105488999Y-124390000D01*
X105488999Y-125690000D01*
X105504966Y-125852120D01*
X105552255Y-126008010D01*
X105629048Y-126151679D01*
X105732394Y-126277606D01*
X105858321Y-126380952D01*
X106001990Y-126457745D01*
X106157880Y-126505034D01*
X106320000Y-126521001D01*
X106523001Y-126521001D01*
X106523000Y-128486075D01*
X106436227Y-128572848D01*
X106258172Y-128839327D01*
X106204187Y-128969658D01*
X105761632Y-128527104D01*
X105733458Y-128241052D01*
X105640425Y-127934362D01*
X105489346Y-127651714D01*
X105286029Y-127403971D01*
X105038286Y-127200654D01*
X104907000Y-127130480D01*
X104907000Y-124878625D01*
X104989346Y-124778286D01*
X105140425Y-124495638D01*
X105233458Y-124188948D01*
X105264872Y-123870000D01*
X105233458Y-123551052D01*
X105140425Y-123244362D01*
X104989346Y-122961714D01*
X104786029Y-122713971D01*
X104538286Y-122510654D01*
X104255638Y-122359575D01*
X103948948Y-122266542D01*
X103709925Y-122243000D01*
X103550075Y-122243000D01*
X103311052Y-122266542D01*
X103004362Y-122359575D01*
X102721714Y-122510654D01*
X102473971Y-122713971D01*
X102270654Y-122961714D01*
X102119575Y-123244362D01*
X102026542Y-123551052D01*
X101995128Y-123870000D01*
X102026542Y-124188948D01*
X102119575Y-124495638D01*
X102270654Y-124778286D01*
X102473971Y-125026029D01*
X102553001Y-125090887D01*
X102553000Y-127130480D01*
X102421714Y-127200654D01*
X102173971Y-127403971D01*
X101970654Y-127651714D01*
X101819575Y-127934362D01*
X101726542Y-128241052D01*
X101695128Y-128560000D01*
X101726542Y-128878948D01*
X101819575Y-129185638D01*
X101970654Y-129468286D01*
X102173971Y-129716029D01*
X102312845Y-129830000D01*
X102173971Y-129943971D01*
X101970654Y-130191714D01*
X101819575Y-130474362D01*
X101726542Y-130781052D01*
X101695128Y-131100000D01*
X101726542Y-131418948D01*
X101819575Y-131725638D01*
X101970654Y-132008286D01*
X102173971Y-132256029D01*
X102312845Y-132370000D01*
X102173971Y-132483971D01*
X101970654Y-132731714D01*
X101819575Y-133014362D01*
X101726542Y-133321052D01*
X101695128Y-133640000D01*
X101726542Y-133958948D01*
X101819575Y-134265638D01*
X101970654Y-134548286D01*
X102173971Y-134796029D01*
X102312845Y-134910000D01*
X102173971Y-135023971D01*
X101970654Y-135271714D01*
X101819575Y-135554362D01*
X101726542Y-135861052D01*
X101695128Y-136180000D01*
X101726542Y-136498948D01*
X101819575Y-136805638D01*
X101970654Y-137088286D01*
X102173971Y-137336029D01*
X102421714Y-137539346D01*
X102704362Y-137690425D01*
X103011052Y-137783458D01*
X103250075Y-137807000D01*
X104209925Y-137807000D01*
X104448948Y-137783458D01*
X104755638Y-137690425D01*
X105038286Y-137539346D01*
X105286029Y-137336029D01*
X105489346Y-137088286D01*
X105640425Y-136805638D01*
X105733458Y-136498948D01*
X105764872Y-136180000D01*
X105733458Y-135861052D01*
X105640425Y-135554362D01*
X105489346Y-135271714D01*
X105286029Y-135023971D01*
X105147155Y-134910000D01*
X105286029Y-134796029D01*
X105489346Y-134548286D01*
X105640425Y-134265638D01*
X105733458Y-133958948D01*
X105764872Y-133640000D01*
X105733458Y-133321052D01*
X105640425Y-133014362D01*
X105489346Y-132731714D01*
X105286029Y-132483971D01*
X105147155Y-132370000D01*
X105286029Y-132256029D01*
X105489346Y-132008286D01*
X105637180Y-131731709D01*
X106523001Y-132617530D01*
X106523000Y-136099524D01*
X106340654Y-136321714D01*
X106189575Y-136604362D01*
X106096542Y-136911052D01*
X106065128Y-137230000D01*
X106096542Y-137548948D01*
X106189575Y-137855638D01*
X106340654Y-138138286D01*
X106543971Y-138386029D01*
X106563000Y-138401646D01*
X106563000Y-139522471D01*
X106082471Y-140003000D01*
X103580788Y-140003000D01*
X103556155Y-139978367D01*
X103302779Y-139809067D01*
X103021243Y-139692451D01*
X102722366Y-139633000D01*
X102417634Y-139633000D01*
X102118757Y-139692451D01*
X101837221Y-139809067D01*
X101583845Y-139978367D01*
X101368367Y-140193845D01*
X101300000Y-140296164D01*
X101231633Y-140193845D01*
X101207000Y-140169212D01*
X101207000Y-137217812D01*
X101212694Y-137160000D01*
X101189969Y-136929268D01*
X101174514Y-136878321D01*
X101122667Y-136707403D01*
X101013374Y-136502930D01*
X100993419Y-136478615D01*
X100903144Y-136368614D01*
X100903142Y-136368612D01*
X100866291Y-136323709D01*
X100821388Y-136286858D01*
X98141632Y-133607103D01*
X98113458Y-133321052D01*
X98020425Y-133014362D01*
X97869346Y-132731714D01*
X97666029Y-132483971D01*
X97527155Y-132370000D01*
X97666029Y-132256029D01*
X97869346Y-132008286D01*
X98020425Y-131725638D01*
X98113458Y-131418948D01*
X98144872Y-131100000D01*
X98113458Y-130781052D01*
X98020425Y-130474362D01*
X97869346Y-130191714D01*
X97759269Y-130057585D01*
X97771679Y-130050952D01*
X97897606Y-129947606D01*
X98000952Y-129821679D01*
X98077745Y-129678010D01*
X98125034Y-129522120D01*
X98141001Y-129360000D01*
X98141001Y-128083528D01*
X98971384Y-127253145D01*
X99016291Y-127216291D01*
X99163374Y-127037070D01*
X99272667Y-126832597D01*
X99339969Y-126610732D01*
X99341519Y-126594996D01*
X99362694Y-126380001D01*
X99357000Y-126322189D01*
X99357000Y-121737801D01*
X99362693Y-121679999D01*
X99357000Y-121622197D01*
X99357000Y-121622188D01*
X99339969Y-121449268D01*
X99272667Y-121227403D01*
X99163374Y-121022930D01*
X99016291Y-120843709D01*
X98971382Y-120806853D01*
X97653146Y-119488618D01*
X97653142Y-119488613D01*
X97607000Y-119442471D01*
X97607000Y-119319755D01*
X97544475Y-119005422D01*
X97421828Y-118709327D01*
X97243773Y-118442848D01*
X97017152Y-118216227D01*
X96750673Y-118038172D01*
X96454578Y-117915525D01*
X96140245Y-117853000D01*
X95819755Y-117853000D01*
X95505422Y-117915525D01*
X95209327Y-118038172D01*
X94942848Y-118216227D01*
X94716227Y-118442848D01*
X94538172Y-118709327D01*
X94415525Y-119005422D01*
X94353000Y-119319755D01*
X94353000Y-119640245D01*
X94415525Y-119954578D01*
X94538172Y-120250673D01*
X94716227Y-120517152D01*
X94942848Y-120743773D01*
X95209327Y-120921828D01*
X95505422Y-121044475D01*
X95819755Y-121107000D01*
X95942471Y-121107000D01*
X95988613Y-121153142D01*
X95988618Y-121153146D01*
X97003001Y-122167530D01*
X97003001Y-122576726D01*
X96780673Y-122428172D01*
X96484578Y-122305525D01*
X96170245Y-122243000D01*
X95849755Y-122243000D01*
X95535422Y-122305525D01*
X95239327Y-122428172D01*
X94972848Y-122606227D01*
X94746227Y-122832848D01*
X94568172Y-123099327D01*
X94445525Y-123395422D01*
X94407156Y-123588314D01*
X91802472Y-126193000D01*
X91770260Y-126193000D01*
X91710000Y-126187065D01*
X91649740Y-126193000D01*
X91502940Y-126193000D01*
X91430952Y-126058321D01*
X91327606Y-125932394D01*
X91201679Y-125829048D01*
X91058010Y-125752255D01*
X90902120Y-125704966D01*
X90740000Y-125688999D01*
X88940000Y-125688999D01*
X88777880Y-125704966D01*
X88621990Y-125752255D01*
X88478321Y-125829048D01*
X88352394Y-125932394D01*
X88249048Y-126058321D01*
X88172255Y-126201990D01*
X88124966Y-126357880D01*
X88108999Y-126520000D01*
X85072000Y-126520000D01*
X85072000Y-118956037D01*
X86743000Y-118956037D01*
X86743000Y-119443963D01*
X86838190Y-119922514D01*
X87024911Y-120373299D01*
X87295989Y-120778995D01*
X87641005Y-121124011D01*
X88046701Y-121395089D01*
X88497486Y-121581810D01*
X88976037Y-121677000D01*
X89463963Y-121677000D01*
X89942514Y-121581810D01*
X90393299Y-121395089D01*
X90798995Y-121124011D01*
X91144011Y-120778995D01*
X91415089Y-120373299D01*
X91601810Y-119922514D01*
X91697000Y-119443963D01*
X91697000Y-118956037D01*
X91601810Y-118477486D01*
X91415089Y-118026701D01*
X91144011Y-117621005D01*
X90798995Y-117275989D01*
X90393299Y-117004911D01*
X89942514Y-116818190D01*
X89463963Y-116723000D01*
X88976037Y-116723000D01*
X88497486Y-116818190D01*
X88046701Y-117004911D01*
X87641005Y-117275989D01*
X87295989Y-117621005D01*
X87024911Y-118026701D01*
X86838190Y-118477486D01*
X86743000Y-118956037D01*
X85072000Y-118956037D01*
X85072000Y-115052000D01*
X142278000Y-115052000D01*
X142278001Y-153118000D01*
M02*
