G04 #@! TF.GenerationSoftware,KiCad,Pcbnew,(5.1.4)-1*
G04 #@! TF.CreationDate,2020-05-23T20:07:19+05:30*
G04 #@! TF.ProjectId,v1.0,76312e30-2e6b-4696-9361-645f70636258,rev?*
G04 #@! TF.SameCoordinates,Original*
G04 #@! TF.FileFunction,Soldermask,Bot*
G04 #@! TF.FilePolarity,Negative*
%FSLAX46Y46*%
G04 Gerber Fmt 4.6, Leading zero omitted, Abs format (unit mm)*
G04 Created by KiCad (PCBNEW (5.1.4)-1) date 2020-05-23 20:07:19*
%MOMM*%
%LPD*%
G04 APERTURE LIST*
%ADD10C,0.100000*%
G04 APERTURE END LIST*
D10*
G36*
X107906823Y-149131313D02*
G01*
X108067242Y-149179976D01*
X108181410Y-149241000D01*
X108215078Y-149258996D01*
X108344659Y-149365341D01*
X108451004Y-149494922D01*
X108451005Y-149494924D01*
X108530024Y-149642758D01*
X108578687Y-149803177D01*
X108595117Y-149970000D01*
X108578687Y-150136823D01*
X108530024Y-150297242D01*
X108459114Y-150429906D01*
X108451004Y-150445078D01*
X108344659Y-150574659D01*
X108215078Y-150681004D01*
X108215076Y-150681005D01*
X108067242Y-150760024D01*
X107906823Y-150808687D01*
X107781804Y-150821000D01*
X107698196Y-150821000D01*
X107573177Y-150808687D01*
X107412758Y-150760024D01*
X107264924Y-150681005D01*
X107264922Y-150681004D01*
X107135341Y-150574659D01*
X107028996Y-150445078D01*
X107020886Y-150429906D01*
X106949976Y-150297242D01*
X106901313Y-150136823D01*
X106884883Y-149970000D01*
X106901313Y-149803177D01*
X106949976Y-149642758D01*
X107028995Y-149494924D01*
X107028996Y-149494922D01*
X107135341Y-149365341D01*
X107264922Y-149258996D01*
X107298590Y-149241000D01*
X107412758Y-149179976D01*
X107573177Y-149131313D01*
X107698196Y-149119000D01*
X107781804Y-149119000D01*
X107906823Y-149131313D01*
X107906823Y-149131313D01*
G37*
G36*
X136068228Y-148531703D02*
G01*
X136223100Y-148595853D01*
X136362481Y-148688985D01*
X136481015Y-148807519D01*
X136574147Y-148946900D01*
X136638297Y-149101772D01*
X136671000Y-149266184D01*
X136671000Y-149433816D01*
X136638297Y-149598228D01*
X136574147Y-149753100D01*
X136481015Y-149892481D01*
X136362481Y-150011015D01*
X136223100Y-150104147D01*
X136068228Y-150168297D01*
X135903816Y-150201000D01*
X135736184Y-150201000D01*
X135571772Y-150168297D01*
X135416900Y-150104147D01*
X135277519Y-150011015D01*
X135158985Y-149892481D01*
X135065853Y-149753100D01*
X135001703Y-149598228D01*
X134969000Y-149433816D01*
X134969000Y-149266184D01*
X135001703Y-149101772D01*
X135065853Y-148946900D01*
X135158985Y-148807519D01*
X135277519Y-148688985D01*
X135416900Y-148595853D01*
X135571772Y-148531703D01*
X135736184Y-148499000D01*
X135903816Y-148499000D01*
X136068228Y-148531703D01*
X136068228Y-148531703D01*
G37*
G36*
X131108228Y-147571703D02*
G01*
X131263100Y-147635853D01*
X131402481Y-147728985D01*
X131521015Y-147847519D01*
X131614147Y-147986900D01*
X131678297Y-148141772D01*
X131711000Y-148306184D01*
X131711000Y-148473816D01*
X131678297Y-148638228D01*
X131614147Y-148793100D01*
X131521015Y-148932481D01*
X131402481Y-149051015D01*
X131263100Y-149144147D01*
X131108228Y-149208297D01*
X130943816Y-149241000D01*
X130776184Y-149241000D01*
X130611772Y-149208297D01*
X130456900Y-149144147D01*
X130317519Y-149051015D01*
X130198985Y-148932481D01*
X130105853Y-148793100D01*
X130041703Y-148638228D01*
X130009000Y-148473816D01*
X130009000Y-148306184D01*
X130041703Y-148141772D01*
X130105853Y-147986900D01*
X130198985Y-147847519D01*
X130317519Y-147728985D01*
X130456900Y-147635853D01*
X130611772Y-147571703D01*
X130776184Y-147539000D01*
X130943816Y-147539000D01*
X131108228Y-147571703D01*
X131108228Y-147571703D01*
G37*
G36*
X128608228Y-147571703D02*
G01*
X128763100Y-147635853D01*
X128902481Y-147728985D01*
X129021015Y-147847519D01*
X129114147Y-147986900D01*
X129178297Y-148141772D01*
X129211000Y-148306184D01*
X129211000Y-148473816D01*
X129178297Y-148638228D01*
X129114147Y-148793100D01*
X129021015Y-148932481D01*
X128902481Y-149051015D01*
X128763100Y-149144147D01*
X128608228Y-149208297D01*
X128443816Y-149241000D01*
X128276184Y-149241000D01*
X128111772Y-149208297D01*
X127956900Y-149144147D01*
X127817519Y-149051015D01*
X127698985Y-148932481D01*
X127605853Y-148793100D01*
X127541703Y-148638228D01*
X127509000Y-148473816D01*
X127509000Y-148306184D01*
X127541703Y-148141772D01*
X127605853Y-147986900D01*
X127698985Y-147847519D01*
X127817519Y-147728985D01*
X127956900Y-147635853D01*
X128111772Y-147571703D01*
X128276184Y-147539000D01*
X128443816Y-147539000D01*
X128608228Y-147571703D01*
X128608228Y-147571703D01*
G37*
G36*
X122681000Y-149101000D02*
G01*
X120779000Y-149101000D01*
X120779000Y-147199000D01*
X122681000Y-147199000D01*
X122681000Y-149101000D01*
X122681000Y-149101000D01*
G37*
G36*
X124547395Y-147235546D02*
G01*
X124720466Y-147307234D01*
X124735860Y-147317520D01*
X124876227Y-147411310D01*
X125008690Y-147543773D01*
X125051284Y-147607520D01*
X125112766Y-147699534D01*
X125184454Y-147872605D01*
X125221000Y-148056333D01*
X125221000Y-148243667D01*
X125184454Y-148427395D01*
X125112766Y-148600466D01*
X125061081Y-148677818D01*
X125008690Y-148756227D01*
X124876227Y-148888690D01*
X124853092Y-148904148D01*
X124720466Y-148992766D01*
X124547395Y-149064454D01*
X124363667Y-149101000D01*
X124176333Y-149101000D01*
X123992605Y-149064454D01*
X123819534Y-148992766D01*
X123686908Y-148904148D01*
X123663773Y-148888690D01*
X123531310Y-148756227D01*
X123478919Y-148677818D01*
X123427234Y-148600466D01*
X123355546Y-148427395D01*
X123319000Y-148243667D01*
X123319000Y-148056333D01*
X123355546Y-147872605D01*
X123427234Y-147699534D01*
X123488716Y-147607520D01*
X123531310Y-147543773D01*
X123663773Y-147411310D01*
X123804140Y-147317520D01*
X123819534Y-147307234D01*
X123992605Y-147235546D01*
X124176333Y-147199000D01*
X124363667Y-147199000D01*
X124547395Y-147235546D01*
X124547395Y-147235546D01*
G37*
G36*
X115438228Y-147331703D02*
G01*
X115593100Y-147395853D01*
X115732481Y-147488985D01*
X115851015Y-147607519D01*
X115944147Y-147746900D01*
X116008297Y-147901772D01*
X116041000Y-148066184D01*
X116041000Y-148233816D01*
X116008297Y-148398228D01*
X115944147Y-148553100D01*
X115851015Y-148692481D01*
X115732481Y-148811015D01*
X115593100Y-148904147D01*
X115438228Y-148968297D01*
X115273816Y-149001000D01*
X115106184Y-149001000D01*
X114941772Y-148968297D01*
X114786900Y-148904147D01*
X114647519Y-148811015D01*
X114528985Y-148692481D01*
X114435853Y-148553100D01*
X114371703Y-148398228D01*
X114339000Y-148233816D01*
X114339000Y-148066184D01*
X114371703Y-147901772D01*
X114435853Y-147746900D01*
X114528985Y-147607519D01*
X114647519Y-147488985D01*
X114786900Y-147395853D01*
X114941772Y-147331703D01*
X115106184Y-147299000D01*
X115273816Y-147299000D01*
X115438228Y-147331703D01*
X115438228Y-147331703D01*
G37*
G36*
X118541000Y-149001000D02*
G01*
X116839000Y-149001000D01*
X116839000Y-147299000D01*
X118541000Y-147299000D01*
X118541000Y-149001000D01*
X118541000Y-149001000D01*
G37*
G36*
X112468228Y-147041703D02*
G01*
X112623100Y-147105853D01*
X112762481Y-147198985D01*
X112881015Y-147317519D01*
X112974147Y-147456900D01*
X113038297Y-147611772D01*
X113071000Y-147776184D01*
X113071000Y-147943816D01*
X113038297Y-148108228D01*
X112974147Y-148263100D01*
X112881015Y-148402481D01*
X112762481Y-148521015D01*
X112623100Y-148614147D01*
X112468228Y-148678297D01*
X112303816Y-148711000D01*
X112136184Y-148711000D01*
X111971772Y-148678297D01*
X111816900Y-148614147D01*
X111677519Y-148521015D01*
X111558985Y-148402481D01*
X111465853Y-148263100D01*
X111401703Y-148108228D01*
X111369000Y-147943816D01*
X111369000Y-147776184D01*
X111401703Y-147611772D01*
X111465853Y-147456900D01*
X111558985Y-147317519D01*
X111677519Y-147198985D01*
X111816900Y-147105853D01*
X111971772Y-147041703D01*
X112136184Y-147009000D01*
X112303816Y-147009000D01*
X112468228Y-147041703D01*
X112468228Y-147041703D01*
G37*
G36*
X136671000Y-147701000D02*
G01*
X134969000Y-147701000D01*
X134969000Y-145999000D01*
X136671000Y-145999000D01*
X136671000Y-147701000D01*
X136671000Y-147701000D01*
G37*
G36*
X99168228Y-145441703D02*
G01*
X99323100Y-145505853D01*
X99462481Y-145598985D01*
X99581015Y-145717519D01*
X99674147Y-145856900D01*
X99738297Y-146011772D01*
X99771000Y-146176184D01*
X99771000Y-146343816D01*
X99738297Y-146508228D01*
X99674147Y-146663100D01*
X99581015Y-146802481D01*
X99462481Y-146921015D01*
X99323100Y-147014147D01*
X99168228Y-147078297D01*
X99003816Y-147111000D01*
X98836184Y-147111000D01*
X98671772Y-147078297D01*
X98516900Y-147014147D01*
X98377519Y-146921015D01*
X98258985Y-146802481D01*
X98165853Y-146663100D01*
X98101703Y-146508228D01*
X98069000Y-146343816D01*
X98069000Y-146176184D01*
X98101703Y-146011772D01*
X98165853Y-145856900D01*
X98258985Y-145717519D01*
X98377519Y-145598985D01*
X98516900Y-145505853D01*
X98671772Y-145441703D01*
X98836184Y-145409000D01*
X99003816Y-145409000D01*
X99168228Y-145441703D01*
X99168228Y-145441703D01*
G37*
G36*
X101668228Y-145441703D02*
G01*
X101823100Y-145505853D01*
X101962481Y-145598985D01*
X102081015Y-145717519D01*
X102174147Y-145856900D01*
X102238297Y-146011772D01*
X102271000Y-146176184D01*
X102271000Y-146343816D01*
X102238297Y-146508228D01*
X102174147Y-146663100D01*
X102081015Y-146802481D01*
X101962481Y-146921015D01*
X101823100Y-147014147D01*
X101668228Y-147078297D01*
X101503816Y-147111000D01*
X101336184Y-147111000D01*
X101171772Y-147078297D01*
X101016900Y-147014147D01*
X100877519Y-146921015D01*
X100758985Y-146802481D01*
X100665853Y-146663100D01*
X100601703Y-146508228D01*
X100569000Y-146343816D01*
X100569000Y-146176184D01*
X100601703Y-146011772D01*
X100665853Y-145856900D01*
X100758985Y-145717519D01*
X100877519Y-145598985D01*
X101016900Y-145505853D01*
X101171772Y-145441703D01*
X101336184Y-145409000D01*
X101503816Y-145409000D01*
X101668228Y-145441703D01*
X101668228Y-145441703D01*
G37*
G36*
X129568228Y-144721703D02*
G01*
X129723100Y-144785853D01*
X129862481Y-144878985D01*
X129981015Y-144997519D01*
X130074147Y-145136900D01*
X130138297Y-145291772D01*
X130171000Y-145456184D01*
X130171000Y-145623816D01*
X130138297Y-145788228D01*
X130074147Y-145943100D01*
X129981015Y-146082481D01*
X129862481Y-146201015D01*
X129723100Y-146294147D01*
X129568228Y-146358297D01*
X129403816Y-146391000D01*
X129236184Y-146391000D01*
X129071772Y-146358297D01*
X128916900Y-146294147D01*
X128777519Y-146201015D01*
X128658985Y-146082481D01*
X128565853Y-145943100D01*
X128501703Y-145788228D01*
X128469000Y-145623816D01*
X128469000Y-145456184D01*
X128501703Y-145291772D01*
X128565853Y-145136900D01*
X128658985Y-144997519D01*
X128777519Y-144878985D01*
X128916900Y-144785853D01*
X129071772Y-144721703D01*
X129236184Y-144689000D01*
X129403816Y-144689000D01*
X129568228Y-144721703D01*
X129568228Y-144721703D01*
G37*
G36*
X112468228Y-144541703D02*
G01*
X112623100Y-144605853D01*
X112762481Y-144698985D01*
X112881015Y-144817519D01*
X112974147Y-144956900D01*
X113038297Y-145111772D01*
X113071000Y-145276184D01*
X113071000Y-145443816D01*
X113038297Y-145608228D01*
X112974147Y-145763100D01*
X112881015Y-145902481D01*
X112762481Y-146021015D01*
X112623100Y-146114147D01*
X112468228Y-146178297D01*
X112303816Y-146211000D01*
X112136184Y-146211000D01*
X111971772Y-146178297D01*
X111816900Y-146114147D01*
X111677519Y-146021015D01*
X111558985Y-145902481D01*
X111465853Y-145763100D01*
X111401703Y-145608228D01*
X111369000Y-145443816D01*
X111369000Y-145276184D01*
X111401703Y-145111772D01*
X111465853Y-144956900D01*
X111558985Y-144817519D01*
X111677519Y-144698985D01*
X111816900Y-144605853D01*
X111971772Y-144541703D01*
X112136184Y-144509000D01*
X112303816Y-144509000D01*
X112468228Y-144541703D01*
X112468228Y-144541703D01*
G37*
G36*
X125766823Y-141631313D02*
G01*
X125927242Y-141679976D01*
X126059906Y-141750886D01*
X126075078Y-141758996D01*
X126204659Y-141865341D01*
X126311004Y-141994922D01*
X126311005Y-141994924D01*
X126390024Y-142142758D01*
X126438687Y-142303178D01*
X126451000Y-142428197D01*
X126451000Y-143311804D01*
X126438687Y-143436823D01*
X126390024Y-143597242D01*
X126319114Y-143729906D01*
X126311004Y-143745078D01*
X126204659Y-143874659D01*
X126075077Y-143981005D01*
X125927241Y-144060024D01*
X125766822Y-144108687D01*
X125600000Y-144125117D01*
X125433177Y-144108687D01*
X125272758Y-144060024D01*
X125124924Y-143981005D01*
X125124922Y-143981004D01*
X124995341Y-143874659D01*
X124888995Y-143745077D01*
X124809976Y-143597241D01*
X124761313Y-143436822D01*
X124749000Y-143311803D01*
X124749000Y-142428197D01*
X124761314Y-142303177D01*
X124809977Y-142142758D01*
X124888996Y-141994924D01*
X124888997Y-141994922D01*
X124995342Y-141865341D01*
X125124923Y-141758996D01*
X125140095Y-141750886D01*
X125272759Y-141679976D01*
X125433178Y-141631313D01*
X125600000Y-141614883D01*
X125766823Y-141631313D01*
X125766823Y-141631313D01*
G37*
G36*
X123226823Y-141631313D02*
G01*
X123387242Y-141679976D01*
X123519906Y-141750886D01*
X123535078Y-141758996D01*
X123664659Y-141865341D01*
X123771004Y-141994922D01*
X123771005Y-141994924D01*
X123850024Y-142142758D01*
X123898687Y-142303178D01*
X123911000Y-142428197D01*
X123911000Y-143311804D01*
X123898687Y-143436823D01*
X123850024Y-143597242D01*
X123779114Y-143729906D01*
X123771004Y-143745078D01*
X123664659Y-143874659D01*
X123535077Y-143981005D01*
X123387241Y-144060024D01*
X123226822Y-144108687D01*
X123060000Y-144125117D01*
X122893177Y-144108687D01*
X122732758Y-144060024D01*
X122584924Y-143981005D01*
X122584922Y-143981004D01*
X122455341Y-143874659D01*
X122348995Y-143745077D01*
X122269976Y-143597241D01*
X122221313Y-143436822D01*
X122209000Y-143311803D01*
X122209000Y-142428197D01*
X122221314Y-142303177D01*
X122269977Y-142142758D01*
X122348996Y-141994924D01*
X122348997Y-141994922D01*
X122455342Y-141865341D01*
X122584923Y-141758996D01*
X122600095Y-141750886D01*
X122732759Y-141679976D01*
X122893178Y-141631313D01*
X123060000Y-141614883D01*
X123226823Y-141631313D01*
X123226823Y-141631313D01*
G37*
G36*
X120686823Y-141631313D02*
G01*
X120847242Y-141679976D01*
X120979906Y-141750886D01*
X120995078Y-141758996D01*
X121124659Y-141865341D01*
X121231004Y-141994922D01*
X121231005Y-141994924D01*
X121310024Y-142142758D01*
X121358687Y-142303178D01*
X121371000Y-142428197D01*
X121371000Y-143311804D01*
X121358687Y-143436823D01*
X121310024Y-143597242D01*
X121239114Y-143729906D01*
X121231004Y-143745078D01*
X121124659Y-143874659D01*
X120995077Y-143981005D01*
X120847241Y-144060024D01*
X120686822Y-144108687D01*
X120520000Y-144125117D01*
X120353177Y-144108687D01*
X120192758Y-144060024D01*
X120044924Y-143981005D01*
X120044922Y-143981004D01*
X119915341Y-143874659D01*
X119808995Y-143745077D01*
X119729976Y-143597241D01*
X119681313Y-143436822D01*
X119669000Y-143311803D01*
X119669000Y-142428197D01*
X119681314Y-142303177D01*
X119729977Y-142142758D01*
X119808996Y-141994924D01*
X119808997Y-141994922D01*
X119915342Y-141865341D01*
X120044923Y-141758996D01*
X120060095Y-141750886D01*
X120192759Y-141679976D01*
X120353178Y-141631313D01*
X120520000Y-141614883D01*
X120686823Y-141631313D01*
X120686823Y-141631313D01*
G37*
G36*
X118146823Y-141631313D02*
G01*
X118307242Y-141679976D01*
X118439906Y-141750886D01*
X118455078Y-141758996D01*
X118584659Y-141865341D01*
X118691004Y-141994922D01*
X118691005Y-141994924D01*
X118770024Y-142142758D01*
X118818687Y-142303178D01*
X118831000Y-142428197D01*
X118831000Y-143311804D01*
X118818687Y-143436823D01*
X118770024Y-143597242D01*
X118699114Y-143729906D01*
X118691004Y-143745078D01*
X118584659Y-143874659D01*
X118455077Y-143981005D01*
X118307241Y-144060024D01*
X118146822Y-144108687D01*
X117980000Y-144125117D01*
X117813177Y-144108687D01*
X117652758Y-144060024D01*
X117504924Y-143981005D01*
X117504922Y-143981004D01*
X117375341Y-143874659D01*
X117268995Y-143745077D01*
X117189976Y-143597241D01*
X117141313Y-143436822D01*
X117129000Y-143311803D01*
X117129000Y-142428197D01*
X117141314Y-142303177D01*
X117189977Y-142142758D01*
X117268996Y-141994924D01*
X117268997Y-141994922D01*
X117375342Y-141865341D01*
X117504923Y-141758996D01*
X117520095Y-141750886D01*
X117652759Y-141679976D01*
X117813178Y-141631313D01*
X117980000Y-141614883D01*
X118146823Y-141631313D01*
X118146823Y-141631313D01*
G37*
G36*
X107988228Y-141531703D02*
G01*
X108143100Y-141595853D01*
X108282481Y-141688985D01*
X108401015Y-141807519D01*
X108494147Y-141946900D01*
X108558297Y-142101772D01*
X108591000Y-142266184D01*
X108591000Y-142433816D01*
X108558297Y-142598228D01*
X108494147Y-142753100D01*
X108401015Y-142892481D01*
X108282481Y-143011015D01*
X108143100Y-143104147D01*
X107988228Y-143168297D01*
X107823816Y-143201000D01*
X107656184Y-143201000D01*
X107491772Y-143168297D01*
X107336900Y-143104147D01*
X107197519Y-143011015D01*
X107078985Y-142892481D01*
X106985853Y-142753100D01*
X106921703Y-142598228D01*
X106889000Y-142433816D01*
X106889000Y-142266184D01*
X106921703Y-142101772D01*
X106985853Y-141946900D01*
X107078985Y-141807519D01*
X107197519Y-141688985D01*
X107336900Y-141595853D01*
X107491772Y-141531703D01*
X107656184Y-141499000D01*
X107823816Y-141499000D01*
X107988228Y-141531703D01*
X107988228Y-141531703D01*
G37*
G36*
X90117395Y-140295546D02*
G01*
X90290466Y-140367234D01*
X90367818Y-140418919D01*
X90446227Y-140471310D01*
X90578690Y-140603773D01*
X90578691Y-140603775D01*
X90682766Y-140759534D01*
X90754454Y-140932605D01*
X90791000Y-141116333D01*
X90791000Y-141303667D01*
X90754454Y-141487395D01*
X90682766Y-141660466D01*
X90663710Y-141688985D01*
X90578690Y-141816227D01*
X90446227Y-141948690D01*
X90377036Y-141994922D01*
X90290466Y-142052766D01*
X90117395Y-142124454D01*
X89933667Y-142161000D01*
X89746333Y-142161000D01*
X89562605Y-142124454D01*
X89389534Y-142052766D01*
X89302964Y-141994922D01*
X89233773Y-141948690D01*
X89101310Y-141816227D01*
X89016290Y-141688985D01*
X88997234Y-141660466D01*
X88925546Y-141487395D01*
X88889000Y-141303667D01*
X88889000Y-141116333D01*
X88925546Y-140932605D01*
X88997234Y-140759534D01*
X89101309Y-140603775D01*
X89101310Y-140603773D01*
X89233773Y-140471310D01*
X89312182Y-140418919D01*
X89389534Y-140367234D01*
X89562605Y-140295546D01*
X89746333Y-140259000D01*
X89933667Y-140259000D01*
X90117395Y-140295546D01*
X90117395Y-140295546D01*
G37*
G36*
X100122382Y-140412271D02*
G01*
X100254893Y-140438629D01*
X100395206Y-140496748D01*
X100521484Y-140581125D01*
X100628875Y-140688516D01*
X100713252Y-140814794D01*
X100771371Y-140955107D01*
X100801000Y-141104063D01*
X100801000Y-141255937D01*
X100771371Y-141404893D01*
X100713252Y-141545206D01*
X100628875Y-141671484D01*
X100521484Y-141778875D01*
X100395206Y-141863252D01*
X100254893Y-141921371D01*
X100155589Y-141941124D01*
X100105938Y-141951000D01*
X99954062Y-141951000D01*
X99904411Y-141941124D01*
X99805107Y-141921371D01*
X99664794Y-141863252D01*
X99538516Y-141778875D01*
X99431125Y-141671484D01*
X99346748Y-141545206D01*
X99288629Y-141404893D01*
X99259000Y-141255937D01*
X99259000Y-141104063D01*
X99288629Y-140955107D01*
X99346748Y-140814794D01*
X99431125Y-140688516D01*
X99538516Y-140581125D01*
X99664794Y-140496748D01*
X99805107Y-140438629D01*
X99937618Y-140412271D01*
X99954062Y-140409000D01*
X100105938Y-140409000D01*
X100122382Y-140412271D01*
X100122382Y-140412271D01*
G37*
G36*
X97582382Y-140412271D02*
G01*
X97714893Y-140438629D01*
X97855206Y-140496748D01*
X97981484Y-140581125D01*
X98088875Y-140688516D01*
X98173252Y-140814794D01*
X98231371Y-140955107D01*
X98261000Y-141104063D01*
X98261000Y-141255937D01*
X98231371Y-141404893D01*
X98173252Y-141545206D01*
X98088875Y-141671484D01*
X97981484Y-141778875D01*
X97855206Y-141863252D01*
X97714893Y-141921371D01*
X97615589Y-141941124D01*
X97565938Y-141951000D01*
X97414062Y-141951000D01*
X97364411Y-141941124D01*
X97265107Y-141921371D01*
X97124794Y-141863252D01*
X96998516Y-141778875D01*
X96891125Y-141671484D01*
X96806748Y-141545206D01*
X96748629Y-141404893D01*
X96719000Y-141255937D01*
X96719000Y-141104063D01*
X96748629Y-140955107D01*
X96806748Y-140814794D01*
X96891125Y-140688516D01*
X96998516Y-140581125D01*
X97124794Y-140496748D01*
X97265107Y-140438629D01*
X97397618Y-140412271D01*
X97414062Y-140409000D01*
X97565938Y-140409000D01*
X97582382Y-140412271D01*
X97582382Y-140412271D01*
G37*
G36*
X102662382Y-140412271D02*
G01*
X102794893Y-140438629D01*
X102935206Y-140496748D01*
X103061484Y-140581125D01*
X103168875Y-140688516D01*
X103253252Y-140814794D01*
X103311371Y-140955107D01*
X103341000Y-141104063D01*
X103341000Y-141255937D01*
X103311371Y-141404893D01*
X103253252Y-141545206D01*
X103168875Y-141671484D01*
X103061484Y-141778875D01*
X102935206Y-141863252D01*
X102794893Y-141921371D01*
X102695589Y-141941124D01*
X102645938Y-141951000D01*
X102494062Y-141951000D01*
X102444411Y-141941124D01*
X102345107Y-141921371D01*
X102204794Y-141863252D01*
X102078516Y-141778875D01*
X101971125Y-141671484D01*
X101886748Y-141545206D01*
X101828629Y-141404893D01*
X101799000Y-141255937D01*
X101799000Y-141104063D01*
X101828629Y-140955107D01*
X101886748Y-140814794D01*
X101971125Y-140688516D01*
X102078516Y-140581125D01*
X102204794Y-140496748D01*
X102345107Y-140438629D01*
X102477618Y-140412271D01*
X102494062Y-140409000D01*
X102645938Y-140409000D01*
X102662382Y-140412271D01*
X102662382Y-140412271D01*
G37*
G36*
X112935589Y-140178876D02*
G01*
X113034893Y-140198629D01*
X113175206Y-140256748D01*
X113301484Y-140341125D01*
X113408875Y-140448516D01*
X113493252Y-140574794D01*
X113551371Y-140715107D01*
X113581000Y-140864063D01*
X113581000Y-141015937D01*
X113551371Y-141164893D01*
X113493252Y-141305206D01*
X113408875Y-141431484D01*
X113301484Y-141538875D01*
X113175206Y-141623252D01*
X113034893Y-141681371D01*
X112935589Y-141701124D01*
X112885938Y-141711000D01*
X112734062Y-141711000D01*
X112684411Y-141701124D01*
X112585107Y-141681371D01*
X112444794Y-141623252D01*
X112318516Y-141538875D01*
X112211125Y-141431484D01*
X112126748Y-141305206D01*
X112068629Y-141164893D01*
X112039000Y-141015937D01*
X112039000Y-140864063D01*
X112068629Y-140715107D01*
X112126748Y-140574794D01*
X112211125Y-140448516D01*
X112318516Y-140341125D01*
X112444794Y-140256748D01*
X112585107Y-140198629D01*
X112684411Y-140178876D01*
X112734062Y-140169000D01*
X112885938Y-140169000D01*
X112935589Y-140178876D01*
X112935589Y-140178876D01*
G37*
G36*
X135061000Y-140891000D02*
G01*
X131459000Y-140891000D01*
X131459000Y-137289000D01*
X135061000Y-137289000D01*
X135061000Y-140891000D01*
X135061000Y-140891000D01*
G37*
G36*
X140236979Y-137303293D02*
G01*
X140370625Y-137343834D01*
X140493784Y-137409664D01*
X140601740Y-137498260D01*
X140690336Y-137606216D01*
X140756166Y-137729375D01*
X140796707Y-137863021D01*
X140811000Y-138008140D01*
X140811000Y-140171860D01*
X140796707Y-140316979D01*
X140756166Y-140450625D01*
X140690336Y-140573784D01*
X140601740Y-140681740D01*
X140493784Y-140770336D01*
X140370625Y-140836166D01*
X140236979Y-140876707D01*
X140091860Y-140891000D01*
X138428140Y-140891000D01*
X138283021Y-140876707D01*
X138149375Y-140836166D01*
X138026216Y-140770336D01*
X137918260Y-140681740D01*
X137829664Y-140573784D01*
X137763834Y-140450625D01*
X137723293Y-140316979D01*
X137709000Y-140171860D01*
X137709000Y-138008140D01*
X137723293Y-137863021D01*
X137763834Y-137729375D01*
X137829664Y-137606216D01*
X137918260Y-137498260D01*
X138026216Y-137409664D01*
X138149375Y-137343834D01*
X138283021Y-137303293D01*
X138428140Y-137289000D01*
X140091860Y-137289000D01*
X140236979Y-137303293D01*
X140236979Y-137303293D01*
G37*
G36*
X90791000Y-139621000D02*
G01*
X88889000Y-139621000D01*
X88889000Y-137719000D01*
X90791000Y-137719000D01*
X90791000Y-139621000D01*
X90791000Y-139621000D01*
G37*
G36*
X112935589Y-137638876D02*
G01*
X113034893Y-137658629D01*
X113175206Y-137716748D01*
X113301484Y-137801125D01*
X113408875Y-137908516D01*
X113493252Y-138034794D01*
X113551371Y-138175107D01*
X113581000Y-138324063D01*
X113581000Y-138475937D01*
X113551371Y-138624893D01*
X113493252Y-138765206D01*
X113408875Y-138891484D01*
X113301484Y-138998875D01*
X113175206Y-139083252D01*
X113034893Y-139141371D01*
X112935589Y-139161124D01*
X112885938Y-139171000D01*
X112734062Y-139171000D01*
X112684411Y-139161124D01*
X112585107Y-139141371D01*
X112444794Y-139083252D01*
X112318516Y-138998875D01*
X112211125Y-138891484D01*
X112126748Y-138765206D01*
X112068629Y-138624893D01*
X112039000Y-138475937D01*
X112039000Y-138324063D01*
X112068629Y-138175107D01*
X112126748Y-138034794D01*
X112211125Y-137908516D01*
X112318516Y-137801125D01*
X112444794Y-137716748D01*
X112585107Y-137658629D01*
X112684411Y-137638876D01*
X112734062Y-137629000D01*
X112885938Y-137629000D01*
X112935589Y-137638876D01*
X112935589Y-137638876D01*
G37*
G36*
X129486823Y-137081313D02*
G01*
X129647242Y-137129976D01*
X129779906Y-137200886D01*
X129795078Y-137208996D01*
X129924659Y-137315341D01*
X130031004Y-137444922D01*
X130031005Y-137444924D01*
X130110024Y-137592758D01*
X130110025Y-137592761D01*
X130119083Y-137622620D01*
X130158687Y-137753177D01*
X130175117Y-137920000D01*
X130158687Y-138086823D01*
X130110024Y-138247242D01*
X130068963Y-138324062D01*
X130031004Y-138395078D01*
X129924659Y-138524659D01*
X129795078Y-138631004D01*
X129795076Y-138631005D01*
X129647242Y-138710024D01*
X129486823Y-138758687D01*
X129361804Y-138771000D01*
X129278196Y-138771000D01*
X129153177Y-138758687D01*
X128992758Y-138710024D01*
X128844924Y-138631005D01*
X128844922Y-138631004D01*
X128715341Y-138524659D01*
X128608996Y-138395078D01*
X128571037Y-138324062D01*
X128529976Y-138247242D01*
X128481313Y-138086823D01*
X128464883Y-137920000D01*
X128481313Y-137753177D01*
X128520917Y-137622620D01*
X128529975Y-137592761D01*
X128529976Y-137592758D01*
X128608995Y-137444924D01*
X128608996Y-137444922D01*
X128715341Y-137315341D01*
X128844922Y-137208996D01*
X128860094Y-137200886D01*
X128992758Y-137129976D01*
X129153177Y-137081313D01*
X129278196Y-137069000D01*
X129361804Y-137069000D01*
X129486823Y-137081313D01*
X129486823Y-137081313D01*
G37*
G36*
X107866823Y-136391313D02*
G01*
X108027242Y-136439976D01*
X108141410Y-136501000D01*
X108175078Y-136518996D01*
X108304659Y-136625341D01*
X108411004Y-136754922D01*
X108411005Y-136754924D01*
X108490024Y-136902758D01*
X108538687Y-137063177D01*
X108555117Y-137230000D01*
X108538687Y-137396823D01*
X108490024Y-137557242D01*
X108449180Y-137633655D01*
X108411004Y-137705078D01*
X108304659Y-137834659D01*
X108175078Y-137941004D01*
X108175076Y-137941005D01*
X108027242Y-138020024D01*
X107866823Y-138068687D01*
X107741804Y-138081000D01*
X107658196Y-138081000D01*
X107533177Y-138068687D01*
X107372758Y-138020024D01*
X107224924Y-137941005D01*
X107224922Y-137941004D01*
X107095341Y-137834659D01*
X106988996Y-137705078D01*
X106950820Y-137633655D01*
X106909976Y-137557242D01*
X106861313Y-137396823D01*
X106844883Y-137230000D01*
X106861313Y-137063177D01*
X106909976Y-136902758D01*
X106988995Y-136754924D01*
X106988996Y-136754922D01*
X107095341Y-136625341D01*
X107224922Y-136518996D01*
X107258590Y-136501000D01*
X107372758Y-136439976D01*
X107533177Y-136391313D01*
X107658196Y-136379000D01*
X107741804Y-136379000D01*
X107866823Y-136391313D01*
X107866823Y-136391313D01*
G37*
G36*
X96676823Y-135341313D02*
G01*
X96837242Y-135389976D01*
X96969906Y-135460886D01*
X96985078Y-135468996D01*
X97114659Y-135575341D01*
X97221004Y-135704922D01*
X97221005Y-135704924D01*
X97300024Y-135852758D01*
X97348687Y-136013177D01*
X97365117Y-136180000D01*
X97348687Y-136346823D01*
X97300024Y-136507242D01*
X97293741Y-136518996D01*
X97221004Y-136655078D01*
X97114659Y-136784659D01*
X96985078Y-136891004D01*
X96985076Y-136891005D01*
X96837242Y-136970024D01*
X96676823Y-137018687D01*
X96551804Y-137031000D01*
X95668196Y-137031000D01*
X95543177Y-137018687D01*
X95382758Y-136970024D01*
X95234924Y-136891005D01*
X95234922Y-136891004D01*
X95105341Y-136784659D01*
X94998996Y-136655078D01*
X94926259Y-136518996D01*
X94919976Y-136507242D01*
X94871313Y-136346823D01*
X94854883Y-136180000D01*
X94871313Y-136013177D01*
X94919976Y-135852758D01*
X94998995Y-135704924D01*
X94998996Y-135704922D01*
X95105341Y-135575341D01*
X95234922Y-135468996D01*
X95250094Y-135460886D01*
X95382758Y-135389976D01*
X95543177Y-135341313D01*
X95668196Y-135329000D01*
X96551804Y-135329000D01*
X96676823Y-135341313D01*
X96676823Y-135341313D01*
G37*
G36*
X104296823Y-135341313D02*
G01*
X104457242Y-135389976D01*
X104589906Y-135460886D01*
X104605078Y-135468996D01*
X104734659Y-135575341D01*
X104841004Y-135704922D01*
X104841005Y-135704924D01*
X104920024Y-135852758D01*
X104968687Y-136013177D01*
X104985117Y-136180000D01*
X104968687Y-136346823D01*
X104920024Y-136507242D01*
X104913741Y-136518996D01*
X104841004Y-136655078D01*
X104734659Y-136784659D01*
X104605078Y-136891004D01*
X104605076Y-136891005D01*
X104457242Y-136970024D01*
X104296823Y-137018687D01*
X104171804Y-137031000D01*
X103288196Y-137031000D01*
X103163177Y-137018687D01*
X103002758Y-136970024D01*
X102854924Y-136891005D01*
X102854922Y-136891004D01*
X102725341Y-136784659D01*
X102618996Y-136655078D01*
X102546259Y-136518996D01*
X102539976Y-136507242D01*
X102491313Y-136346823D01*
X102474883Y-136180000D01*
X102491313Y-136013177D01*
X102539976Y-135852758D01*
X102618995Y-135704924D01*
X102618996Y-135704922D01*
X102725341Y-135575341D01*
X102854922Y-135468996D01*
X102870094Y-135460886D01*
X103002758Y-135389976D01*
X103163177Y-135341313D01*
X103288196Y-135329000D01*
X104171804Y-135329000D01*
X104296823Y-135341313D01*
X104296823Y-135341313D01*
G37*
G36*
X112935589Y-135098876D02*
G01*
X113034893Y-135118629D01*
X113175206Y-135176748D01*
X113301484Y-135261125D01*
X113408875Y-135368516D01*
X113493252Y-135494794D01*
X113551371Y-135635107D01*
X113581000Y-135784063D01*
X113581000Y-135935937D01*
X113551371Y-136084893D01*
X113493252Y-136225206D01*
X113408875Y-136351484D01*
X113301484Y-136458875D01*
X113175206Y-136543252D01*
X113034893Y-136601371D01*
X112935589Y-136621124D01*
X112885938Y-136631000D01*
X112734062Y-136631000D01*
X112684411Y-136621124D01*
X112585107Y-136601371D01*
X112444794Y-136543252D01*
X112318516Y-136458875D01*
X112211125Y-136351484D01*
X112126748Y-136225206D01*
X112068629Y-136084893D01*
X112039000Y-135935937D01*
X112039000Y-135784063D01*
X112068629Y-135635107D01*
X112126748Y-135494794D01*
X112211125Y-135368516D01*
X112318516Y-135261125D01*
X112444794Y-135176748D01*
X112585107Y-135118629D01*
X112684411Y-135098876D01*
X112734062Y-135089000D01*
X112885938Y-135089000D01*
X112935589Y-135098876D01*
X112935589Y-135098876D01*
G37*
G36*
X120686823Y-134011313D02*
G01*
X120847242Y-134059976D01*
X120950330Y-134115078D01*
X120995078Y-134138996D01*
X121124659Y-134245341D01*
X121231004Y-134374922D01*
X121231005Y-134374924D01*
X121310024Y-134522758D01*
X121358687Y-134683178D01*
X121371000Y-134808197D01*
X121371000Y-135691804D01*
X121358687Y-135816823D01*
X121310024Y-135977242D01*
X121252484Y-136084891D01*
X121231004Y-136125078D01*
X121124659Y-136254659D01*
X120995077Y-136361005D01*
X120847241Y-136440024D01*
X120686822Y-136488687D01*
X120520000Y-136505117D01*
X120353177Y-136488687D01*
X120192758Y-136440024D01*
X120044924Y-136361005D01*
X120044922Y-136361004D01*
X119915341Y-136254659D01*
X119808995Y-136125077D01*
X119729976Y-135977241D01*
X119681313Y-135816822D01*
X119669000Y-135691803D01*
X119669000Y-134808197D01*
X119681314Y-134683177D01*
X119729977Y-134522758D01*
X119808996Y-134374924D01*
X119808997Y-134374922D01*
X119915342Y-134245341D01*
X120044923Y-134138996D01*
X120089671Y-134115078D01*
X120192759Y-134059976D01*
X120353178Y-134011313D01*
X120520000Y-133994883D01*
X120686823Y-134011313D01*
X120686823Y-134011313D01*
G37*
G36*
X118146823Y-134011313D02*
G01*
X118307242Y-134059976D01*
X118410330Y-134115078D01*
X118455078Y-134138996D01*
X118584659Y-134245341D01*
X118691004Y-134374922D01*
X118691005Y-134374924D01*
X118770024Y-134522758D01*
X118818687Y-134683178D01*
X118831000Y-134808197D01*
X118831000Y-135691804D01*
X118818687Y-135816823D01*
X118770024Y-135977242D01*
X118712484Y-136084891D01*
X118691004Y-136125078D01*
X118584659Y-136254659D01*
X118455077Y-136361005D01*
X118307241Y-136440024D01*
X118146822Y-136488687D01*
X117980000Y-136505117D01*
X117813177Y-136488687D01*
X117652758Y-136440024D01*
X117504924Y-136361005D01*
X117504922Y-136361004D01*
X117375341Y-136254659D01*
X117268995Y-136125077D01*
X117189976Y-135977241D01*
X117141313Y-135816822D01*
X117129000Y-135691803D01*
X117129000Y-134808197D01*
X117141314Y-134683177D01*
X117189977Y-134522758D01*
X117268996Y-134374924D01*
X117268997Y-134374922D01*
X117375342Y-134245341D01*
X117504923Y-134138996D01*
X117549671Y-134115078D01*
X117652759Y-134059976D01*
X117813178Y-134011313D01*
X117980000Y-133994883D01*
X118146823Y-134011313D01*
X118146823Y-134011313D01*
G37*
G36*
X123226823Y-134011313D02*
G01*
X123387242Y-134059976D01*
X123490330Y-134115078D01*
X123535078Y-134138996D01*
X123664659Y-134245341D01*
X123771004Y-134374922D01*
X123771005Y-134374924D01*
X123850024Y-134522758D01*
X123898687Y-134683178D01*
X123911000Y-134808197D01*
X123911000Y-135691804D01*
X123898687Y-135816823D01*
X123850024Y-135977242D01*
X123792484Y-136084891D01*
X123771004Y-136125078D01*
X123664659Y-136254659D01*
X123535077Y-136361005D01*
X123387241Y-136440024D01*
X123226822Y-136488687D01*
X123060000Y-136505117D01*
X122893177Y-136488687D01*
X122732758Y-136440024D01*
X122584924Y-136361005D01*
X122584922Y-136361004D01*
X122455341Y-136254659D01*
X122348995Y-136125077D01*
X122269976Y-135977241D01*
X122221313Y-135816822D01*
X122209000Y-135691803D01*
X122209000Y-134808197D01*
X122221314Y-134683177D01*
X122269977Y-134522758D01*
X122348996Y-134374924D01*
X122348997Y-134374922D01*
X122455342Y-134245341D01*
X122584923Y-134138996D01*
X122629671Y-134115078D01*
X122732759Y-134059976D01*
X122893178Y-134011313D01*
X123060000Y-133994883D01*
X123226823Y-134011313D01*
X123226823Y-134011313D01*
G37*
G36*
X126451000Y-136501000D02*
G01*
X124749000Y-136501000D01*
X124749000Y-133999000D01*
X126451000Y-133999000D01*
X126451000Y-136501000D01*
X126451000Y-136501000D01*
G37*
G36*
X137386366Y-132605695D02*
G01*
X137543460Y-132653349D01*
X137688231Y-132730731D01*
X137815128Y-132834872D01*
X137919269Y-132961769D01*
X137996651Y-133106540D01*
X138044305Y-133263634D01*
X138061000Y-133433140D01*
X138061000Y-135346860D01*
X138044305Y-135516366D01*
X137996651Y-135673460D01*
X137919269Y-135818231D01*
X137815128Y-135945128D01*
X137688231Y-136049269D01*
X137543460Y-136126651D01*
X137386366Y-136174305D01*
X137216860Y-136191000D01*
X135303140Y-136191000D01*
X135133634Y-136174305D01*
X134976540Y-136126651D01*
X134831769Y-136049269D01*
X134704872Y-135945128D01*
X134600731Y-135818231D01*
X134523349Y-135673460D01*
X134475695Y-135516366D01*
X134459000Y-135346860D01*
X134459000Y-133433140D01*
X134475695Y-133263634D01*
X134523349Y-133106540D01*
X134600731Y-132961769D01*
X134704872Y-132834872D01*
X134831769Y-132730731D01*
X134976540Y-132653349D01*
X135133634Y-132605695D01*
X135303140Y-132589000D01*
X137216860Y-132589000D01*
X137386366Y-132605695D01*
X137386366Y-132605695D01*
G37*
G36*
X104296823Y-132801313D02*
G01*
X104457242Y-132849976D01*
X104589906Y-132920886D01*
X104605078Y-132928996D01*
X104734659Y-133035341D01*
X104841004Y-133164922D01*
X104841005Y-133164924D01*
X104920024Y-133312758D01*
X104920025Y-133312761D01*
X104929083Y-133342620D01*
X104968687Y-133473177D01*
X104985117Y-133640000D01*
X104968687Y-133806823D01*
X104920024Y-133967242D01*
X104849114Y-134099906D01*
X104841004Y-134115078D01*
X104734659Y-134244659D01*
X104605078Y-134351004D01*
X104605076Y-134351005D01*
X104457242Y-134430024D01*
X104296823Y-134478687D01*
X104171804Y-134491000D01*
X103288196Y-134491000D01*
X103163177Y-134478687D01*
X103002758Y-134430024D01*
X102854924Y-134351005D01*
X102854922Y-134351004D01*
X102725341Y-134244659D01*
X102618996Y-134115078D01*
X102610886Y-134099906D01*
X102539976Y-133967242D01*
X102491313Y-133806823D01*
X102474883Y-133640000D01*
X102491313Y-133473177D01*
X102530917Y-133342620D01*
X102539975Y-133312761D01*
X102539976Y-133312758D01*
X102618995Y-133164924D01*
X102618996Y-133164922D01*
X102725341Y-133035341D01*
X102854922Y-132928996D01*
X102870094Y-132920886D01*
X103002758Y-132849976D01*
X103163177Y-132801313D01*
X103288196Y-132789000D01*
X104171804Y-132789000D01*
X104296823Y-132801313D01*
X104296823Y-132801313D01*
G37*
G36*
X96676823Y-132801313D02*
G01*
X96837242Y-132849976D01*
X96969906Y-132920886D01*
X96985078Y-132928996D01*
X97114659Y-133035341D01*
X97221004Y-133164922D01*
X97221005Y-133164924D01*
X97300024Y-133312758D01*
X97300025Y-133312761D01*
X97309083Y-133342620D01*
X97348687Y-133473177D01*
X97365117Y-133640000D01*
X97348687Y-133806823D01*
X97300024Y-133967242D01*
X97229114Y-134099906D01*
X97221004Y-134115078D01*
X97114659Y-134244659D01*
X96985078Y-134351004D01*
X96985076Y-134351005D01*
X96837242Y-134430024D01*
X96676823Y-134478687D01*
X96551804Y-134491000D01*
X95668196Y-134491000D01*
X95543177Y-134478687D01*
X95382758Y-134430024D01*
X95234924Y-134351005D01*
X95234922Y-134351004D01*
X95105341Y-134244659D01*
X94998996Y-134115078D01*
X94990886Y-134099906D01*
X94919976Y-133967242D01*
X94871313Y-133806823D01*
X94854883Y-133640000D01*
X94871313Y-133473177D01*
X94910917Y-133342620D01*
X94919975Y-133312761D01*
X94919976Y-133312758D01*
X94998995Y-133164924D01*
X94998996Y-133164922D01*
X95105341Y-133035341D01*
X95234922Y-132928996D01*
X95250094Y-132920886D01*
X95382758Y-132849976D01*
X95543177Y-132801313D01*
X95668196Y-132789000D01*
X96551804Y-132789000D01*
X96676823Y-132801313D01*
X96676823Y-132801313D01*
G37*
G36*
X113606425Y-130182760D02*
G01*
X113606428Y-130182761D01*
X113606429Y-130182761D01*
X113785693Y-130237140D01*
X113785696Y-130237142D01*
X113785697Y-130237142D01*
X113950903Y-130325446D01*
X114095712Y-130444288D01*
X114214554Y-130589097D01*
X114302858Y-130754303D01*
X114302860Y-130754307D01*
X114339306Y-130874454D01*
X114357240Y-130933575D01*
X114375601Y-131120000D01*
X114357240Y-131306425D01*
X114357239Y-131306428D01*
X114357239Y-131306429D01*
X114302860Y-131485693D01*
X114302858Y-131485696D01*
X114302858Y-131485697D01*
X114214554Y-131650903D01*
X114095712Y-131795712D01*
X113950903Y-131914554D01*
X113785697Y-132002858D01*
X113785693Y-132002860D01*
X113606429Y-132057239D01*
X113606428Y-132057239D01*
X113606425Y-132057240D01*
X113466718Y-132071000D01*
X113373282Y-132071000D01*
X113233575Y-132057240D01*
X113233572Y-132057239D01*
X113233571Y-132057239D01*
X113054307Y-132002860D01*
X113054303Y-132002858D01*
X112889097Y-131914554D01*
X112744288Y-131795712D01*
X112625446Y-131650903D01*
X112537142Y-131485697D01*
X112537142Y-131485696D01*
X112537140Y-131485693D01*
X112482761Y-131306429D01*
X112482761Y-131306428D01*
X112482760Y-131306425D01*
X112464399Y-131120000D01*
X112482760Y-130933575D01*
X112500694Y-130874454D01*
X112537140Y-130754307D01*
X112537142Y-130754303D01*
X112625446Y-130589097D01*
X112744288Y-130444288D01*
X112889097Y-130325446D01*
X113054303Y-130237142D01*
X113054304Y-130237142D01*
X113054307Y-130237140D01*
X113233571Y-130182761D01*
X113233572Y-130182761D01*
X113233575Y-130182760D01*
X113373282Y-130169000D01*
X113466718Y-130169000D01*
X113606425Y-130182760D01*
X113606425Y-130182760D01*
G37*
G36*
X96676823Y-130261313D02*
G01*
X96837242Y-130309976D01*
X96969906Y-130380886D01*
X96985078Y-130388996D01*
X97114659Y-130495341D01*
X97221004Y-130624922D01*
X97221005Y-130624924D01*
X97300024Y-130772758D01*
X97348687Y-130933177D01*
X97365117Y-131100000D01*
X97348687Y-131266823D01*
X97300024Y-131427242D01*
X97268781Y-131485693D01*
X97221004Y-131575078D01*
X97114659Y-131704659D01*
X96985078Y-131811004D01*
X96985076Y-131811005D01*
X96837242Y-131890024D01*
X96676823Y-131938687D01*
X96551804Y-131951000D01*
X95668196Y-131951000D01*
X95543177Y-131938687D01*
X95382758Y-131890024D01*
X95234924Y-131811005D01*
X95234922Y-131811004D01*
X95105341Y-131704659D01*
X94998996Y-131575078D01*
X94951219Y-131485693D01*
X94919976Y-131427242D01*
X94871313Y-131266823D01*
X94854883Y-131100000D01*
X94871313Y-130933177D01*
X94919976Y-130772758D01*
X94998995Y-130624924D01*
X94998996Y-130624922D01*
X95105341Y-130495341D01*
X95234922Y-130388996D01*
X95250094Y-130380886D01*
X95382758Y-130309976D01*
X95543177Y-130261313D01*
X95668196Y-130249000D01*
X96551804Y-130249000D01*
X96676823Y-130261313D01*
X96676823Y-130261313D01*
G37*
G36*
X104296823Y-130261313D02*
G01*
X104457242Y-130309976D01*
X104589906Y-130380886D01*
X104605078Y-130388996D01*
X104734659Y-130495341D01*
X104841004Y-130624922D01*
X104841005Y-130624924D01*
X104920024Y-130772758D01*
X104968687Y-130933177D01*
X104985117Y-131100000D01*
X104968687Y-131266823D01*
X104920024Y-131427242D01*
X104888781Y-131485693D01*
X104841004Y-131575078D01*
X104734659Y-131704659D01*
X104605078Y-131811004D01*
X104605076Y-131811005D01*
X104457242Y-131890024D01*
X104296823Y-131938687D01*
X104171804Y-131951000D01*
X103288196Y-131951000D01*
X103163177Y-131938687D01*
X103002758Y-131890024D01*
X102854924Y-131811005D01*
X102854922Y-131811004D01*
X102725341Y-131704659D01*
X102618996Y-131575078D01*
X102571219Y-131485693D01*
X102539976Y-131427242D01*
X102491313Y-131266823D01*
X102474883Y-131100000D01*
X102491313Y-130933177D01*
X102539976Y-130772758D01*
X102618995Y-130624924D01*
X102618996Y-130624922D01*
X102725341Y-130495341D01*
X102854922Y-130388996D01*
X102870094Y-130380886D01*
X103002758Y-130309976D01*
X103163177Y-130261313D01*
X103288196Y-130249000D01*
X104171804Y-130249000D01*
X104296823Y-130261313D01*
X104296823Y-130261313D01*
G37*
G36*
X132732585Y-128318802D02*
G01*
X132882410Y-128348604D01*
X133164674Y-128465521D01*
X133418705Y-128635259D01*
X133634741Y-128851295D01*
X133804479Y-129105326D01*
X133921396Y-129387590D01*
X133981000Y-129687240D01*
X133981000Y-129992760D01*
X133921396Y-130292410D01*
X133804479Y-130574674D01*
X133634741Y-130828705D01*
X133418705Y-131044741D01*
X133164674Y-131214479D01*
X132882410Y-131331396D01*
X132732585Y-131361198D01*
X132582761Y-131391000D01*
X132277239Y-131391000D01*
X132127415Y-131361198D01*
X131977590Y-131331396D01*
X131695326Y-131214479D01*
X131441295Y-131044741D01*
X131225259Y-130828705D01*
X131055521Y-130574674D01*
X130938604Y-130292410D01*
X130879000Y-129992760D01*
X130879000Y-129687240D01*
X130938604Y-129387590D01*
X131055521Y-129105326D01*
X131225259Y-128851295D01*
X131441295Y-128635259D01*
X131695326Y-128465521D01*
X131977590Y-128348604D01*
X132127415Y-128318802D01*
X132277239Y-128289000D01*
X132582761Y-128289000D01*
X132732585Y-128318802D01*
X132732585Y-128318802D01*
G37*
G36*
X120609487Y-128588996D02*
G01*
X120846253Y-128687068D01*
X120846255Y-128687069D01*
X121059339Y-128829447D01*
X121240553Y-129010661D01*
X121371678Y-129206903D01*
X121382932Y-129223747D01*
X121481004Y-129460513D01*
X121531000Y-129711861D01*
X121531000Y-129968139D01*
X121481004Y-130219487D01*
X121394512Y-130428297D01*
X121382931Y-130456255D01*
X121240553Y-130669339D01*
X121059339Y-130850553D01*
X120846255Y-130992931D01*
X120846254Y-130992932D01*
X120846253Y-130992932D01*
X120609487Y-131091004D01*
X120358139Y-131141000D01*
X120101861Y-131141000D01*
X119850513Y-131091004D01*
X119613747Y-130992932D01*
X119613746Y-130992932D01*
X119613745Y-130992931D01*
X119400661Y-130850553D01*
X119219447Y-130669339D01*
X119077069Y-130456255D01*
X119065488Y-130428297D01*
X118978996Y-130219487D01*
X118929000Y-129968139D01*
X118929000Y-129711861D01*
X118978996Y-129460513D01*
X119077068Y-129223747D01*
X119088323Y-129206903D01*
X119219447Y-129010661D01*
X119400661Y-128829447D01*
X119613745Y-128687069D01*
X119613747Y-128687068D01*
X119850513Y-128588996D01*
X120101861Y-128539000D01*
X120358139Y-128539000D01*
X120609487Y-128588996D01*
X120609487Y-128588996D01*
G37*
G36*
X90117395Y-129045546D02*
G01*
X90290466Y-129117234D01*
X90290467Y-129117235D01*
X90446227Y-129221310D01*
X90578690Y-129353773D01*
X90601286Y-129387591D01*
X90682766Y-129509534D01*
X90754454Y-129682605D01*
X90791000Y-129866333D01*
X90791000Y-130053667D01*
X90754454Y-130237395D01*
X90682766Y-130410466D01*
X90660167Y-130444288D01*
X90578690Y-130566227D01*
X90446227Y-130698690D01*
X90367818Y-130751081D01*
X90290466Y-130802766D01*
X90117395Y-130874454D01*
X89933667Y-130911000D01*
X89746333Y-130911000D01*
X89562605Y-130874454D01*
X89389534Y-130802766D01*
X89312182Y-130751081D01*
X89233773Y-130698690D01*
X89101310Y-130566227D01*
X89019833Y-130444288D01*
X88997234Y-130410466D01*
X88925546Y-130237395D01*
X88889000Y-130053667D01*
X88889000Y-129866333D01*
X88925546Y-129682605D01*
X88997234Y-129509534D01*
X89078714Y-129387591D01*
X89101310Y-129353773D01*
X89233773Y-129221310D01*
X89389533Y-129117235D01*
X89389534Y-129117234D01*
X89562605Y-129045546D01*
X89746333Y-129009000D01*
X89933667Y-129009000D01*
X90117395Y-129045546D01*
X90117395Y-129045546D01*
G37*
G36*
X107948228Y-128791703D02*
G01*
X108103100Y-128855853D01*
X108242481Y-128948985D01*
X108361015Y-129067519D01*
X108454147Y-129206900D01*
X108518297Y-129361772D01*
X108551000Y-129526184D01*
X108551000Y-129693816D01*
X108518297Y-129858228D01*
X108454147Y-130013100D01*
X108361015Y-130152481D01*
X108242481Y-130271015D01*
X108103100Y-130364147D01*
X107948228Y-130428297D01*
X107783816Y-130461000D01*
X107616184Y-130461000D01*
X107451772Y-130428297D01*
X107296900Y-130364147D01*
X107157519Y-130271015D01*
X107038985Y-130152481D01*
X106945853Y-130013100D01*
X106881703Y-129858228D01*
X106849000Y-129693816D01*
X106849000Y-129526184D01*
X106881703Y-129361772D01*
X106945853Y-129206900D01*
X107038985Y-129067519D01*
X107157519Y-128948985D01*
X107296900Y-128855853D01*
X107451772Y-128791703D01*
X107616184Y-128759000D01*
X107783816Y-128759000D01*
X107948228Y-128791703D01*
X107948228Y-128791703D01*
G37*
G36*
X104296823Y-127721313D02*
G01*
X104457242Y-127769976D01*
X104589906Y-127840886D01*
X104605078Y-127848996D01*
X104734659Y-127955341D01*
X104841004Y-128084922D01*
X104841005Y-128084924D01*
X104920024Y-128232758D01*
X104968687Y-128393177D01*
X104985117Y-128560000D01*
X104968687Y-128726823D01*
X104920024Y-128887242D01*
X104854943Y-129009000D01*
X104841004Y-129035078D01*
X104734659Y-129164659D01*
X104605078Y-129271004D01*
X104605076Y-129271005D01*
X104457242Y-129350024D01*
X104296823Y-129398687D01*
X104171804Y-129411000D01*
X103288196Y-129411000D01*
X103163177Y-129398687D01*
X103002758Y-129350024D01*
X102854924Y-129271005D01*
X102854922Y-129271004D01*
X102725341Y-129164659D01*
X102618996Y-129035078D01*
X102605057Y-129009000D01*
X102539976Y-128887242D01*
X102491313Y-128726823D01*
X102474883Y-128560000D01*
X102491313Y-128393177D01*
X102539976Y-128232758D01*
X102618995Y-128084924D01*
X102618996Y-128084922D01*
X102725341Y-127955341D01*
X102854922Y-127848996D01*
X102870094Y-127840886D01*
X103002758Y-127769976D01*
X103163177Y-127721313D01*
X103288196Y-127709000D01*
X104171804Y-127709000D01*
X104296823Y-127721313D01*
X104296823Y-127721313D01*
G37*
G36*
X97361000Y-129411000D02*
G01*
X94859000Y-129411000D01*
X94859000Y-127709000D01*
X97361000Y-127709000D01*
X97361000Y-129411000D01*
X97361000Y-129411000D01*
G37*
G36*
X90791000Y-128371000D02*
G01*
X88889000Y-128371000D01*
X88889000Y-126469000D01*
X90791000Y-126469000D01*
X90791000Y-128371000D01*
X90791000Y-128371000D01*
G37*
G36*
X139603528Y-125422883D02*
G01*
X139792222Y-125480123D01*
X139966115Y-125573071D01*
X140118539Y-125698161D01*
X140243629Y-125850585D01*
X140336577Y-126024478D01*
X140393817Y-126213172D01*
X140413143Y-126409400D01*
X140393817Y-126605628D01*
X140336577Y-126794322D01*
X140243629Y-126968215D01*
X140118539Y-127120639D01*
X139966115Y-127245729D01*
X139792222Y-127338677D01*
X139603528Y-127395917D01*
X139456475Y-127410400D01*
X139358125Y-127410400D01*
X139211072Y-127395917D01*
X139022378Y-127338677D01*
X138848485Y-127245729D01*
X138696061Y-127120639D01*
X138570971Y-126968215D01*
X138478023Y-126794322D01*
X138420783Y-126605628D01*
X138401457Y-126409400D01*
X138420783Y-126213172D01*
X138478023Y-126024478D01*
X138570971Y-125850585D01*
X138696061Y-125698161D01*
X138848485Y-125573071D01*
X139022378Y-125480123D01*
X139211072Y-125422883D01*
X139358125Y-125408400D01*
X139456475Y-125408400D01*
X139603528Y-125422883D01*
X139603528Y-125422883D01*
G37*
G36*
X109714473Y-124365938D02*
G01*
X109842049Y-124418782D01*
X109956859Y-124495495D01*
X110054505Y-124593141D01*
X110131218Y-124707951D01*
X110184062Y-124835527D01*
X110211000Y-124970956D01*
X110211000Y-125109044D01*
X110184062Y-125244473D01*
X110131218Y-125372049D01*
X110054505Y-125486859D01*
X109956859Y-125584505D01*
X109842049Y-125661218D01*
X109714473Y-125714062D01*
X109579044Y-125741000D01*
X109440956Y-125741000D01*
X109305527Y-125714062D01*
X109177951Y-125661218D01*
X109063141Y-125584505D01*
X108965495Y-125486859D01*
X108888782Y-125372049D01*
X108835938Y-125244473D01*
X108809000Y-125109044D01*
X108809000Y-124970956D01*
X108835938Y-124835527D01*
X108888782Y-124707951D01*
X108965495Y-124593141D01*
X109063141Y-124495495D01*
X109177951Y-124418782D01*
X109305527Y-124365938D01*
X109440956Y-124339000D01*
X109579044Y-124339000D01*
X109714473Y-124365938D01*
X109714473Y-124365938D01*
G37*
G36*
X108444473Y-123095938D02*
G01*
X108572049Y-123148782D01*
X108686859Y-123225495D01*
X108784505Y-123323141D01*
X108861218Y-123437951D01*
X108914062Y-123565527D01*
X108941000Y-123700956D01*
X108941000Y-123839044D01*
X108914062Y-123974473D01*
X108861218Y-124102049D01*
X108784505Y-124216859D01*
X108686859Y-124314505D01*
X108572049Y-124391218D01*
X108444473Y-124444062D01*
X108309044Y-124471000D01*
X108170956Y-124471000D01*
X108035527Y-124444062D01*
X107907951Y-124391218D01*
X107865444Y-124362816D01*
X107843833Y-124351265D01*
X107820384Y-124344152D01*
X107795998Y-124341750D01*
X107771612Y-124344152D01*
X107748163Y-124351265D01*
X107726553Y-124362817D01*
X107707611Y-124378362D01*
X107692066Y-124397304D01*
X107680515Y-124418915D01*
X107673402Y-124442364D01*
X107671000Y-124466749D01*
X107671000Y-125741000D01*
X106269000Y-125741000D01*
X106269000Y-124339000D01*
X107543251Y-124339000D01*
X107567637Y-124336598D01*
X107591086Y-124329485D01*
X107612697Y-124317934D01*
X107631639Y-124302389D01*
X107647184Y-124283447D01*
X107658735Y-124261836D01*
X107665848Y-124238387D01*
X107668250Y-124214001D01*
X107665848Y-124189615D01*
X107658735Y-124166166D01*
X107647184Y-124144556D01*
X107618782Y-124102049D01*
X107565938Y-123974473D01*
X107539000Y-123839044D01*
X107539000Y-123700956D01*
X107565938Y-123565527D01*
X107618782Y-123437951D01*
X107695495Y-123323141D01*
X107793141Y-123225495D01*
X107907951Y-123148782D01*
X108035527Y-123095938D01*
X108170956Y-123069000D01*
X108309044Y-123069000D01*
X108444473Y-123095938D01*
X108444473Y-123095938D01*
G37*
G36*
X118582585Y-122268802D02*
G01*
X118732410Y-122298604D01*
X119014674Y-122415521D01*
X119268705Y-122585259D01*
X119484741Y-122801295D01*
X119654479Y-123055326D01*
X119771396Y-123337590D01*
X119771396Y-123337591D01*
X119831000Y-123637239D01*
X119831000Y-123942761D01*
X119812290Y-124036823D01*
X119771396Y-124242410D01*
X119654479Y-124524674D01*
X119484741Y-124778705D01*
X119268705Y-124994741D01*
X119014674Y-125164479D01*
X118732410Y-125281396D01*
X118582585Y-125311198D01*
X118432761Y-125341000D01*
X118127239Y-125341000D01*
X117977415Y-125311198D01*
X117827590Y-125281396D01*
X117545326Y-125164479D01*
X117291295Y-124994741D01*
X117075259Y-124778705D01*
X116905521Y-124524674D01*
X116788604Y-124242410D01*
X116747710Y-124036823D01*
X116729000Y-123942761D01*
X116729000Y-123637239D01*
X116788604Y-123337591D01*
X116788604Y-123337590D01*
X116905521Y-123055326D01*
X117075259Y-122801295D01*
X117291295Y-122585259D01*
X117545326Y-122415521D01*
X117827590Y-122298604D01*
X117977415Y-122268802D01*
X118127239Y-122239000D01*
X118432761Y-122239000D01*
X118582585Y-122268802D01*
X118582585Y-122268802D01*
G37*
G36*
X103796823Y-123031313D02*
G01*
X103957242Y-123079976D01*
X104024361Y-123115852D01*
X104105078Y-123158996D01*
X104234659Y-123265341D01*
X104341004Y-123394922D01*
X104341005Y-123394924D01*
X104420024Y-123542758D01*
X104468687Y-123703177D01*
X104485117Y-123870000D01*
X104468687Y-124036823D01*
X104420024Y-124197242D01*
X104355513Y-124317934D01*
X104341004Y-124345078D01*
X104234659Y-124474659D01*
X104105078Y-124581004D01*
X104105076Y-124581005D01*
X103957242Y-124660024D01*
X103796823Y-124708687D01*
X103671804Y-124721000D01*
X103588196Y-124721000D01*
X103463177Y-124708687D01*
X103302758Y-124660024D01*
X103154924Y-124581005D01*
X103154922Y-124581004D01*
X103025341Y-124474659D01*
X102918996Y-124345078D01*
X102904487Y-124317934D01*
X102839976Y-124197242D01*
X102791313Y-124036823D01*
X102774883Y-123870000D01*
X102791313Y-123703177D01*
X102839976Y-123542758D01*
X102918995Y-123394924D01*
X102918996Y-123394922D01*
X103025341Y-123265341D01*
X103154922Y-123158996D01*
X103235639Y-123115852D01*
X103302758Y-123079976D01*
X103463177Y-123031313D01*
X103588196Y-123019000D01*
X103671804Y-123019000D01*
X103796823Y-123031313D01*
X103796823Y-123031313D01*
G37*
G36*
X96258228Y-123051703D02*
G01*
X96413100Y-123115853D01*
X96552481Y-123208985D01*
X96671015Y-123327519D01*
X96764147Y-123466900D01*
X96828297Y-123621772D01*
X96861000Y-123786184D01*
X96861000Y-123953816D01*
X96828297Y-124118228D01*
X96764147Y-124273100D01*
X96671015Y-124412481D01*
X96552481Y-124531015D01*
X96413100Y-124624147D01*
X96258228Y-124688297D01*
X96093816Y-124721000D01*
X95926184Y-124721000D01*
X95761772Y-124688297D01*
X95606900Y-124624147D01*
X95467519Y-124531015D01*
X95348985Y-124412481D01*
X95255853Y-124273100D01*
X95191703Y-124118228D01*
X95159000Y-123953816D01*
X95159000Y-123786184D01*
X95191703Y-123621772D01*
X95255853Y-123466900D01*
X95348985Y-123327519D01*
X95467519Y-123208985D01*
X95606900Y-123115853D01*
X95761772Y-123051703D01*
X95926184Y-123019000D01*
X96093816Y-123019000D01*
X96258228Y-123051703D01*
X96258228Y-123051703D01*
G37*
G36*
X139603528Y-122616183D02*
G01*
X139792222Y-122673423D01*
X139966115Y-122766371D01*
X140118539Y-122891461D01*
X140243629Y-123043885D01*
X140336577Y-123217778D01*
X140393817Y-123406472D01*
X140413143Y-123602700D01*
X140393817Y-123798928D01*
X140336577Y-123987622D01*
X140243629Y-124161515D01*
X140118539Y-124313939D01*
X139966115Y-124439029D01*
X139792222Y-124531977D01*
X139603528Y-124589217D01*
X139456475Y-124603700D01*
X139358125Y-124603700D01*
X139211072Y-124589217D01*
X139022378Y-124531977D01*
X138848485Y-124439029D01*
X138696061Y-124313939D01*
X138570971Y-124161515D01*
X138478023Y-123987622D01*
X138420783Y-123798928D01*
X138401457Y-123602700D01*
X138420783Y-123406472D01*
X138478023Y-123217778D01*
X138570971Y-123043885D01*
X138696061Y-122891461D01*
X138848485Y-122766371D01*
X139022378Y-122673423D01*
X139211072Y-122616183D01*
X139358125Y-122601700D01*
X139456475Y-122601700D01*
X139603528Y-122616183D01*
X139603528Y-122616183D01*
G37*
G36*
X114371000Y-124451000D02*
G01*
X112469000Y-124451000D01*
X112469000Y-122549000D01*
X114371000Y-122549000D01*
X114371000Y-124451000D01*
X114371000Y-124451000D01*
G37*
G36*
X140459100Y-121708100D02*
G01*
X138457100Y-121708100D01*
X138457100Y-119706100D01*
X140459100Y-119706100D01*
X140459100Y-121708100D01*
X140459100Y-121708100D01*
G37*
G36*
X106556425Y-118452760D02*
G01*
X106556428Y-118452761D01*
X106556429Y-118452761D01*
X106735693Y-118507140D01*
X106735696Y-118507142D01*
X106735697Y-118507142D01*
X106900903Y-118595446D01*
X107045712Y-118714288D01*
X107164554Y-118859097D01*
X107242500Y-119004924D01*
X107252860Y-119024307D01*
X107307239Y-119203571D01*
X107307240Y-119203575D01*
X107325601Y-119390000D01*
X107307240Y-119576425D01*
X107307239Y-119576428D01*
X107307239Y-119576429D01*
X107252860Y-119755693D01*
X107252858Y-119755696D01*
X107252858Y-119755697D01*
X107164554Y-119920903D01*
X107045712Y-120065712D01*
X106900903Y-120184554D01*
X106740999Y-120270024D01*
X106735693Y-120272860D01*
X106556429Y-120327239D01*
X106556428Y-120327239D01*
X106556425Y-120327240D01*
X106416718Y-120341000D01*
X106323282Y-120341000D01*
X106183575Y-120327240D01*
X106183572Y-120327239D01*
X106183571Y-120327239D01*
X106004307Y-120272860D01*
X105999001Y-120270024D01*
X105839097Y-120184554D01*
X105694288Y-120065712D01*
X105575446Y-119920903D01*
X105487142Y-119755697D01*
X105487142Y-119755696D01*
X105487140Y-119755693D01*
X105432761Y-119576429D01*
X105432761Y-119576428D01*
X105432760Y-119576425D01*
X105414399Y-119390000D01*
X105432760Y-119203575D01*
X105432761Y-119203571D01*
X105487140Y-119024307D01*
X105497500Y-119004924D01*
X105575446Y-118859097D01*
X105694288Y-118714288D01*
X105839097Y-118595446D01*
X106004303Y-118507142D01*
X106004304Y-118507142D01*
X106004307Y-118507140D01*
X106183571Y-118452761D01*
X106183572Y-118452761D01*
X106183575Y-118452760D01*
X106323282Y-118439000D01*
X106416718Y-118439000D01*
X106556425Y-118452760D01*
X106556425Y-118452760D01*
G37*
G36*
X114941000Y-120341000D02*
G01*
X113039000Y-120341000D01*
X113039000Y-118439000D01*
X114941000Y-118439000D01*
X114941000Y-120341000D01*
X114941000Y-120341000D01*
G37*
G36*
X96228228Y-118661703D02*
G01*
X96383100Y-118725853D01*
X96522481Y-118818985D01*
X96641015Y-118937519D01*
X96734147Y-119076900D01*
X96798297Y-119231772D01*
X96831000Y-119396184D01*
X96831000Y-119563816D01*
X96798297Y-119728228D01*
X96734147Y-119883100D01*
X96641015Y-120022481D01*
X96522481Y-120141015D01*
X96383100Y-120234147D01*
X96228228Y-120298297D01*
X96063816Y-120331000D01*
X95896184Y-120331000D01*
X95731772Y-120298297D01*
X95576900Y-120234147D01*
X95437519Y-120141015D01*
X95318985Y-120022481D01*
X95225853Y-119883100D01*
X95161703Y-119728228D01*
X95129000Y-119563816D01*
X95129000Y-119396184D01*
X95161703Y-119231772D01*
X95225853Y-119076900D01*
X95318985Y-118937519D01*
X95437519Y-118818985D01*
X95576900Y-118725853D01*
X95731772Y-118661703D01*
X95896184Y-118629000D01*
X96063816Y-118629000D01*
X96228228Y-118661703D01*
X96228228Y-118661703D01*
G37*
G36*
X103766823Y-118641313D02*
G01*
X103927242Y-118689976D01*
X103994361Y-118725852D01*
X104075078Y-118768996D01*
X104204659Y-118875341D01*
X104311004Y-119004922D01*
X104311005Y-119004924D01*
X104390024Y-119152758D01*
X104438687Y-119313177D01*
X104455117Y-119480000D01*
X104438687Y-119646823D01*
X104390024Y-119807242D01*
X104349477Y-119883100D01*
X104311004Y-119955078D01*
X104204659Y-120084659D01*
X104075078Y-120191004D01*
X104075076Y-120191005D01*
X103927242Y-120270024D01*
X103766823Y-120318687D01*
X103641804Y-120331000D01*
X103558196Y-120331000D01*
X103433177Y-120318687D01*
X103272758Y-120270024D01*
X103124924Y-120191005D01*
X103124922Y-120191004D01*
X102995341Y-120084659D01*
X102888996Y-119955078D01*
X102850523Y-119883100D01*
X102809976Y-119807242D01*
X102761313Y-119646823D01*
X102744883Y-119480000D01*
X102761313Y-119313177D01*
X102809976Y-119152758D01*
X102888995Y-119004924D01*
X102888996Y-119004922D01*
X102995341Y-118875341D01*
X103124922Y-118768996D01*
X103205639Y-118725852D01*
X103272758Y-118689976D01*
X103433177Y-118641313D01*
X103558196Y-118629000D01*
X103641804Y-118629000D01*
X103766823Y-118641313D01*
X103766823Y-118641313D01*
G37*
G36*
X132782585Y-116268802D02*
G01*
X132932410Y-116298604D01*
X133214674Y-116415521D01*
X133468705Y-116585259D01*
X133684741Y-116801295D01*
X133854479Y-117055326D01*
X133971396Y-117337590D01*
X134031000Y-117637240D01*
X134031000Y-117942760D01*
X133971396Y-118242410D01*
X133854479Y-118524674D01*
X133684741Y-118778705D01*
X133468705Y-118994741D01*
X133214674Y-119164479D01*
X132932410Y-119281396D01*
X132782585Y-119311198D01*
X132632761Y-119341000D01*
X132327239Y-119341000D01*
X132177415Y-119311198D01*
X132027590Y-119281396D01*
X131745326Y-119164479D01*
X131491295Y-118994741D01*
X131275259Y-118778705D01*
X131105521Y-118524674D01*
X130988604Y-118242410D01*
X130929000Y-117942760D01*
X130929000Y-117637240D01*
X130988604Y-117337590D01*
X131105521Y-117055326D01*
X131275259Y-116801295D01*
X131491295Y-116585259D01*
X131745326Y-116415521D01*
X132027590Y-116298604D01*
X132177415Y-116268802D01*
X132327239Y-116239000D01*
X132632761Y-116239000D01*
X132782585Y-116268802D01*
X132782585Y-116268802D01*
G37*
G36*
X120609487Y-116588996D02*
G01*
X120846253Y-116687068D01*
X120846255Y-116687069D01*
X121017208Y-116801296D01*
X121059339Y-116829447D01*
X121240553Y-117010661D01*
X121382932Y-117223747D01*
X121481004Y-117460513D01*
X121531000Y-117711861D01*
X121531000Y-117968139D01*
X121481004Y-118219487D01*
X121390078Y-118439000D01*
X121382931Y-118456255D01*
X121240553Y-118669339D01*
X121059339Y-118850553D01*
X120846255Y-118992931D01*
X120846254Y-118992932D01*
X120846253Y-118992932D01*
X120609487Y-119091004D01*
X120358139Y-119141000D01*
X120101861Y-119141000D01*
X119850513Y-119091004D01*
X119613747Y-118992932D01*
X119613746Y-118992932D01*
X119613745Y-118992931D01*
X119400661Y-118850553D01*
X119219447Y-118669339D01*
X119077069Y-118456255D01*
X119069922Y-118439000D01*
X118978996Y-118219487D01*
X118929000Y-117968139D01*
X118929000Y-117711861D01*
X118978996Y-117460513D01*
X119077068Y-117223747D01*
X119219447Y-117010661D01*
X119400661Y-116829447D01*
X119442792Y-116801296D01*
X119613745Y-116687069D01*
X119613747Y-116687068D01*
X119850513Y-116588996D01*
X120101861Y-116539000D01*
X120358139Y-116539000D01*
X120609487Y-116588996D01*
X120609487Y-116588996D01*
G37*
M02*
