G04 #@! TF.GenerationSoftware,KiCad,Pcbnew,(5.1.4)-1*
G04 #@! TF.CreationDate,2020-06-05T11:24:34+05:30*
G04 #@! TF.ProjectId,v1.0,76312e30-2e6b-4696-9361-645f70636258,rev?*
G04 #@! TF.SameCoordinates,Original*
G04 #@! TF.FileFunction,Legend,Bot*
G04 #@! TF.FilePolarity,Positive*
%FSLAX46Y46*%
G04 Gerber Fmt 4.6, Leading zero omitted, Abs format (unit mm)*
G04 Created by KiCad (PCBNEW (5.1.4)-1) date 2020-06-05 11:24:34*
%MOMM*%
%LPD*%
G04 APERTURE LIST*
%ADD10C,0.150000*%
%ADD11C,0.200000*%
%ADD12C,0.120000*%
G04 APERTURE END LIST*
D10*
X132214285Y-136282857D02*
X131928571Y-137082857D01*
X131642857Y-136282857D01*
X131242857Y-135997142D02*
X131185714Y-135940000D01*
X131071428Y-135882857D01*
X130785714Y-135882857D01*
X130671428Y-135940000D01*
X130614285Y-135997142D01*
X130557142Y-136111428D01*
X130557142Y-136225714D01*
X130614285Y-136397142D01*
X131300000Y-137082857D01*
X130557142Y-137082857D01*
X130042857Y-136968571D02*
X129985714Y-137025714D01*
X130042857Y-137082857D01*
X130100000Y-137025714D01*
X130042857Y-136968571D01*
X130042857Y-137082857D01*
X129242857Y-135882857D02*
X129128571Y-135882857D01*
X129014285Y-135940000D01*
X128957142Y-135997142D01*
X128900000Y-136111428D01*
X128842857Y-136340000D01*
X128842857Y-136625714D01*
X128900000Y-136854285D01*
X128957142Y-136968571D01*
X129014285Y-137025714D01*
X129128571Y-137082857D01*
X129242857Y-137082857D01*
X129357142Y-137025714D01*
X129414285Y-136968571D01*
X129471428Y-136854285D01*
X129528571Y-136625714D01*
X129528571Y-136340000D01*
X129471428Y-136111428D01*
X129414285Y-135997142D01*
X129357142Y-135940000D01*
X129242857Y-135882857D01*
X132217142Y-135052857D02*
X132217142Y-133852857D01*
X131931428Y-133852857D01*
X131760000Y-133910000D01*
X131645714Y-134024285D01*
X131588571Y-134138571D01*
X131531428Y-134367142D01*
X131531428Y-134538571D01*
X131588571Y-134767142D01*
X131645714Y-134881428D01*
X131760000Y-134995714D01*
X131931428Y-135052857D01*
X132217142Y-135052857D01*
X131017142Y-135052857D02*
X131017142Y-134252857D01*
X131017142Y-133852857D02*
X131074285Y-133910000D01*
X131017142Y-133967142D01*
X130960000Y-133910000D01*
X131017142Y-133852857D01*
X131017142Y-133967142D01*
X130502857Y-134995714D02*
X130388571Y-135052857D01*
X130160000Y-135052857D01*
X130045714Y-134995714D01*
X129988571Y-134881428D01*
X129988571Y-134824285D01*
X130045714Y-134710000D01*
X130160000Y-134652857D01*
X130331428Y-134652857D01*
X130445714Y-134595714D01*
X130502857Y-134481428D01*
X130502857Y-134424285D01*
X130445714Y-134310000D01*
X130331428Y-134252857D01*
X130160000Y-134252857D01*
X130045714Y-134310000D01*
X129474285Y-134252857D02*
X129474285Y-135452857D01*
X129474285Y-134310000D02*
X129360000Y-134252857D01*
X129131428Y-134252857D01*
X129017142Y-134310000D01*
X128960000Y-134367142D01*
X128902857Y-134481428D01*
X128902857Y-134824285D01*
X128960000Y-134938571D01*
X129017142Y-134995714D01*
X129131428Y-135052857D01*
X129360000Y-135052857D01*
X129474285Y-134995714D01*
X127931428Y-134995714D02*
X128045714Y-135052857D01*
X128274285Y-135052857D01*
X128388571Y-134995714D01*
X128445714Y-134881428D01*
X128445714Y-134424285D01*
X128388571Y-134310000D01*
X128274285Y-134252857D01*
X128045714Y-134252857D01*
X127931428Y-134310000D01*
X127874285Y-134424285D01*
X127874285Y-134538571D01*
X128445714Y-134652857D01*
X127360000Y-134252857D02*
X127360000Y-135052857D01*
X127360000Y-134367142D02*
X127302857Y-134310000D01*
X127188571Y-134252857D01*
X127017142Y-134252857D01*
X126902857Y-134310000D01*
X126845714Y-134424285D01*
X126845714Y-135052857D01*
X126331428Y-134995714D02*
X126217142Y-135052857D01*
X125988571Y-135052857D01*
X125874285Y-134995714D01*
X125817142Y-134881428D01*
X125817142Y-134824285D01*
X125874285Y-134710000D01*
X125988571Y-134652857D01*
X126160000Y-134652857D01*
X126274285Y-134595714D01*
X126331428Y-134481428D01*
X126331428Y-134424285D01*
X126274285Y-134310000D01*
X126160000Y-134252857D01*
X125988571Y-134252857D01*
X125874285Y-134310000D01*
X124845714Y-134995714D02*
X124960000Y-135052857D01*
X125188571Y-135052857D01*
X125302857Y-134995714D01*
X125360000Y-134881428D01*
X125360000Y-134424285D01*
X125302857Y-134310000D01*
X125188571Y-134252857D01*
X124960000Y-134252857D01*
X124845714Y-134310000D01*
X124788571Y-134424285D01*
X124788571Y-134538571D01*
X125360000Y-134652857D01*
X124274285Y-135052857D02*
X124274285Y-134252857D01*
X124274285Y-134481428D02*
X124217142Y-134367142D01*
X124160000Y-134310000D01*
X124045714Y-134252857D01*
X123931428Y-134252857D01*
D11*
X118090000Y-128808571D02*
X118090000Y-127308571D01*
X117732857Y-127308571D01*
X117518571Y-127380000D01*
X117375714Y-127522857D01*
X117304285Y-127665714D01*
X117232857Y-127951428D01*
X117232857Y-128165714D01*
X117304285Y-128451428D01*
X117375714Y-128594285D01*
X117518571Y-128737142D01*
X117732857Y-128808571D01*
X118090000Y-128808571D01*
X116018571Y-128737142D02*
X116161428Y-128808571D01*
X116447142Y-128808571D01*
X116590000Y-128737142D01*
X116661428Y-128594285D01*
X116661428Y-128022857D01*
X116590000Y-127880000D01*
X116447142Y-127808571D01*
X116161428Y-127808571D01*
X116018571Y-127880000D01*
X115947142Y-128022857D01*
X115947142Y-128165714D01*
X116661428Y-128308571D01*
X115447142Y-127808571D02*
X115090000Y-128808571D01*
X114732857Y-127808571D01*
X113518571Y-128808571D02*
X113518571Y-128022857D01*
X113590000Y-127880000D01*
X113732857Y-127808571D01*
X114018571Y-127808571D01*
X114161428Y-127880000D01*
X113518571Y-128737142D02*
X113661428Y-128808571D01*
X114018571Y-128808571D01*
X114161428Y-128737142D01*
X114232857Y-128594285D01*
X114232857Y-128451428D01*
X114161428Y-128308571D01*
X114018571Y-128237142D01*
X113661428Y-128237142D01*
X113518571Y-128165714D01*
X112804285Y-127808571D02*
X112804285Y-129094285D01*
X112875714Y-129237142D01*
X113018571Y-129308571D01*
X113090000Y-129308571D01*
X112804285Y-127308571D02*
X112875714Y-127380000D01*
X112804285Y-127451428D01*
X112732857Y-127380000D01*
X112804285Y-127308571D01*
X112804285Y-127451428D01*
X112090000Y-128808571D02*
X112090000Y-127808571D01*
X112090000Y-127308571D02*
X112161428Y-127380000D01*
X112090000Y-127451428D01*
X112018571Y-127380000D01*
X112090000Y-127308571D01*
X112090000Y-127451428D01*
D10*
X119394285Y-152585714D02*
X118480000Y-152585714D01*
X117908571Y-152585714D02*
X116994285Y-152585714D01*
X116422857Y-153042857D02*
X116422857Y-151842857D01*
X115851428Y-152242857D02*
X115851428Y-153042857D01*
X115851428Y-152357142D02*
X115794285Y-152300000D01*
X115680000Y-152242857D01*
X115508571Y-152242857D01*
X115394285Y-152300000D01*
X115337142Y-152414285D01*
X115337142Y-153042857D01*
X114937142Y-152242857D02*
X114480000Y-152242857D01*
X114765714Y-153042857D02*
X114765714Y-152014285D01*
X114708571Y-151900000D01*
X114594285Y-151842857D01*
X114480000Y-151842857D01*
X114080000Y-153042857D02*
X114080000Y-152242857D01*
X114080000Y-151842857D02*
X114137142Y-151900000D01*
X114080000Y-151957142D01*
X114022857Y-151900000D01*
X114080000Y-151842857D01*
X114080000Y-151957142D01*
X113508571Y-152242857D02*
X113508571Y-153042857D01*
X113508571Y-152357142D02*
X113451428Y-152300000D01*
X113337142Y-152242857D01*
X113165714Y-152242857D01*
X113051428Y-152300000D01*
X112994285Y-152414285D01*
X112994285Y-153042857D01*
X112422857Y-153042857D02*
X112422857Y-152242857D01*
X112422857Y-151842857D02*
X112480000Y-151900000D01*
X112422857Y-151957142D01*
X112365714Y-151900000D01*
X112422857Y-151842857D01*
X112422857Y-151957142D01*
X112022857Y-152242857D02*
X111565714Y-152242857D01*
X111851428Y-151842857D02*
X111851428Y-152871428D01*
X111794285Y-152985714D01*
X111680000Y-153042857D01*
X111565714Y-153042857D01*
X111165714Y-153042857D02*
X111165714Y-152242857D01*
X111165714Y-151842857D02*
X111222857Y-151900000D01*
X111165714Y-151957142D01*
X111108571Y-151900000D01*
X111165714Y-151842857D01*
X111165714Y-151957142D01*
X109737142Y-152985714D02*
X109565714Y-153042857D01*
X109280000Y-153042857D01*
X109165714Y-152985714D01*
X109108571Y-152928571D01*
X109051428Y-152814285D01*
X109051428Y-152700000D01*
X109108571Y-152585714D01*
X109165714Y-152528571D01*
X109280000Y-152471428D01*
X109508571Y-152414285D01*
X109622857Y-152357142D01*
X109680000Y-152300000D01*
X109737142Y-152185714D01*
X109737142Y-152071428D01*
X109680000Y-151957142D01*
X109622857Y-151900000D01*
X109508571Y-151842857D01*
X109222857Y-151842857D01*
X109051428Y-151900000D01*
X108651428Y-152242857D02*
X108365714Y-153042857D01*
X108080000Y-152242857D02*
X108365714Y-153042857D01*
X108480000Y-153328571D01*
X108537142Y-153385714D01*
X108651428Y-153442857D01*
X107680000Y-152985714D02*
X107565714Y-153042857D01*
X107337142Y-153042857D01*
X107222857Y-152985714D01*
X107165714Y-152871428D01*
X107165714Y-152814285D01*
X107222857Y-152700000D01*
X107337142Y-152642857D01*
X107508571Y-152642857D01*
X107622857Y-152585714D01*
X107680000Y-152471428D01*
X107680000Y-152414285D01*
X107622857Y-152300000D01*
X107508571Y-152242857D01*
X107337142Y-152242857D01*
X107222857Y-152300000D01*
X106822857Y-152242857D02*
X106365714Y-152242857D01*
X106651428Y-151842857D02*
X106651428Y-152871428D01*
X106594285Y-152985714D01*
X106480000Y-153042857D01*
X106365714Y-153042857D01*
X105508571Y-152985714D02*
X105622857Y-153042857D01*
X105851428Y-153042857D01*
X105965714Y-152985714D01*
X106022857Y-152871428D01*
X106022857Y-152414285D01*
X105965714Y-152300000D01*
X105851428Y-152242857D01*
X105622857Y-152242857D01*
X105508571Y-152300000D01*
X105451428Y-152414285D01*
X105451428Y-152528571D01*
X106022857Y-152642857D01*
X104937142Y-153042857D02*
X104937142Y-152242857D01*
X104937142Y-152357142D02*
X104880000Y-152300000D01*
X104765714Y-152242857D01*
X104594285Y-152242857D01*
X104480000Y-152300000D01*
X104422857Y-152414285D01*
X104422857Y-153042857D01*
X104422857Y-152414285D02*
X104365714Y-152300000D01*
X104251428Y-152242857D01*
X104080000Y-152242857D01*
X103965714Y-152300000D01*
X103908571Y-152414285D01*
X103908571Y-153042857D01*
X103394285Y-152985714D02*
X103280000Y-153042857D01*
X103051428Y-153042857D01*
X102937142Y-152985714D01*
X102880000Y-152871428D01*
X102880000Y-152814285D01*
X102937142Y-152700000D01*
X103051428Y-152642857D01*
X103222857Y-152642857D01*
X103337142Y-152585714D01*
X103394285Y-152471428D01*
X103394285Y-152414285D01*
X103337142Y-152300000D01*
X103222857Y-152242857D01*
X103051428Y-152242857D01*
X102937142Y-152300000D01*
X102365714Y-152585714D02*
X101451428Y-152585714D01*
X100880000Y-152585714D02*
X99965714Y-152585714D01*
D12*
X87335000Y-127010000D02*
X90425000Y-127010000D01*
X91380000Y-129570000D02*
G75*
G03X91380000Y-129570000I-2500000J0D01*
G01*
X88879538Y-132560000D02*
G75*
G03X90424830Y-127010000I462J2990000D01*
G01*
X88880462Y-132560000D02*
G75*
G02X87335170Y-127010000I-462J2990000D01*
G01*
X87365000Y-137500000D02*
X90455000Y-137500000D01*
X91410000Y-140060000D02*
G75*
G03X91410000Y-140060000I-2500000J0D01*
G01*
X88909538Y-143050000D02*
G75*
G03X90454830Y-137500000I462J2990000D01*
G01*
X88910462Y-143050000D02*
G75*
G02X87365170Y-137500000I-462J2990000D01*
G01*
M02*
