M48
; DRILL file {KiCad (5.1.4)-1} date 5/23/2020 8:07:23 PM
; FORMAT={-:-/ absolute / metric / decimal}
; #@! TF.CreationDate,2020-05-23T20:07:23+05:30
; #@! TF.GenerationSoftware,Kicad,Pcbnew,(5.1.4)-1
; #@! TF.FileFunction,Plated,1,2,PTH
FMAT,2
METRIC
T1C0.750
T2C0.800
T3C0.900
T4C1.000
T5C1.200
T6C1.300
T7C3.200
%
G90
G05
T1
X106.97Y-125.04
X108.24Y-123.77
X109.51Y-125.04
T2
X117.98Y-135.25
X117.98Y-142.87
X120.52Y-135.25
X120.52Y-142.87
X123.06Y-135.25
X123.06Y-142.87
X125.6Y-135.25
X125.6Y-142.87
X135.82Y-146.85
X135.82Y-149.35
X115.19Y-148.15
X117.69Y-148.15
X129.32Y-137.92
X129.32Y-145.54
X96.11Y-128.56
X96.11Y-131.1
X96.11Y-133.64
X96.11Y-136.18
X103.73Y-128.56
X103.73Y-131.1
X103.73Y-133.64
X103.73Y-136.18
X107.7Y-129.61
X107.7Y-137.23
X98.92Y-146.26
X101.42Y-146.26
X107.74Y-142.35
X107.74Y-149.97
X128.36Y-148.39
X130.86Y-148.39
X96.01Y-123.87
X103.63Y-123.87
X95.98Y-119.48
X103.6Y-119.48
X97.49Y-141.18
X100.03Y-141.18
X102.57Y-141.18
X112.22Y-145.36
X112.22Y-147.86
X112.81Y-135.86
X112.81Y-138.4
X112.81Y-140.94
T3
X89.84Y-138.67
X89.84Y-141.21
X89.84Y-127.42
X89.84Y-129.96
X121.73Y-148.15
X124.27Y-148.15
X106.37Y-119.39
X113.99Y-119.39
X113.42Y-123.5
X113.42Y-131.12
T4
X120.23Y-117.84
X120.23Y-129.84
T5
X139.407Y-123.603
X139.407Y-126.409
X139.458Y-120.707
T6
X118.28Y-123.79
X132.43Y-129.84
X132.48Y-117.79
T7
X89.22Y-119.2
X89.22Y-148.97
T4
G00X133.26Y-140.09
M15
G01X133.26Y-138.09
M16
G05
G00X137.26Y-134.39
M15
G01X135.26Y-134.39
M16
G05
G00X139.26Y-140.09
M15
G01X139.26Y-138.09
M16
G05
T0
M30
