G04 #@! TF.GenerationSoftware,KiCad,Pcbnew,(5.1.4)-1*
G04 #@! TF.CreationDate,2020-05-23T20:07:19+05:30*
G04 #@! TF.ProjectId,v1.0,76312e30-2e6b-4696-9361-645f70636258,rev?*
G04 #@! TF.SameCoordinates,Original*
G04 #@! TF.FileFunction,Copper,L1,Top*
G04 #@! TF.FilePolarity,Positive*
%FSLAX46Y46*%
G04 Gerber Fmt 4.6, Leading zero omitted, Abs format (unit mm)*
G04 Created by KiCad (PCBNEW (5.1.4)-1) date 2020-05-23 20:07:19*
%MOMM*%
%LPD*%
G04 APERTURE LIST*
%ADD10O,1.900000X1.900000*%
%ADD11R,1.900000X1.900000*%
%ADD12R,1.300000X1.300000*%
%ADD13C,1.300000*%
%ADD14C,0.100000*%
%ADD15C,3.500000*%
%ADD16C,3.000000*%
%ADD17R,3.500000X3.500000*%
%ADD18C,1.800000*%
%ADD19R,1.800000X1.800000*%
%ADD20C,2.500000*%
%ADD21C,1.600000*%
%ADD22R,1.600000X1.600000*%
%ADD23O,1.800000X1.800000*%
%ADD24O,1.600000X1.600000*%
%ADD25C,1.440000*%
%ADD26O,2.400000X1.600000*%
%ADD27R,2.400000X1.600000*%
%ADD28R,1.600000X2.400000*%
%ADD29O,1.600000X2.400000*%
%ADD30C,3.300000*%
G04 APERTURE END LIST*
D10*
X139407300Y-126409400D03*
X139407300Y-123602700D03*
D11*
X139458100Y-120707100D03*
D12*
X106970000Y-125040000D03*
D13*
X109510000Y-125040000D03*
X108240000Y-123770000D03*
D14*
G36*
X137220765Y-132644213D02*
G01*
X137305704Y-132656813D01*
X137388999Y-132677677D01*
X137469848Y-132706605D01*
X137547472Y-132743319D01*
X137621124Y-132787464D01*
X137690094Y-132838616D01*
X137753718Y-132896282D01*
X137811384Y-132959906D01*
X137862536Y-133028876D01*
X137906681Y-133102528D01*
X137943395Y-133180152D01*
X137972323Y-133261001D01*
X137993187Y-133344296D01*
X138005787Y-133429235D01*
X138010000Y-133515000D01*
X138010000Y-135265000D01*
X138005787Y-135350765D01*
X137993187Y-135435704D01*
X137972323Y-135518999D01*
X137943395Y-135599848D01*
X137906681Y-135677472D01*
X137862536Y-135751124D01*
X137811384Y-135820094D01*
X137753718Y-135883718D01*
X137690094Y-135941384D01*
X137621124Y-135992536D01*
X137547472Y-136036681D01*
X137469848Y-136073395D01*
X137388999Y-136102323D01*
X137305704Y-136123187D01*
X137220765Y-136135787D01*
X137135000Y-136140000D01*
X135385000Y-136140000D01*
X135299235Y-136135787D01*
X135214296Y-136123187D01*
X135131001Y-136102323D01*
X135050152Y-136073395D01*
X134972528Y-136036681D01*
X134898876Y-135992536D01*
X134829906Y-135941384D01*
X134766282Y-135883718D01*
X134708616Y-135820094D01*
X134657464Y-135751124D01*
X134613319Y-135677472D01*
X134576605Y-135599848D01*
X134547677Y-135518999D01*
X134526813Y-135435704D01*
X134514213Y-135350765D01*
X134510000Y-135265000D01*
X134510000Y-133515000D01*
X134514213Y-133429235D01*
X134526813Y-133344296D01*
X134547677Y-133261001D01*
X134576605Y-133180152D01*
X134613319Y-133102528D01*
X134657464Y-133028876D01*
X134708616Y-132959906D01*
X134766282Y-132896282D01*
X134829906Y-132838616D01*
X134898876Y-132787464D01*
X134972528Y-132743319D01*
X135050152Y-132706605D01*
X135131001Y-132677677D01*
X135214296Y-132656813D01*
X135299235Y-132644213D01*
X135385000Y-132640000D01*
X137135000Y-132640000D01*
X137220765Y-132644213D01*
X137220765Y-132644213D01*
G37*
D15*
X136260000Y-134390000D03*
D14*
G36*
X140083513Y-137343611D02*
G01*
X140156318Y-137354411D01*
X140227714Y-137372295D01*
X140297013Y-137397090D01*
X140363548Y-137428559D01*
X140426678Y-137466398D01*
X140485795Y-137510242D01*
X140540330Y-137559670D01*
X140589758Y-137614205D01*
X140633602Y-137673322D01*
X140671441Y-137736452D01*
X140702910Y-137802987D01*
X140727705Y-137872286D01*
X140745589Y-137943682D01*
X140756389Y-138016487D01*
X140760000Y-138090000D01*
X140760000Y-140090000D01*
X140756389Y-140163513D01*
X140745589Y-140236318D01*
X140727705Y-140307714D01*
X140702910Y-140377013D01*
X140671441Y-140443548D01*
X140633602Y-140506678D01*
X140589758Y-140565795D01*
X140540330Y-140620330D01*
X140485795Y-140669758D01*
X140426678Y-140713602D01*
X140363548Y-140751441D01*
X140297013Y-140782910D01*
X140227714Y-140807705D01*
X140156318Y-140825589D01*
X140083513Y-140836389D01*
X140010000Y-140840000D01*
X138510000Y-140840000D01*
X138436487Y-140836389D01*
X138363682Y-140825589D01*
X138292286Y-140807705D01*
X138222987Y-140782910D01*
X138156452Y-140751441D01*
X138093322Y-140713602D01*
X138034205Y-140669758D01*
X137979670Y-140620330D01*
X137930242Y-140565795D01*
X137886398Y-140506678D01*
X137848559Y-140443548D01*
X137817090Y-140377013D01*
X137792295Y-140307714D01*
X137774411Y-140236318D01*
X137763611Y-140163513D01*
X137760000Y-140090000D01*
X137760000Y-138090000D01*
X137763611Y-138016487D01*
X137774411Y-137943682D01*
X137792295Y-137872286D01*
X137817090Y-137802987D01*
X137848559Y-137736452D01*
X137886398Y-137673322D01*
X137930242Y-137614205D01*
X137979670Y-137559670D01*
X138034205Y-137510242D01*
X138093322Y-137466398D01*
X138156452Y-137428559D01*
X138222987Y-137397090D01*
X138292286Y-137372295D01*
X138363682Y-137354411D01*
X138436487Y-137343611D01*
X138510000Y-137340000D01*
X140010000Y-137340000D01*
X140083513Y-137343611D01*
X140083513Y-137343611D01*
G37*
D16*
X139260000Y-139090000D03*
D17*
X133260000Y-139090000D03*
D18*
X89840000Y-129960000D03*
D19*
X89840000Y-127420000D03*
D18*
X89840000Y-141210000D03*
D19*
X89840000Y-138670000D03*
D16*
X118280000Y-123790000D03*
D20*
X120230000Y-117840000D03*
D16*
X132480000Y-117790000D03*
X132430000Y-129840000D03*
D20*
X120230000Y-129840000D03*
D21*
X135820000Y-149350000D03*
D22*
X135820000Y-146850000D03*
D21*
X130860000Y-148390000D03*
X128360000Y-148390000D03*
X112220000Y-145360000D03*
X112220000Y-147860000D03*
X98920000Y-146260000D03*
X101420000Y-146260000D03*
D22*
X117690000Y-148150000D03*
D21*
X115190000Y-148150000D03*
D19*
X121730000Y-148150000D03*
D18*
X124270000Y-148150000D03*
D19*
X113420000Y-123500000D03*
D23*
X113420000Y-131120000D03*
X106370000Y-119390000D03*
D19*
X113990000Y-119390000D03*
D21*
X107740000Y-142350000D03*
D24*
X107740000Y-149970000D03*
X103630000Y-123870000D03*
D21*
X96010000Y-123870000D03*
D24*
X103600000Y-119480000D03*
D21*
X95980000Y-119480000D03*
X107700000Y-129610000D03*
D24*
X107700000Y-137230000D03*
X129320000Y-137920000D03*
D21*
X129320000Y-145540000D03*
D25*
X97490000Y-141180000D03*
X100030000Y-141180000D03*
X102570000Y-141180000D03*
X112810000Y-135860000D03*
X112810000Y-138400000D03*
X112810000Y-140940000D03*
D26*
X103730000Y-128560000D03*
X96110000Y-136180000D03*
X103730000Y-131100000D03*
X96110000Y-133640000D03*
X103730000Y-133640000D03*
X96110000Y-131100000D03*
X103730000Y-136180000D03*
D27*
X96110000Y-128560000D03*
D28*
X125600000Y-135250000D03*
D29*
X117980000Y-142870000D03*
X123060000Y-135250000D03*
X120520000Y-142870000D03*
X120520000Y-135250000D03*
X123060000Y-142870000D03*
X117980000Y-135250000D03*
X125600000Y-142870000D03*
D30*
X89220000Y-119200000D03*
X89220000Y-148970000D03*
M02*
