M48
; DRILL file {KiCad (5.1.4)-1} date 6/5/2020 11:17:36 AM
; FORMAT={-:-/ absolute / metric / decimal}
; #@! TF.CreationDate,2020-06-05T11:17:36+05:30
; #@! TF.GenerationSoftware,Kicad,Pcbnew,(5.1.4)-1
; #@! TF.FileFunction,Plated,1,2,PTH
FMAT,2
METRIC
T1C0.750
T2C0.800
T3C0.900
T4C1.100
T5C1.300
T6C3.200
%
G90
G05
T1
X105.87Y-124.78
X105.87Y-127.32
X107.14Y-126.05
T2
X105.27Y-134.02
X107.77Y-134.02
X109.97Y-134.83
X117.59Y-134.83
X94.58Y-133.83
X94.58Y-136.37
X94.58Y-138.91
X94.58Y-141.45
X102.2Y-133.83
X102.2Y-136.37
X102.2Y-138.91
X102.2Y-141.45
X95.88Y-149.31
X98.42Y-149.31
X100.96Y-149.31
X105.31Y-150.56
X107.81Y-150.56
X106.58Y-141.44
X106.58Y-143.98
X106.58Y-146.52
X118.12Y-124.49
X118.12Y-132.11
X106.41Y-122.213
X106.423Y-119.229
X110.38Y-124.54
X110.38Y-132.16
X111.74Y-137.96
X111.74Y-145.58
X114.28Y-137.96
X114.28Y-145.58
X116.82Y-137.96
X116.82Y-145.58
X119.36Y-137.96
X119.36Y-145.58
X105.27Y-130.82
X107.77Y-130.82
X116.82Y-149.92
X119.32Y-149.92
X111.04Y-149.77
X113.54Y-149.77
X122.61Y-149.93
X125.11Y-149.93
X94.58Y-123.14
X102.2Y-123.14
X105.27Y-136.98
X107.77Y-136.98
X94.58Y-126.47
X102.2Y-126.47
X94.6Y-130.43
X102.22Y-130.43
X113.67Y-124.54
X113.67Y-132.16
X94.56Y-119.33
X102.18Y-119.33
X94.53Y-144.77
X102.15Y-144.77
T3
X111.02Y-120.13
X113.56Y-120.13
X88.91Y-138.79
X88.91Y-141.33
X88.88Y-128.3
X88.88Y-130.84
T4
X121.33Y-124.35
X121.33Y-131.97
X118.85Y-121.23
X121.39Y-121.23
X123.93Y-121.23
T5
X127.46Y-126.79
X127.46Y-131.79
X127.43Y-138.89
X127.43Y-143.89
T6
X87.22Y-118.65
X87.22Y-150.97
X131.14Y-118.65
X131.14Y-150.97
T0
M30
